Merriweather_make small caps 2.glyphspackage
{
glyphname = exclam;
kernLeft = exclam;
kernRight = exclam;
layers = (
{
layerId = UUID0;
shapes = (
{
closed = 1;
nodes = (
(174,1798,l),
(224,460,l),
(326,460,l),
(368,1798,l)
);
},
{
closed = 1;
nodes = (
(160,20,o),
(214,-22,o),
(272,-22,cs),
(342,-22,o),
(406,30,o),
(406,108,cs),
(406,166,o),
(372,218,o),
(292,218,cs),
(228,218,o),
(160,162,o),
(160,88,cs)
);
}
);
width = 566;
},
{
layerId = "DEBB1CE4-A72D-4960-969E-E04A036D2FA1";
shapes = (
{
closed = 1;
nodes = (
(110,1780,l),
(201,516,l),
(389,516,l),
(480,1780,l)
);
},
{
closed = 1;
nodes = (
(117,51,o),
(201,-16,o),
(287,-16,cs),
(408,-16,o),
(494,49,o),
(494,164,cs),
(494,249,o),
(429,330,o),
(317,330,cs),
(207,330,o),
(117,257,o),
(117,149,cs)
);
}
);
width = 604;
},
{
layerId = "184155C8-9F61-4F1C-9784-DDA8EA717636";
shapes = (
{
closed = 1;
nodes = (
(60,1780,l),
(221,456,l),
(276,456,l),
(436,1780,l)
);
},
{
closed = 1;
nodes = (
(81,47,o),
(152,-16,o),
(232,-16,cs),
(342,-16,o),
(416,44,o),
(416,149,cs),
(416,227,o),
(361,301,o),
(260,301,cs),
(160,301,o),
(81,234,o),
(81,136,cs)
);
}
);
width = 496;
},
{
layerId = "C9B9556E-C2FD-4F62-BB40-44923C452C22";
shapes = (
{
closed = 1;
nodes = (
(109,1798,l),
(166,359,l),
(214,359,l),
(263,1798,l)
);
},
{
closed = 1;
nodes = (
(90,14,o),
(130,-22,o),
(179,-22,cs),
(232,-22,o),
(282,22,o),
(282,85,cs),
(282,132,o),
(256,176,o),
(195,176,cs),
(141,176,o),
(90,130,o),
(90,69,cs)
);
}
);
width = 372;
},
{
layerId = "AFA1064D-EFC9-4C9F-B9B0-9118E41D87C4";
shapes = (
{
closed = 1;
nodes = (
(40,1780,l),
(226,486,l),
(275,486,l),
(460,1780,l)
);
},
{
closed = 1;
nodes = (
(66,47,o),
(141,-16,o),
(232,-16,cs),
(356,-16,o),
(435,44,o),
(435,149,cs),
(435,227,o),
(377,301,o),
(263,301,cs),
(150,301,o),
(66,234,o),
(66,136,cs)
);
}
);
width = 500;
},
{
layerId = "2103F1D3-C390-4F79-A87D-298F85EA6916";
shapes = (
{
closed = 1;
nodes = (
(109,1798,l),
(169,377,l),
(216,377,l),
(267,1798,l)
);
},
{
closed = 1;
nodes = (
(80,14,o),
(125,-22,o),
(180,-22,cs),
(240,-22,o),
(296,22,o),
(296,85,cs),
(296,132,o),
(266,176,o),
(198,176,cs),
(138,176,o),
(80,130,o),
(80,69,cs)
);
}
);
width = 376;
},
{
layerId = "779F1615-9D1A-4778-9767-9A030AA58B6C";
shapes = (
{
closed = 1;
nodes = (
(144,1798,l),
(194,460,l),
(296,460,l),
(338,1798,l)
);
},
{
closed = 1;
nodes = (
(130,20,o),
(184,-22,o),
(242,-22,cs),
(312,-22,o),
(376,30,o),
(376,108,cs),
(376,166,o),
(342,218,o),
(262,218,cs),
(198,218,o),
(130,162,o),
(130,88,cs)
);
}
);
userData = {
com.schriftgestaltung.Glyphs.lastChange = "2019-04-25 21:50:43 +0000";
};
width = 506;
},
{
layerId = "97BB7961-D669-43AB-8BBF-11FFD0C46A4B";
shapes = (
{
closed = 1;
nodes = (
(120,1780,l),
(207,516,l),
(404,516,l),
(490,1780,l)
);
},
{
closed = 1;
nodes = (
(127,51,o),
(211,-16,o),
(297,-16,cs),
(418,-16,o),
(504,49,o),
(504,164,cs),
(504,249,o),
(439,330,o),
(327,330,cs),
(217,330,o),
(127,257,o),
(127,149,cs)
);
}
);
width = 624;
}
);
metricRight = "=|";
unicode = 33;
}
{
glyphname = quotedbl;
kernLeft = quotesingle;
kernRight = quotesingle;
layers = (
{
layerId = UUID0;
shapes = (
{
closed = 1;
nodes = (
(258,1644,l),
(294,938,l),
(400,938,l),
(438,1644,l)
);
},
{
closed = 1;
nodes = (
(761,1644,l),
(797,938,l),
(903,938,l),
(941,1644,l)
);
}
);
width = 1198;
},
{
layerId = "DEBB1CE4-A72D-4960-969E-E04A036D2FA1";
shapes = (
{
closed = 1;
nodes = (
(220,1682,l),
(269,846,l),
(464,846,l),
(515,1682,l)
);
},
{
closed = 1;
nodes = (
(776,1682,l),
(825,846,l),
(1020,846,l),
(1071,1682,l)
);
}
);
width = 1290;
},
{
layerId = "184155C8-9F61-4F1C-9784-DDA8EA717636";
shapes = (
{
closed = 1;
nodes = (
(194,1682,l),
(301,939,l),
(348,939,l),
(457,1682,l)
);
},
{
closed = 1;
nodes = (
(648,1682,l),
(755,939,l),
(802,939,l),
(911,1682,l)
);
}
);
width = 1101;
},
{
layerId = "C9B9556E-C2FD-4F62-BB40-44923C452C22";
shapes = (
{
closed = 1;
nodes = (
(228,1644,l),
(278,1065,l),
(322,1065,l),
(374,1644,l)
);
},
{
closed = 1;
nodes = (
(599,1644,l),
(648,1065,l),
(693,1065,l),
(744,1644,l)
);
}
);
width = 970;
},
{
layerId = "AFA1064D-EFC9-4C9F-B9B0-9118E41D87C4";
shapes = (
{
closed = 1;
nodes = (
(190,1682,l),
(308,939,l),
(353,939,l),
(473,1682,l)
);
},
{
closed = 1;
nodes = (
(675,1682,l),
(793,939,l),
(839,939,l),
(959,1682,l)
);
}
);
width = 1145;
},
{
layerId = "2103F1D3-C390-4F79-A87D-298F85EA6916";
shapes = (
{
closed = 1;
nodes = (
(238,1644,l),
(294,1065,l),
(335,1065,l),
(394,1644,l)
);
},
{
closed = 1;
nodes = (
(650,1644,l),
(704,1065,l),
(747,1065,l),
(804,1644,l)
);
}
);
width = 1040;
},
{
layerId = "779F1615-9D1A-4778-9767-9A030AA58B6C";
shapes = (
{
closed = 1;
nodes = (
(258,1644,l),
(294,938,l),
(400,938,l),
(438,1644,l)
);
},
{
closed = 1;
nodes = (
(761,1644,l),
(797,938,l),
(903,938,l),
(941,1644,l)
);
}
);
userData = {
com.schriftgestaltung.Glyphs.lastChange = "2019-04-25 21:50:43 +0000";
};
width = 1198;
},
{
layerId = "97BB7961-D669-43AB-8BBF-11FFD0C46A4B";
shapes = (
{
closed = 1;
nodes = (
(220,1682,l),
(269,846,l),
(464,846,l),
(515,1682,l)
);
},
{
closed = 1;
nodes = (
(776,1682,l),
(825,846,l),
(1020,846,l),
(1071,1682,l)
);
}
);
width = 1290;
}
);
unicode = 34;
}
{
glyphname = percent;
kernLeft = percent;
kernRight = percent;
layers = (
{
layerId = UUID0;
shapes = (
{
closed = 1;
nodes = (
(764,0,l),
(1404,1502,l),
(1274,1502,l),
(632,0,l)
);
},
{
closed = 1;
nodes = (
(656,648,o),
(840,794,o),
(840,1060,cs),
(840,1286,o),
(734,1464,o),
(494,1464,cs),
(294,1464,o),
(114,1314,o),
(114,1048,cs),
(114,832,o),
(248,648,o),
(460,648,cs)
);
},
{
closed = 1;
nodes = (
(340,744,o),
(268,884,o),
(268,1056,cs),
(268,1248,o),
(350,1368,o),
(482,1368,cs),
(618,1368,o),
(688,1238,o),
(688,1052,cs),
(688,862,o),
(604,744,o),
(472,744,cs)
);
},
{
closed = 1;
nodes = (
(1736,48,o),
(1922,194,o),
(1922,460,cs),
(1922,684,o),
(1814,864,o),
(1576,864,cs),
(1376,864,o),
(1196,714,o),
(1196,448,cs),
(1196,232,o),
(1328,48,o),
(1542,48,cs)
);
},
{
closed = 1;
nodes = (
(1422,144,o),
(1348,284,o),
(1348,458,cs),
(1348,648,o),
(1430,768,o),
(1564,768,cs),
(1700,768,o),
(1770,636,o),
(1770,452,cs),
(1770,262,o),
(1684,144,o),
(1552,144,cs)
);
}
);
width = 2036;
},
{
layerId = "DEBB1CE4-A72D-4960-969E-E04A036D2FA1";
shapes = (
{
closed = 1;
nodes = (
(856,0,l),
(1497,1502,l),
(1292,1502,l),
(651,0,l)
);
},
{
closed = 1;
nodes = (
(705,624,o),
(895,779,o),
(895,1063,cs),
(895,1304,o),
(795,1495,o),
(509,1495,cs),
(273,1495,o),
(89,1335,o),
(89,1051,cs),
(89,819,o),
(220,624,o),
(473,624,cs)
);
},
{
closed = 1;
nodes = (
(384,753,o),
(354,924,o),
(354,1063,cs),
(354,1239,o),
(388,1364,o),
(497,1364,cs),
(605,1364,o),
(632,1210,o),
(632,1055,cs),
(632,878,o),
(601,753,o),
(491,753,cs)
);
},
{
closed = 1;
nodes = (
(1876,20,o),
(2067,176,o),
(2067,460,cs),
(2067,700,o),
(1965,892,o),
(1681,892,cs),
(1444,892,o),
(1260,732,o),
(1260,448,cs),
(1260,217,o),
(1392,20,o),
(1644,20,cs)
);
},
{
closed = 1;
nodes = (
(1555,151,o),
(1524,321,o),
(1524,461,cs),
(1524,636,o),
(1559,761,o),
(1669,761,cs),
(1775,761,o),
(1803,606,o),
(1803,452,cs),
(1804,277,o),
(1771,151,o),
(1661,151,cs)
);
}
);
width = 2156;
},
{
layerId = "184155C8-9F61-4F1C-9784-DDA8EA717636";
shapes = (
{
closed = 1;
nodes = (
(712,0,l),
(1366,1502,l),
(1280,1502,l),
(626,0,l)
);
},
{
closed = 1;
nodes = (
(704,624,o),
(895,780,o),
(895,1064,cs),
(895,1304,o),
(793,1496,o),
(510,1496,cs),
(273,1496,o),
(89,1336,o),
(89,1052,cs),
(89,811,o),
(221,624,o),
(473,624,cs)
);
},
{
closed = 1;
nodes = (
(394,682,o),
(353,796,o),
(353,1065,cs),
(353,1328,o),
(396,1440,o),
(498,1440,cs),
(592,1440,o),
(632,1325,o),
(632,1056,cs),
(632,794,o),
(590,682,o),
(490,682,cs)
);
},
{
closed = 1;
nodes = (
(1715,20,o),
(1906,176,o),
(1906,460,cs),
(1906,700,o),
(1804,892,o),
(1520,892,cs),
(1283,892,o),
(1099,732,o),
(1099,448,cs),
(1099,217,o),
(1231,20,o),
(1483,20,cs)
);
},
{
closed = 1;
nodes = (
(1404,78,o),
(1363,192,o),
(1363,461,cs),
(1363,724,o),
(1406,836,o),
(1508,836,cs),
(1602,836,o),
(1642,721,o),
(1642,452,cs),
(1642,190,o),
(1600,78,o),
(1500,78,cs)
);
}
);
width = 1995;
},
{
layerId = "C9B9556E-C2FD-4F62-BB40-44923C452C22";
shapes = (
{
closed = 1;
nodes = (
(681,0,l),
(1281,1502,l),
(1170,1501,l),
(571,0,l)
);
},
{
closed = 1;
nodes = (
(622,648,o),
(800,794,o),
(800,1060,cs),
(800,1285,o),
(698,1464,o),
(463,1464,cs),
(268,1464,o),
(94,1314,o),
(94,1048,cs),
(94,833,o),
(223,648,o),
(431,648,cs)
);
},
{
closed = 1;
nodes = (
(301,686,o),
(225,854,o),
(225,1056,cs),
(225,1282,o),
(311,1426,o),
(451,1426,cs),
(590,1426,o),
(670,1287,o),
(670,1052,cs),
(670,828,o),
(582,686,o),
(442,686,cs)
);
},
{
closed = 1;
nodes = (
(1589,49,o),
(1767,195,o),
(1767,461,cs),
(1767,686,o),
(1665,865,o),
(1430,865,cs),
(1235,865,o),
(1061,715,o),
(1061,449,cs),
(1061,234,o),
(1190,49,o),
(1398,49,cs)
);
},
{
closed = 1;
nodes = (
(1268,87,o),
(1192,255,o),
(1192,457,cs),
(1192,683,o),
(1278,827,o),
(1418,827,cs),
(1557,827,o),
(1637,688,o),
(1637,453,cs),
(1637,229,o),
(1549,87,o),
(1409,87,cs)
);
}
);
width = 1861;
},
{
layerId = "AFA1064D-EFC9-4C9F-B9B0-9118E41D87C4";
shapes = (
{
closed = 1;
nodes = (
(712,0,l),
(1366,1502,l),
(1280,1502,l),
(626,0,l)
);
},
{
closed = 1;
nodes = (
(713,624,o),
(911,780,o),
(911,1064,cs),
(911,1304,o),
(805,1496,o),
(511,1496,cs),
(264,1496,o),
(73,1336,o),
(73,1052,cs),
(73,811,o),
(210,624,o),
(472,624,cs)
);
},
{
closed = 1;
nodes = (
(390,682,o),
(347,796,o),
(347,1065,cs),
(347,1328,o),
(392,1440,o),
(498,1440,cs),
(596,1440,o),
(638,1325,o),
(638,1056,cs),
(638,794,o),
(594,682,o),
(490,682,cs)
);
},
{
closed = 1;
nodes = (
(1724,20,o),
(1922,176,o),
(1922,460,cs),
(1922,700,o),
(1816,892,o),
(1521,892,cs),
(1274,892,o),
(1083,732,o),
(1083,448,cs),
(1083,217,o),
(1220,20,o),
(1482,20,cs)
);
},
{
closed = 1;
nodes = (
(1400,78,o),
(1357,192,o),
(1357,461,cs),
(1357,724,o),
(1402,836,o),
(1508,836,cs),
(1606,836,o),
(1648,721,o),
(1648,452,cs),
(1648,190,o),
(1604,78,o),
(1500,78,cs)
);
}
);
width = 1995;
},
{
layerId = "2103F1D3-C390-4F79-A87D-298F85EA6916";
shapes = (
{
closed = 1;
nodes = (
(725,0,l),
(1363,1502,l),
(1250,1501,l),
(613,0,l)
);
},
{
closed = 1;
nodes = (
(662,648,o),
(852,794,o),
(852,1060,cs),
(852,1285,o),
(743,1464,o),
(495,1464,cs),
(290,1464,o),
(104,1314,o),
(104,1048,cs),
(104,833,o),
(242,648,o),
(461,648,cs)
);
},
{
closed = 1;
nodes = (
(319,686,o),
(235,854,o),
(235,1056,cs),
(235,1281,o),
(330,1426,o),
(482,1426,cs),
(634,1426,o),
(722,1286,o),
(722,1052,cs),
(722,829,o),
(625,686,o),
(473,686,cs)
);
},
{
closed = 1;
nodes = (
(1693,49,o),
(1883,195,o),
(1883,461,cs),
(1883,686,o),
(1774,865,o),
(1526,865,cs),
(1321,865,o),
(1135,715,o),
(1135,449,cs),
(1135,234,o),
(1273,49,o),
(1492,49,cs)
);
},
{
closed = 1;
nodes = (
(1350,87,o),
(1266,255,o),
(1266,457,cs),
(1266,682,o),
(1361,827,o),
(1513,827,cs),
(1665,827,o),
(1753,687,o),
(1753,453,cs),
(1753,230,o),
(1656,87,o),
(1504,87,cs)
);
}
);
width = 1987;
},
{
layerId = "779F1615-9D1A-4778-9767-9A030AA58B6C";
shapes = (
{
closed = 1;
nodes = (
(764,0,l),
(1404,1502,l),
(1274,1502,l),
(632,0,l)
);
},
{
closed = 1;
nodes = (
(663,648,o),
(855,794,o),
(855,1060,cs),
(855,1286,o),
(744,1464,o),
(495,1464,cs),
(287,1464,o),
(99,1314,o),
(99,1048,cs),
(99,832,o),
(239,648,o),
(459,648,cs)
);
},
{
closed = 1;
nodes = (
(334,744,o),
(260,884,o),
(260,1056,cs),
(260,1248,o),
(345,1368,o),
(482,1368,cs),
(624,1368,o),
(697,1238,o),
(697,1052,cs),
(697,862,o),
(609,744,o),
(472,744,cs)
);
},
{
closed = 1;
nodes = (
(1743,48,o),
(1937,194,o),
(1937,460,cs),
(1937,684,o),
(1824,864,o),
(1577,864,cs),
(1369,864,o),
(1181,714,o),
(1181,448,cs),
(1181,232,o),
(1319,48,o),
(1541,48,cs)
);
},
{
closed = 1;
nodes = (
(1416,144,o),
(1339,284,o),
(1339,458,cs),
(1339,648,o),
(1425,768,o),
(1564,768,cs),
(1706,768,o),
(1779,636,o),
(1779,452,cs),
(1779,262,o),
(1689,144,o),
(1552,144,cs)
);
}
);
userData = {
com.schriftgestaltung.Glyphs.lastChange = "2019-04-25 21:50:43 +0000";
};
width = 2036;
},
{
layerId = "97BB7961-D669-43AB-8BBF-11FFD0C46A4B";
shapes = (
{
closed = 1;
nodes = (
(894,0,l),
(1565,1502,l),
(1352,1502,l),
(682,0,l)
);
},
{
closed = 1;
nodes = (
(755,624,o),
(965,779,o),
(965,1063,cs),
(965,1304,o),
(852,1495,o),
(546,1495,cs),
(293,1495,o),
(89,1335,o),
(89,1051,cs),
(89,819,o),
(236,624,o),
(506,624,cs)
);
},
{
closed = 1;
nodes = (
(429,753,o),
(398,926,o),
(398,1063,cs),
(398,1237,o),
(434,1364,o),
(533,1364,cs),
(629,1364,o),
(658,1209,o),
(658,1055,cs),
(658,878,o),
(623,753,o),
(525,753,cs)
);
},
{
closed = 1;
nodes = (
(1953,21,o),
(2163,176,o),
(2163,460,cs),
(2163,701,o),
(2050,892,o),
(1744,892,cs),
(1488,892,o),
(1287,732,o),
(1287,448,cs),
(1287,216,o),
(1434,21,o),
(1704,21,cs)
);
},
{
closed = 1;
nodes = (
(1627,150,o),
(1596,323,o),
(1596,460,cs),
(1596,634,o),
(1632,761,o),
(1731,761,cs),
(1827,761,o),
(1856,605,o),
(1856,452,cs),
(1856,276,o),
(1821,150,o),
(1723,150,cs)
);
}
);
width = 2252;
}
);
metricRight = "=|";
unicode = 37;
}
{
glyphname = quotesingle;
kernLeft = quotesingle;
kernRight = quotesingle;
layers = (
{
layerId = UUID0;
shapes = (
{
closed = 1;
nodes = (
(200,1644,l),
(236,938,l),
(342,938,l),
(380,1644,l)
);
}
);
width = 580;
},
{
layerId = "DEBB1CE4-A72D-4960-969E-E04A036D2FA1";
shapes = (
{
closed = 1;
nodes = (
(220,1682,l),
(269,846,l),
(464,846,l),
(515,1682,l)
);
}
);
width = 735;
},
{
layerId = "184155C8-9F61-4F1C-9784-DDA8EA717636";
shapes = (
{
closed = 1;
nodes = (
(194,1682,l),
(301,939,l),
(348,939,l),
(457,1682,l)
);
}
);
width = 651;
},
{
layerId = "C9B9556E-C2FD-4F62-BB40-44923C452C22";
shapes = (
{
closed = 1;
nodes = (
(228,1644,l),
(278,1065,l),
(322,1065,l),
(374,1644,l)
);
}
);
width = 602;
},
{
layerId = "AFA1064D-EFC9-4C9F-B9B0-9118E41D87C4";
shapes = (
{
closed = 1;
nodes = (
(190,1682,l),
(308,939,l),
(353,939,l),
(473,1682,l)
);
}
);
width = 663;
},
{
layerId = "2103F1D3-C390-4F79-A87D-298F85EA6916";
shapes = (
{
closed = 1;
nodes = (
(238,1644,l),
(294,1065,l),
(335,1065,l),
(394,1644,l)
);
}
);
width = 632;
},
{
layerId = "779F1615-9D1A-4778-9767-9A030AA58B6C";
shapes = (
{
closed = 1;
nodes = (
(258,1644,l),
(294,938,l),
(400,938,l),
(438,1644,l)
);
}
);
userData = {
com.schriftgestaltung.Glyphs.lastChange = "2019-04-25 21:50:43 +0000";
};
width = 696;
},
{
layerId = "97BB7961-D669-43AB-8BBF-11FFD0C46A4B";
shapes = (
{
closed = 1;
nodes = (
(220,1682,l),
(269,846,l),
(464,846,l),
(515,1682,l)
);
}
);
width = 735;
}
);
metricRight = "=|";
unicode = 39;
}
{
color = 4;
glyphname = asterisk;
kernLeft = asterisk;
kernRight = asterisk;
layers = (
{
layerId = UUID0;
shapes = (
{
closed = 1;
nodes = (
(164,942,l),
(244,806,l),
(494,986,l),
(612,1094,l),
(584,936,l),
(560,626,l),
(718,628,l),
(684,936,l),
(652,1094,l),
(776,990,l),
(1026,812,l),
(1106,952,l),
(824,1078,l),
(672,1128,l),
(824,1182,l),
(1100,1314,l),
(1022,1448,l),
(770,1268,l),
(652,1162,l),
(682,1320,l),
(708,1626,l),
(548,1626,l),
(580,1318,l),
(614,1160,l),
(490,1264,l),
(238,1442,l),
(162,1306,l),
(442,1176,l),
(594,1128,l),
(442,1076,l)
);
}
);
width = 1268;
},
{
layerId = "DEBB1CE4-A72D-4960-969E-E04A036D2FA1";
shapes = (
{
closed = 1;
nodes = (
(129,980,l),
(257,765,l),
(420,884,l),
(624,1079,l),
(562,810,l),
(547,604,l),
(807,604,l),
(786,810,l),
(711,1076,l),
(925,887,l),
(1082,772,l),
(1214,995,l),
(1035,1078,l),
(756,1152,l),
(1035,1232,l),
(1209,1323,l),
(1080,1537,l),
(913,1419,l),
(711,1227,l),
(774,1493,l),
(791,1697,l),
(529,1697,l),
(550,1488,l),
(624,1222,l),
(416,1413,l),
(250,1529,l),
(125,1313,l),
(306,1229,l),
(579,1152,l),
(306,1070,l)
);
}
);
width = 1339;
},
{
layerId = "184155C8-9F61-4F1C-9784-DDA8EA717636";
shapes = (
{
closed = 1;
nodes = (
(56,1079,l),
(147,922,l),
(272,1014,l),
(434,1174,l),
(386,951,l),
(372,799,l),
(553,799,l),
(535,954,l),
(479,1174,l),
(648,1021,l),
(772,933,l),
(863,1090,l),
(720,1152,l),
(501,1213,l),
(718,1283,l),
(857,1346,l),
(766,1503,l),
(641,1411,l),
(479,1251,l),
(527,1474,l),
(541,1626,l),
(360,1626,l),
(378,1471,l),
(434,1251,l),
(265,1404,l),
(141,1492,l),
(50,1335,l),
(193,1273,l),
(412,1212,l),
(195,1142,l)
);
}
);
width = 913;
},
{
layerId = "C9B9556E-C2FD-4F62-BB40-44923C452C22";
shapes = (
{
closed = 1;
nodes = (
(94,1085,l),
(155,980,l),
(353,1124,l),
(455,1216,l),
(428,1081,l),
(408,838,l),
(529,838,l),
(503,1082,l),
(473,1216,l),
(576,1125,l),
(776,986,l),
(837,1091,l),
(613,1190,l),
(482,1232,l),
(612,1275,l),
(833,1379,l),
(772,1484,l),
(574,1340,l),
(472,1248,l),
(499,1383,l),
(519,1626,l),
(398,1626,l),
(424,1382,l),
(454,1248,l),
(351,1339,l),
(151,1478,l),
(90,1373,l),
(314,1274,l),
(445,1232,l),
(315,1189,l)
);
}
);
width = 927;
},
{
layerId = "AFA1064D-EFC9-4C9F-B9B0-9118E41D87C4";
shapes = (
{
closed = 1;
nodes = (
(56,1079,l),
(147,922,l),
(272,1014,l),
(434,1174,l),
(386,951,l),
(372,799,l),
(553,799,l),
(535,954,l),
(479,1174,l),
(648,1021,l),
(772,933,l),
(863,1090,l),
(720,1152,l),
(501,1213,l),
(718,1283,l),
(857,1346,l),
(766,1503,l),
(641,1411,l),
(479,1251,l),
(527,1474,l),
(541,1626,l),
(360,1626,l),
(378,1471,l),
(434,1251,l),
(265,1404,l),
(141,1492,l),
(50,1335,l),
(193,1273,l),
(412,1212,l),
(195,1142,l)
);
}
);
width = 913;
},
{
layerId = "2103F1D3-C390-4F79-A87D-298F85EA6916";
shapes = (
{
closed = 1;
nodes = (
(87,1085,l),
(149,980,l),
(351,1124,l),
(455,1216,l),
(427,1081,l),
(407,838,l),
(530,838,l),
(504,1082,l),
(473,1216,l),
(578,1125,l),
(782,986,l),
(844,1091,l),
(616,1190,l),
(482,1232,l),
(615,1275,l),
(840,1379,l),
(778,1484,l),
(576,1340,l),
(472,1248,l),
(500,1383,l),
(520,1626,l),
(397,1626,l),
(423,1382,l),
(454,1248,l),
(349,1339,l),
(145,1478,l),
(83,1373,l),
(311,1274,l),
(445,1232,l),
(312,1189,l)
);
}
);
width = 927;
},
{
layerId = "779F1615-9D1A-4778-9767-9A030AA58B6C";
shapes = (
{
closed = 1;
nodes = (
(164,942,l),
(244,806,l),
(494,986,l),
(612,1094,l),
(584,936,l),
(560,626,l),
(718,628,l),
(684,936,l),
(652,1094,l),
(776,990,l),
(1026,812,l),
(1106,952,l),
(824,1078,l),
(672,1128,l),
(824,1182,l),
(1100,1314,l),
(1022,1448,l),
(770,1268,l),
(652,1162,l),
(682,1320,l),
(708,1626,l),
(548,1626,l),
(580,1318,l),
(614,1160,l),
(490,1264,l),
(238,1442,l),
(162,1306,l),
(442,1176,l),
(594,1128,l),
(442,1076,l)
);
}
);
userData = {
com.schriftgestaltung.Glyphs.lastChange = "2019-04-25 21:50:43 +0000";
};
width = 1268;
},
{
layerId = "97BB7961-D669-43AB-8BBF-11FFD0C46A4B";
shapes = (
{
closed = 1;
nodes = (
(129,980,l),
(257,765,l),
(420,884,l),
(624,1079,l),
(562,810,l),
(547,604,l),
(807,604,l),
(786,810,l),
(711,1076,l),
(925,887,l),
(1082,772,l),
(1214,995,l),
(1035,1078,l),
(756,1152,l),
(1035,1232,l),
(1209,1323,l),
(1080,1537,l),
(913,1419,l),
(711,1227,l),
(774,1493,l),
(791,1697,l),
(529,1697,l),
(550,1488,l),
(624,1222,l),
(416,1413,l),
(250,1529,l),
(125,1313,l),
(306,1229,l),
(579,1152,l),
(306,1070,l)
);
}
);
width = 1339;
}
);
metricRight = "=|";
unicode = 42;
}
{
color = 4;
glyphname = plus;
kernLeft = hyphen;
kernRight = hyphen;
layers = (
{
layerId = UUID0;
shapes = (
{
closed = 1;
nodes = (
(180,708,l),
(180,578,l),
(396,578,l),
(568,584,l),
(562,412,l),
(562,171,l),
(692,171,l),
(692,412,l),
(684,584,l),
(832,578,l),
(1074,578,l),
(1074,708,l),
(832,708,l),
(684,698,l),
(692,874,l),
(692,1114,l),
(562,1114,l),
(562,874,l),
(568,698,l),
(396,708,l)
);
}
);
width = 1254;
},
{
layerId = "DEBB1CE4-A72D-4960-969E-E04A036D2FA1";
shapes = (
{
closed = 1;
nodes = (
(180,745,l),
(180,533,l),
(358,533,l),
(541,541,l),
(535,389,l),
(535,170,l),
(745,170,l),
(745,389,l),
(736,541,l),
(893,533,l),
(1101,533,l),
(1101,745,l),
(893,745,l),
(736,733,l),
(745,887,l),
(745,1113,l),
(535,1113,l),
(535,887,l),
(541,733,l),
(358,745,l)
);
}
);
width = 1281;
},
{
layerId = "184155C8-9F61-4F1C-9784-DDA8EA717636";
shapes = (
{
closed = 1;
nodes = (
(154,607,l),
(154,521,l),
(332,521,l),
(571,521,l),
(571,320,l),
(571,92,l),
(657,92,l),
(657,320,l),
(657,521,l),
(867,521,l),
(1075,521,l),
(1075,607,l),
(867,607,l),
(657,607,l),
(657,816,l),
(657,1035,l),
(571,1035,l),
(571,816,l),
(571,607,l),
(332,607,l)
);
}
);
width = 1229;
},
{
layerId = "C9B9556E-C2FD-4F62-BB40-44923C452C22";
shapes = (
{
closed = 1;
nodes = (
(154,607,l),
(154,521,l),
(332,521,l),
(571,521,l),
(571,320,l),
(571,92,l),
(657,92,l),
(657,320,l),
(657,521,l),
(867,521,l),
(1075,521,l),
(1075,607,l),
(867,607,l),
(657,607,l),
(657,816,l),
(657,1035,l),
(571,1035,l),
(571,816,l),
(571,607,l),
(332,607,l)
);
}
);
width = 1229;
},
{
layerId = "AFA1064D-EFC9-4C9F-B9B0-9118E41D87C4";
shapes = (
{
closed = 1;
nodes = (
(104,607,l),
(104,521,l),
(282,521,l),
(521,521,l),
(521,320,l),
(521,92,l),
(607,92,l),
(607,320,l),
(607,521,l),
(817,521,l),
(1025,521,l),
(1025,607,l),
(817,607,l),
(607,607,l),
(607,816,l),
(607,1035,l),
(521,1035,l),
(521,816,l),
(521,607,l),
(282,607,l)
);
}
);
width = 1129;
},
{
layerId = "2103F1D3-C390-4F79-A87D-298F85EA6916";
shapes = (
{
closed = 1;
nodes = (
(156,607,l),
(156,521,l),
(334,521,l),
(573,521,l),
(573,320,l),
(573,92,l),
(659,92,l),
(659,320,l),
(659,521,l),
(869,521,l),
(1077,521,l),
(1077,607,l),
(869,607,l),
(659,607,l),
(659,816,l),
(659,1035,l),
(573,1035,l),
(573,816,l),
(573,607,l),
(334,607,l)
);
}
);
width = 1233;
},
{
layerId = "779F1615-9D1A-4778-9767-9A030AA58B6C";
shapes = (
{
closed = 1;
nodes = (
(110,708,l),
(110,578,l),
(326,578,l),
(498,584,l),
(492,412,l),
(492,172,l),
(622,172,l),
(622,412,l),
(614,584,l),
(762,578,l),
(1004,578,l),
(1004,708,l),
(762,708,l),
(614,698,l),
(622,874,l),
(622,1115,l),
(492,1115,l),
(492,874,l),
(498,698,l),
(326,708,l)
);
}
);
userData = {
com.schriftgestaltung.Glyphs.lastChange = "2019-04-25 21:50:43 +0000";
};
width = 1114;
},
{
layerId = "97BB7961-D669-43AB-8BBF-11FFD0C46A4B";
shapes = (
{
closed = 1;
nodes = (
(170,745,l),
(170,533,l),
(358,533,l),
(541,541,l),
(535,389,l),
(535,170,l),
(745,170,l),
(745,389,l),
(736,541,l),
(893,533,l),
(1111,533,l),
(1111,745,l),
(893,745,l),
(736,733,l),
(745,887,l),
(745,1113,l),
(535,1113,l),
(535,887,l),
(541,733,l),
(358,745,l)
);
}
);
width = 1281;
}
);
metricLeft = hyphen;
metricRight = hyphen;
unicode = 43;
}
{
glyphname = period;
kernLeft = period;
kernRight = period;
layers = (
{
layerId = UUID0;
shapes = (
{
closed = 1;
nodes = (
(308,-22,o),
(370,32,o),
(370,110,cs),
(370,168,o),
(338,222,o),
(262,222,cs),
(196,222,o),
(132,166,o),
(132,90,cs),
(132,22,o),
(182,-22,o),
(242,-22,cs)
);
}
);
width = 502;
},
{
layerId = "DEBB1CE4-A72D-4960-969E-E04A036D2FA1";
shapes = (
{
closed = 1;
nodes = (
(413,-16,o),
(499,50,o),
(499,165,cs),
(499,251,o),
(434,333,o),
(323,333,cs),
(213,333,o),
(122,259,o),
(122,151,cs),
(122,53,o),
(205,-16,o),
(293,-16,cs)
);
}
);
width = 620;
},
{
layerId = "184155C8-9F61-4F1C-9784-DDA8EA717636";
shapes = (
{
closed = 1;
nodes = (
(343,-16,o),
(417,44,o),
(417,149,cs),
(417,227,o),
(362,301,o),
(261,301,cs),
(161,301,o),
(82,234,o),
(82,136,cs),
(82,47,o),
(153,-16,o),
(233,-16,cs)
);
}
);
width = 499;
},
{
layerId = "C9B9556E-C2FD-4F62-BB40-44923C452C22";
shapes = (
{
closed = 1;
nodes = (
(212,-22,o),
(262,22,o),
(262,85,cs),
(262,132,o),
(236,176,o),
(175,176,cs),
(121,176,o),
(70,130,o),
(70,69,cs),
(70,14,o),
(110,-22,o),
(159,-22,cs)
);
}
);
width = 332;
},
{
layerId = "AFA1064D-EFC9-4C9F-B9B0-9118E41D87C4";
shapes = (
{
closed = 1;
nodes = (
(362,-16,o),
(441,44,o),
(441,149,cs),
(441,227,o),
(383,301,o),
(269,301,cs),
(156,301,o),
(72,234,o),
(72,136,cs),
(72,47,o),
(147,-16,o),
(238,-16,cs)
);
}
);
width = 513;
},
{
layerId = "2103F1D3-C390-4F79-A87D-298F85EA6916";
shapes = (
{
closed = 1;
nodes = (
(246,-22,o),
(298,22,o),
(298,85,cs),
(298,132,o),
(272,176,o),
(200,176,cs),
(136,176,o),
(82,130,o),
(82,69,cs),
(82,14,o),
(123,-22,o),
(182,-22,cs)
);
}
);
width = 380;
},
{
layerId = "779F1615-9D1A-4778-9767-9A030AA58B6C";
shapes = (
{
closed = 1;
nodes = (
(308,-22,o),
(370,32,o),
(370,110,cs),
(370,168,o),
(338,222,o),
(262,222,cs),
(196,222,o),
(132,166,o),
(132,90,cs),
(132,22,o),
(182,-22,o),
(242,-22,cs)
);
}
);
userData = {
com.schriftgestaltung.Glyphs.lastChange = "2019-04-25 21:50:43 +0000";
};
width = 502;
},
{
layerId = "97BB7961-D669-43AB-8BBF-11FFD0C46A4B";
shapes = (
{
closed = 1;
nodes = (
(413,-16,o),
(499,50,o),
(499,165,cs),
(499,251,o),
(434,333,o),
(323,333,cs),
(213,333,o),
(122,259,o),
(122,151,cs),
(122,53,o),
(205,-16,o),
(293,-16,cs)
);
}
);
width = 620;
}
);
unicode = 46;
}
{
glyphname = zero;
kernLeft = zero;
kernRight = zero;
layers = (
{
layerId = UUID0;
shapes = (
{
closed = 1;
nodes = (
(940,-18,o),
(1158,298,o),
(1160,748,cs),
(1162,1174,o),
(1030,1504,o),
(652,1504,cs),
(350,1504,o),
(112,1216,o),
(110,760,cs),
(108,346,o),
(254,-18,o),
(626,-18,cs)
);
},
{
closed = 1;
nodes = (
(388,74,o),
(288,398,o),
(288,768,cs),
(288,1162,o),
(382,1412,o),
(640,1412,cs),
(888,1412,o),
(979,1124,o),
(979,740,cs),
(979,334,o),
(892,74,o),
(632,74,cs)
);
}
);
width = 1270;
},
{
layerId = "DEBB1CE4-A72D-4960-969E-E04A036D2FA1";
shapes = (
{
closed = 1;
nodes = (
(1011,-21,o),
(1254,225,o),
(1254,758,cs),
(1254,1249,o),
(1034,1505,o),
(702,1505,cs),
(350,1505,o),
(91,1263,o),
(90,727,cs),
(89,240,o),
(307,-21,o),
(643,-21,cs)
);
},
{
closed = 1;
nodes = (
(537,111,o),
(467,261,o),
(467,746,cs),
(467,1280,o),
(550,1375,o),
(672,1375,cs),
(805,1375,o),
(877,1262,o),
(877,722,cs),
(877,233,o),
(817,111,o),
(675,111,cs)
);
}
);
width = 1344;
},
{
layerId = "184155C8-9F61-4F1C-9784-DDA8EA717636";
shapes = (
{
closed = 1;
nodes = (
(1044,-21,o),
(1266,263,o),
(1266,791,cs),
(1266,1275,o),
(1055,1505,o),
(694,1505,cs),
(306,1505,o),
(63,1223,o),
(62,692,cs),
(61,219,o),
(262,-21,o),
(634,-21,cs)
);
},
{
closed = 1;
nodes = (
(540,36,o),
(467,181,o),
(467,722,cs),
(467,1288,o),
(544,1443,o),
(663,1443,cs),
(786,1443,o),
(861,1335,o),
(861,742,cs),
(861,222,o),
(809,36,o),
(667,36,cs)
);
}
);
width = 1328;
},
{
layerId = "C9B9556E-C2FD-4F62-BB40-44923C452C22";
shapes = (
{
closed = 1;
nodes = (
(898,-18,o),
(1103,278,o),
(1105,748,cs),
(1107,1194,o),
(982,1504,o),
(606,1504,cs),
(301,1504,o),
(77,1236,o),
(75,760,cs),
(73,326,o),
(211,-18,o),
(582,-18,cs)
);
},
{
closed = 1;
nodes = (
(350,32,o),
(241,368,o),
(241,768,cs),
(241,1182,o),
(346,1454,o),
(595,1454,cs),
(836,1454,o),
(939,1154,o),
(939,740,cs),
(939,314,o),
(838,32,o),
(587,32,cs)
);
}
);
width = 1180;
},
{
layerId = "AFA1064D-EFC9-4C9F-B9B0-9118E41D87C4";
shapes = (
{
closed = 1;
nodes = (
(1111,-21,o),
(1403,253,o),
(1403,781,cs),
(1403,1265,o),
(1134,1505,o),
(766,1505,cs),
(376,1505,o),
(61,1233,o),
(60,702,cs),
(59,222,o),
(324,-21,o),
(697,-21,cs)
);
},
{
closed = 1;
nodes = (
(583,36,o),
(495,182,o),
(495,722,cs),
(495,1287,o),
(588,1443,o),
(731,1443,cs),
(876,1443,o),
(968,1336,o),
(968,742,cs),
(968,220,o),
(903,36,o),
(735,36,cs)
);
}
);
width = 1463;
},
{
layerId = "2103F1D3-C390-4F79-A87D-298F85EA6916";
shapes = (
{
closed = 1;
nodes = (
(972,-18,o),
(1216,288,o),
(1219,748,cs),
(1222,1184,o),
(1068,1504,o),
(659,1504,cs),
(334,1504,o),
(68,1226,o),
(65,760,cs),
(62,336,o),
(223,-18,o),
(632,-18,cs)
);
},
{
closed = 1;
nodes = (
(343,32,o),
(244,368,o),
(244,768,cs),
(244,1182,o),
(378,1454,o),
(648,1454,cs),
(948,1454,o),
(1040,1154,o),
(1040,740,cs),
(1040,314,o),
(911,32,o),
(639,32,cs)
);
}
);
width = 1284;
},
{
layerId = "779F1615-9D1A-4778-9767-9A030AA58B6C";
shapes = (
{
closed = 1;
nodes = (
(1012,-18,o),
(1262,278,o),
(1264,748,cs),
(1266,1194,o),
(1106,1504,o),
(685,1504,cs),
(342,1504,o),
(72,1236,o),
(70,760,cs),
(68,326,o),
(243,-18,o),
(657,-18,cs)
);
},
{
closed = 1;
nodes = (
(382,74,o),
(252,378,o),
(252,768,cs),
(252,1182,o),
(376,1412,o),
(672,1412,cs),
(958,1412,o),
(1082,1144,o),
(1082,740,cs),
(1082,314,o),
(963,74,o),
(664,74,cs)
);
}
);
userData = {
com.schriftgestaltung.Glyphs.lastChange = "2019-04-25 21:50:43 +0000";
};
width = 1334;
},
{
layerId = "97BB7961-D669-43AB-8BBF-11FFD0C46A4B";
shapes = (
{
closed = 1;
nodes = (
(1146,-21,o),
(1434,225,o),
(1435,758,cs),
(1436,1249,o),
(1175,1505,o),
(795,1505,cs),
(399,1505,o),
(89,1263,o),
(88,727,cs),
(87,240,o),
(345,-21,o),
(728,-21,cs)
);
},
{
closed = 1;
nodes = (
(592,111,o),
(485,261,o),
(485,746,cs),
(485,1260,o),
(598,1375,o),
(761,1375,cs),
(928,1375,o),
(1038,1262,o),
(1038,722,cs),
(1038,253,o),
(957,111,o),
(764,111,cs)
);
}
);
width = 1523;
}
);
metricRight = "=|";
unicode = 48;
}
{
glyphname = one;
kernLeft = one;
kernRight = one;
layers = (
{
layerId = UUID0;
shapes = (
{
closed = 1;
nodes = (
(138,86,l),
(138,0,l),
(830,0,l),
(830,86,l),
(577,102,l),
(577,1484,l),
(476,1504,l),
(474,1504,l),
(380,1424,o),
(234,1350,o),
(98,1320,c),
(118,1226,l),
(204,1238,o),
(358,1280,o),
(412,1304,c),
(412,102,l)
);
}
);
width = 892;
},
{
layerId = "DEBB1CE4-A72D-4960-969E-E04A036D2FA1";
shapes = (
{
closed = 1;
nodes = (
(110,130,l),
(110,0,l),
(900,0,l),
(900,130,l),
(686,154,l),
(686,1486,l),
(517,1506,l),
(515,1506,l),
(421,1426,o),
(216,1342,o),
(60,1312,c),
(90,1144,l),
(150,1150,o),
(297,1182,o),
(343,1196,c),
(343,152,l)
);
}
);
width = 940;
},
{
layerId = "184155C8-9F61-4F1C-9784-DDA8EA717636";
shapes = (
{
closed = 1;
nodes = (
(62,38,l),
(62,0,l),
(873,0,l),
(873,38,l),
(661,72,l),
(661,1486,l),
(472,1506,l),
(456,1506,l),
(374,1412,o),
(233,1282,o),
(19,1242,c),
(30,1191,l),
(102,1189,o),
(236,1214,o),
(277,1230,c),
(276,72,l)
);
}
);
width = 894;
},
{
layerId = "C9B9556E-C2FD-4F62-BB40-44923C452C22";
shapes = (
{
closed = 1;
nodes = (
(130,36,l),
(130,0,l),
(762,0,l),
(762,36,l),
(525,67,l),
(525,1484,l),
(428,1504,l),
(426,1504,l),
(360,1403,o),
(196,1314,o),
(64,1284,c),
(73,1242,l),
(217,1268,o),
(297,1295,o),
(368,1324,c),
(373,67,l)
);
}
);
width = 820;
},
{
layerId = "AFA1064D-EFC9-4C9F-B9B0-9118E41D87C4";
shapes = (
{
closed = 1;
nodes = (
(74,38,l),
(74,0,l),
(866,0,l),
(866,38,l),
(675,72,l),
(675,1486,l),
(458,1506,l),
(442,1506,l),
(360,1392,o),
(234,1282,o),
(19,1242,c),
(29,1191,l),
(101,1189,o),
(228,1214,o),
(268,1230,c),
(268,72,l)
);
}
);
width = 887;
},
{
layerId = "2103F1D3-C390-4F79-A87D-298F85EA6916";
shapes = (
{
closed = 1;
nodes = (
(151,36,l),
(151,0,l),
(784,0,l),
(784,36,l),
(552,67,l),
(552,1484,l),
(449,1504,l),
(447,1504,l),
(379,1403,o),
(200,1314,o),
(64,1284,c),
(73,1242,l),
(222,1268,o),
(313,1295,o),
(386,1324,c),
(391,67,l)
);
}
);
width = 842;
},
{
layerId = "779F1615-9D1A-4778-9767-9A030AA58B6C";
shapes = (
{
closed = 1;
nodes = (
(100,86,l),
(100,0,l),
(838,0,l),
(838,86,l),
(576,95,l),
(576,1477,l),
(473,1504,l),
(471,1504,l),
(369,1424,o),
(218,1350,o),
(70,1320,c),
(92,1226,l),
(185,1238,o),
(348,1280,o),
(407,1304,c),
(407,102,l)
);
}
);
userData = {
com.schriftgestaltung.Glyphs.lastChange = "2019-04-25 21:50:43 +0000";
};
width = 890;
},
{
layerId = "97BB7961-D669-43AB-8BBF-11FFD0C46A4B";
shapes = (
{
closed = 1;
nodes = (
(112,130,l),
(112,0,l),
(906,0,l),
(906,130,l),
(690,154,l),
(692,1486,l),
(523,1506,l),
(521,1506,l),
(427,1426,o),
(218,1342,o),
(62,1312,c),
(92,1144,l),
(152,1150,o),
(293,1182,o),
(339,1196,c),
(339,152,l)
);
}
);
width = 954;
}
);
unicode = 49;
}
{
glyphname = two;
kernLeft = two;
kernRight = two;
layers = (
{
guides = (
{
angle = 183.8141;
pos = (623,115);
}
);
layerId = UUID0;
shapes = (
{
closed = 1;
nodes = (
(88,0,l),
(1034,0,l),
(1082,292,l),
(994,310,l),
(928,136,l),
(278,94,l),
(582,298,o),
(990,734,o),
(990,1096,cs),
(990,1328,o),
(823,1502,o),
(549,1502,cs),
(297,1502,o),
(140,1356,o),
(73,1249,c),
(157,1183,l),
(210,1250,o),
(316,1372,o),
(510,1372,cs),
(694,1372,o),
(824,1278,o),
(824,1054,cs),
(824,736,o),
(394,272,o),
(64,68,c)
);
}
);
width = 1198;
},
{
layerId = "DEBB1CE4-A72D-4960-969E-E04A036D2FA1";
shapes = (
{
closed = 1;
nodes = (
(82,0,l),
(1062,0,l),
(1116,358,l),
(978,386,l),
(900,228,l),
(344,176,l),
(702,384,o),
(1034,782,o),
(1034,1070,cs),
(1034,1330,o),
(864,1504,o),
(554,1504,cs),
(302,1504,o),
(122,1372,o),
(32,1248,c),
(136,1130,l),
(202,1192,o),
(300,1278,o),
(452,1278,cs),
(588,1278,o),
(686,1198,o),
(686,1022,cs),
(686,710,o),
(358,326,o),
(34,122,c)
);
}
);
width = 1168;
},
{
guides = (
{
angle = -49.9812;
pos = (97,1248);
},
{
angle = 63.435;
pos = (987,312);
},
{
angle = 185.3557;
pos = (699,152);
},
{
pos = (779,1256);
}
);
layerId = "184155C8-9F61-4F1C-9784-DDA8EA717636";
shapes = (
{
closed = 1;
nodes = (
(58,0,l),
(1030,0,l),
(1123,448,l),
(1059,472,l),
(974,330,l),
(182,216,l),
(642,428,o),
(1035,720,o),
(1035,1093,cs),
(1035,1363,o),
(797,1504,o),
(564,1504,cs),
(266,1504,o),
(118,1328,o),
(39,1232,c),
(73,1181,l),
(165,1272,o),
(289,1333,o),
(408,1333,cs),
(556,1333,o),
(630,1215,o),
(630,1011,cs),
(630,676,o),
(353,350,o),
(-12,155,c)
);
}
);
width = 1168;
},
{
guides = (
{
angle = 141.8428;
pos = (182,1244);
},
{
angle = 31.2008;
pos = (193,36);
},
{
angle = 107.9279;
pos = (204,34);
},
{
angle = 167.3196;
pos = (1052,301);
},
{
pos = (203,36);
},
{
angle = 183.8141;
pos = (781,115);
},
{
angle = 184.0228;
pos = (545,122);
}
);
layerId = "C9B9556E-C2FD-4F62-BB40-44923C452C22";
shapes = (
{
closed = 1;
nodes = (
(32,0,l),
(952,0,l),
(1015,314,l),
(949,325,l),
(846,142,l),
(199,101,l),
(543,361,o),
(908,757,o),
(908,1106,cs),
(908,1364,o),
(723,1502,o),
(499,1502,cs),
(342,1502,o),
(162,1420,o),
(51,1225,c),
(92,1191,l),
(199,1343,o),
(350,1404,o),
(464,1404,cs),
(627,1404,o),
(742,1296,o),
(742,1081,cs),
(742,702,o),
(390,256,o),
(20,36,c)
);
}
);
width = 1063;
},
{
layerId = "AFA1064D-EFC9-4C9F-B9B0-9118E41D87C4";
shapes = (
{
closed = 1;
nodes = (
(92,0,l),
(1068,0,l),
(1167,448,l),
(1099,472,l),
(1008,330,l),
(237,256,l),
(693,499,o),
(1079,712,o),
(1079,1119,cs),
(1079,1296,o),
(945,1504,o),
(596,1504,cs),
(307,1504,o),
(120,1328,o),
(37,1232,c),
(72,1181,l),
(164,1256,o),
(297,1303,o),
(378,1303,cs),
(517,1303,o),
(655,1229,o),
(661,1041,cs),
(672,690,o),
(410,400,o),
(18,195,c)
);
}
);
width = 1217;
},
{
layerId = "2103F1D3-C390-4F79-A87D-298F85EA6916";
shapes = (
{
closed = 1;
nodes = (
(38,0,l),
(1045,0,l),
(1111,314,l),
(1042,325,l),
(934,142,l),
(212,101,l),
(574,361,o),
(1003,757,o),
(1003,1106,cs),
(1003,1364,o),
(792,1502,o),
(560,1502,cs),
(378,1502,o),
(191,1410,o),
(71,1225,c),
(114,1191,l),
(232,1333,o),
(387,1404,o),
(521,1404,cs),
(691,1404,o),
(819,1296,o),
(819,1081,cs),
(819,702,o),
(421,256,o),
(26,36,c)
);
}
);
width = 1169;
},
{
layerId = "779F1615-9D1A-4778-9767-9A030AA58B6C";
shapes = (
{
closed = 1;
nodes = (
(80,0,l),
(1081,0,l),
(1132,292,l),
(1040,310,l),
(968,136,l),
(271,94,l),
(612,298,o),
(1016,704,o),
(1016,1096,cs),
(1016,1360,o),
(800,1502,o),
(563,1502,cs),
(375,1502,o),
(206,1412,o),
(92,1251,c),
(159,1182,l),
(259,1311,o),
(375,1371,o),
(523,1371,cs),
(721,1371,o),
(847,1275,o),
(847,1062,cs),
(847,684,o),
(392,255,o),
(55,68,c)
);
}
);
userData = {
com.schriftgestaltung.Glyphs.lastChange = "2019-04-25 21:50:43 +0000";
};
width = 1198;
},
{
layerId = "97BB7961-D669-43AB-8BBF-11FFD0C46A4B";
shapes = (
{
closed = 1;
nodes = (
(70,0,l),
(1153,0,l),
(1207,358,l),
(1054,386,l),
(976,233,l),
(367,176,l),
(724,397,o),
(1099,730,o),
(1099,1077,cs),
(1099,1350,o),
(877,1504,o),
(611,1504,cs),
(404,1504,o),
(166,1400,o),
(50,1248,c),
(155,1130,l),
(252,1229,o),
(395,1278,o),
(495,1278,cs),
(661,1278,o),
(757,1186,o),
(757,1028,cs),
(757,704,o),
(352,331,o),
(22,122,c)
);
}
);
width = 1249;
}
);
unicode = 50;
}
{
glyphname = three;
kernLeft = three;
kernRight = three;
layers = (
{
layerId = UUID0;
shapes = (
{
closed = 1;
nodes = (
(732,-26,o),
(1014,188,o),
(1010,488,cs),
(1008,676,o),
(840,824,o),
(564,800,c),
(748,864,o),
(938,988,o),
(938,1184,cs),
(938,1412,o),
(752,1502,o),
(536,1502,cs),
(322,1502,o),
(164,1408,o),
(100,1342,c),
(144,1270,l),
(222,1332,o),
(338,1386,o),
(494,1386,cs),
(660,1386,o),
(768,1329,o),
(766,1155,cs),
(764,995,o),
(626,920,o),
(460,854,cs),
(410,834,o),
(356,818,o),
(304,808,c),
(334,712,l),
(346,716,o),
(450,742,o),
(464,748,c),
(718,744,o),
(824,642,o),
(824,462,cs),
(824,252,o),
(628,70,o),
(278,70,cs),
(242,70,o),
(178,74,o),
(136,86,c),
(136,-8,l),
(186,-20,o),
(254,-26,o),
(304,-26,cs)
);
}
);
width = 1144;
},
{
layerId = "DEBB1CE4-A72D-4960-969E-E04A036D2FA1";
shapes = (
{
closed = 1;
nodes = (
(788,-36,o),
(1055,187,o),
(1054,469,cs),
(1053,670,o),
(851,793,o),
(587,769,c),
(786,839,o),
(977,966,o),
(977,1175,cs),
(977,1406,o),
(781,1503,o),
(532,1503,cs),
(329,1503,o),
(114,1402,o),
(48,1338,c),
(127,1198,l),
(184,1243,o),
(296,1297,o),
(425,1297,cs),
(529,1297,o),
(629,1249,o),
(629,1121,cs),
(629,1010,o),
(557,917,o),
(405,850,cs),
(356,828,o),
(299,808,o),
(243,799,c),
(288,666,l),
(319,673,o),
(373,687,o),
(404,695,c),
(587,686,o),
(679,604,o),
(679,437,cs),
(679,258,o),
(530,139,o),
(264,139,cs),
(185,139,o),
(126,149,o),
(70,167,c),
(70,1,l),
(128,-19,o),
(247,-36,o),
(339,-36,cs)
);
}
);
width = 1146;
},
{
layerId = "184155C8-9F61-4F1C-9784-DDA8EA717636";
shapes = (
{
closed = 1;
nodes = (
(692,-30,o),
(1028,142,o),
(1028,436,cs),
(1028,704,o),
(780,827,o),
(425,752,c),
(709,811,o),
(947,973,o),
(947,1207,cs),
(947,1406,o),
(750,1504,o),
(536,1504,cs),
(324,1504,o),
(155,1421,o),
(20,1290,c),
(66,1237,l),
(148,1296,o),
(223,1356,o),
(367,1356,cs),
(462,1356,o),
(553,1298,o),
(553,1140,cs),
(553,993,o),
(461,867,o),
(348,815,cs),
(309,797,o),
(248,774,o),
(204,764,c),
(212,685,l),
(245,694,o),
(314,717,o),
(353,727,c),
(516,727,o),
(618,605,o),
(618,432,cs),
(618,228,o),
(501,63,o),
(281,63,cs),
(199,63,o),
(119,71,o),
(34,105,c),
(20,37,l),
(80,4,o),
(221,-30,o),
(362,-30,cs)
);
}
);
width = 1086;
},
{
layerId = "C9B9556E-C2FD-4F62-BB40-44923C452C22";
shapes = (
{
closed = 1;
nodes = (
(588,-32,o),
(924,139,o),
(924,468,cs),
(924,686,o),
(719,862,o),
(431,787,c),
(627,860,o),
(845,978,o),
(845,1208,cs),
(845,1412,o),
(656,1502,o),
(448,1502,cs),
(269,1502,o),
(111,1408,o),
(36,1332,c),
(62,1288,l),
(154,1363,o),
(288,1405,o),
(388,1407,cs),
(533,1410,o),
(668,1343,o),
(668,1199,cs),
(668,1044,o),
(557,905,o),
(351,828,cs),
(308,812,o),
(256,798,o),
(215,784,c),
(232,720,l),
(264,729,o),
(341,754,o),
(379,765,c),
(660,806,o),
(746,631,o),
(747,470,cs),
(749,209,o),
(547,33,o),
(219,38,cs),
(158,39,o),
(86,52,o),
(40,68,c),
(40,7,l),
(86,-11,o),
(177,-25,o),
(232,-26,cs)
);
}
);
width = 982;
},
{
layerId = "AFA1064D-EFC9-4C9F-B9B0-9118E41D87C4";
shapes = (
{
closed = 1;
nodes = (
(745,-30,o),
(1089,142,o),
(1089,436,cs),
(1089,704,o),
(838,827,o),
(462,752,c),
(763,811,o),
(1014,963,o),
(1014,1197,cs),
(1014,1396,o),
(807,1504,o),
(569,1504,cs),
(354,1504,o),
(174,1421,o),
(20,1290,c),
(69,1237,l),
(156,1306,o),
(247,1356,o),
(361,1356,cs),
(512,1356,o),
(598,1288,o),
(598,1130,cs),
(598,983,o),
(502,867,o),
(382,815,cs),
(341,797,o),
(276,774,o),
(229,764,c),
(236,685,l),
(271,694,o),
(344,717,o),
(385,727,c),
(578,727,o),
(656,585,o),
(656,432,cs),
(656,248,o),
(539,63,o),
(286,63,cs),
(198,63,o),
(119,71,o),
(29,105,c),
(6,38,l),
(70,5,o),
(213,-30,o),
(364,-30,cs)
);
}
);
width = 1149;
},
{
layerId = "2103F1D3-C390-4F79-A87D-298F85EA6916";
shapes = (
{
closed = 1;
nodes = (
(642,-32,o),
(988,139,o),
(988,468,cs),
(988,696,o),
(765,842,o),
(451,787,c),
(664,860,o),
(903,978,o),
(903,1208,cs),
(903,1412,o),
(696,1502,o),
(469,1502,cs),
(295,1502,o),
(111,1408,o),
(30,1332,c),
(58,1288,l),
(158,1363,o),
(294,1405,o),
(404,1407,cs),
(562,1410,o),
(709,1343,o),
(709,1199,cs),
(709,1044,o),
(588,905,o),
(363,828,cs),
(316,812,o),
(259,798,o),
(214,784,c),
(234,720,l),
(268,729,o),
(352,754,o),
(394,765,c),
(701,786,o),
(794,641,o),
(796,470,cs),
(799,209,o),
(597,33,o),
(249,38,cs),
(182,39,o),
(104,52,o),
(54,68,c),
(54,7,l),
(104,-11,o),
(204,-25,o),
(264,-26,cs)
);
}
);
width = 1056;
},
{
layerId = "779F1615-9D1A-4778-9767-9A030AA58B6C";
shapes = (
{
closed = 1;
nodes = (
(753,-26,o),
(1025,184,o),
(1019,484,cs),
(1016,647,o),
(860,815,o),
(562,791,c),
(760,855,o),
(942,983,o),
(942,1184,cs),
(942,1402,o),
(733,1502,o),
(509,1502,cs),
(288,1502,o),
(135,1398,o),
(70,1338,c),
(118,1266,l),
(202,1328,o),
(318,1387,o),
(456,1387,cs),
(653,1387,o),
(777,1318,o),
(775,1175,cs),
(773,1008,o),
(629,909,o),
(449,842,cs),
(395,822,o),
(336,811,o),
(280,801,c),
(312,705,l),
(325,709,o),
(438,737,o),
(454,743,c),
(728,739,o),
(834,637,o),
(834,462,cs),
(834,252,o),
(641,70,o),
(353,70,cs),
(224,70,o),
(147,93,o),
(101,105,c),
(101,11,l),
(155,-1,o),
(237,-26,o),
(381,-26,cs)
);
}
);
userData = {
com.schriftgestaltung.Glyphs.lastChange = "2019-04-25 21:50:43 +0000";
};
width = 1134;
},
{
layerId = "97BB7961-D669-43AB-8BBF-11FFD0C46A4B";
shapes = (
{
closed = 1;
nodes = (
(742,-36,o),
(1129,143,o),
(1129,452,cs),
(1129,681,o),
(903,800,o),
(630,769,c),
(872,848,o),
(1054,981,o),
(1054,1186,cs),
(1054,1396,o),
(822,1503,o),
(583,1503,cs),
(354,1503,o),
(130,1402,o),
(61,1338,c),
(140,1198,l),
(214,1251,o),
(317,1297,o),
(462,1297,cs),
(580,1297,o),
(678,1249,o),
(678,1121,cs),
(678,1010,o),
(596,918,o),
(440,850,cs),
(385,826,o),
(323,808,o),
(260,799,c),
(314,666,l),
(349,673,o),
(404,687,o),
(439,695,c),
(606,687,o),
(741,612,o),
(741,448,cs),
(741,231,o),
(538,139,o),
(306,139,cs),
(218,139,o),
(169,149,o),
(105,167,c),
(105,1,l),
(171,-19,o),
(287,-36,o),
(421,-36,cs)
);
}
);
width = 1202;
}
);
unicode = 51;
}
{
glyphname = four;
kernLeft = four;
kernRight = four;
layers = (
{
layerId = UUID0;
shapes = (
{
closed = 1;
nodes = (
(869,0,l),
(869,322,l),
(1161,322,l),
(1161,462,l),
(869,448,l),
(869,854,l),
(723,842,l),
(723,442,l),
(213,414,l),
(289,532,l),
(767,1421,l),
(651,1486,l),
(603,1486,l),
(439,1152,o),
(273,768,o),
(55,402,c),
(97,322,l),
(723,322,l),
(723,0,l)
);
}
);
width = 1206;
},
{
layerId = "DEBB1CE4-A72D-4960-969E-E04A036D2FA1";
shapes = (
{
closed = 1;
nodes = (
(1034,0,l),
(1034,261,l),
(1263,261,l),
(1263,486,l),
(1034,472,l),
(1034,851,l),
(776,833,l),
(748,453,l),
(321,415,l),
(449,585,l),
(861,1374,l),
(586,1501,l),
(506,1501,l),
(392,1187,o),
(198,649,o),
(45,375,c),
(120,261,l),
(746,261,l),
(746,0,l)
);
}
);
width = 1295;
},
{
guides = (
{
angle = 90;
pos = (954,1218);
},
{
angle = 3.4522;
pos = (483,361);
},
{
angle = 88.3091;
pos = (708,407);
}
);
layerId = "184155C8-9F61-4F1C-9784-DDA8EA717636";
shapes = (
{
closed = 1;
nodes = (
(1056,0,l),
(1056,301,l),
(1216,301,l),
(1216,465,l),
(1055,455,l),
(1055,867,l),
(720,833,l),
(696,415,l),
(265,369,l),
(371,514,l),
(912,1341,l),
(625,1501,l),
(522,1501,l),
(409,1217,o),
(185,776,o),
(32,462,c),
(106,301,l),
(694,301,l),
(694,0,l)
);
}
);
width = 1258;
},
{
guides = (
{
angle = 183.4908;
pos = (82,379);
}
);
layerId = "C9B9556E-C2FD-4F62-BB40-44923C452C22";
shapes = (
{
closed = 1;
nodes = (
(819,0,l),
(819,322,l),
(1063,322,l),
(1062,438,l),
(818,421,l),
(819,854,l),
(673,842,l),
(672,415,l),
(86,379,l),
(307,695,l),
(720,1424,l),
(616,1486,l),
(531,1486,l),
(381,1152,o),
(246,768,o),
(30,402,c),
(68,322,l),
(673,322,l),
(673,0,l)
);
}
);
width = 1093;
},
{
layerId = "AFA1064D-EFC9-4C9F-B9B0-9118E41D87C4";
shapes = (
{
closed = 1;
nodes = (
(1112,0,l),
(1112,301,l),
(1306,301,l),
(1306,476,l),
(1111,456,l),
(1111,867,l),
(753,833,l),
(727,415,l),
(256,362,l),
(497,690,l),
(917,1341,l),
(577,1501,l),
(491,1501,l),
(366,1217,o),
(200,776,o),
(32,462,c),
(113,301,l),
(725,301,l),
(725,0,l)
);
}
);
width = 1368;
},
{
layerId = "2103F1D3-C390-4F79-A87D-298F85EA6916";
shapes = (
{
closed = 1;
nodes = (
(893,0,l),
(893,322,l),
(1172,322,l),
(1171,438,l),
(892,421,l),
(893,854,l),
(741,842,l),
(740,415,l),
(89,379,l),
(324,695,l),
(762,1424,l),
(649,1486,l),
(560,1486,l),
(403,1152,o),
(256,768,o),
(30,402,c),
(70,322,l),
(741,322,l),
(741,0,l)
);
}
);
width = 1207;
},
{
layerId = "779F1615-9D1A-4778-9767-9A030AA58B6C";
shapes = (
{
closed = 1;
nodes = (
(963,0,l),
(963,322,l),
(1215,322,l),
(1215,462,l),
(963,448,l),
(963,894,l),
(810,882,l),
(810,439,l),
(205,414,l),
(286,532,l),
(793,1424,l),
(681,1486,l),
(615,1486,l),
(448,1152,o),
(258,768,o),
(54,402,c),
(99,322,l),
(810,322,l),
(810,0,l)
);
}
);
userData = {
com.schriftgestaltung.Glyphs.lastChange = "2019-04-25 21:50:43 +0000";
};
width = 1260;
},
{
layerId = "97BB7961-D669-43AB-8BBF-11FFD0C46A4B";
shapes = (
{
closed = 1;
nodes = (
(1108,0,l),
(1108,281,l),
(1296,281,l),
(1296,506,l),
(1108,492,l),
(1108,881,l),
(829,863,l),
(801,473,l),
(345,446,l),
(453,580,l),
(897,1359,l),
(589,1501,l),
(519,1501,l),
(405,1217,o),
(171,669,o),
(38,395,c),
(113,281,l),
(799,281,l),
(799,0,l)
);
}
);
width = 1328;
}
);
unicode = 52;
}
{
glyphname = five;
kernLeft = five;
kernRight = five;
layers = (
{
layerId = UUID0;
shapes = (
{
closed = 1;
nodes = (
(177,-12,l),
(223,-24,o),
(273,-26,o),
(317,-26,cs),
(749,-26,o),
(1015,242,o),
(1015,532,cs),
(1015,792,o),
(853,932,o),
(609,932,cs),
(497,932,o),
(365,896,o),
(299,858,c),
(395,1344,l),
(960,1344,l),
(992,1524,l),
(876,1524,l),
(856,1486,l),
(265,1486,l),
(165,776,l),
(219,742,l),
(299,780,o),
(431,810,o),
(521,810,cs),
(733,810,o),
(837,708,o),
(837,502,cs),
(837,268,o),
(599,68,o),
(297,68,cs),
(261,68,o),
(215,70,o),
(177,74,c)
);
}
);
width = 1170;
},
{
layerId = "DEBB1CE4-A72D-4960-969E-E04A036D2FA1";
shapes = (
{
closed = 1;
nodes = (
(115,-19,l),
(161,-30,o),
(211,-33,o),
(255,-33,cs),
(725,-33,o),
(1078,183,o),
(1078,556,cs),
(1078,791,o),
(944,944,o),
(648,944,cs),
(500,944,o),
(386,872,o),
(330,844,c),
(408,1246,l),
(977,1246,l),
(1023,1524,l),
(877,1524,l),
(857,1486,l),
(196,1486,l),
(100,736,l),
(176,684,l),
(240,714,o),
(356,741,o),
(449,741,cs),
(618,741,o),
(717,678,o),
(717,496,cs),
(717,284,o),
(506,124,o),
(231,124,cs),
(195,124,o),
(153,126,o),
(115,129,c)
);
}
);
width = 1168;
},
{
guides = (
{
angle = 145.6197;
pos = (83,710);
},
{
angle = 260.404;
pos = (962,1385);
}
);
layerId = "184155C8-9F61-4F1C-9784-DDA8EA717636";
shapes = (
{
closed = 1;
nodes = (
(60,7,l),
(141,-27,o),
(299,-37,o),
(378,-34,cs),
(726,-21,o),
(1051,192,o),
(1051,549,cs),
(1051,813,o),
(886,935,o),
(636,935,cs),
(453,935,o),
(249,843,o),
(146,729,c),
(284,1192,l),
(961,1192,l),
(1006,1524,l),
(923,1524,l),
(895,1486,l),
(168,1486,l),
(67,729,l),
(140,684,l),
(228,741,o),
(328,751,o),
(428,751,cs),
(591,751,o),
(673,611,o),
(673,463,cs),
(673,214,o),
(517,62,o),
(296,53,cs),
(202,49,o),
(118,56,o),
(59,69,c)
);
}
);
width = 1113;
},
{
guides = (
{
angle = 261.9829;
pos = (165,776);
},
{
angle = 78.6085;
pos = (308,1050);
},
{
angle = 244.6538;
pos = (791,1505);
},
{
pos = (269,40);
},
{
angle = 90;
pos = (943,546);
},
{
angle = 90;
pos = (775,514);
}
);
layerId = "C9B9556E-C2FD-4F62-BB40-44923C452C22";
shapes = (
{
closed = 1;
nodes = (
(94,-13,l),
(139,-24,o),
(189,-26,o),
(228,-26,cs),
(706,-26,o),
(950,278,o),
(950,543,c),
(950,748,o),
(834,930,o),
(547,930,cs),
(403,930,o),
(242,865,o),
(137,765,c),
(285,1348,l),
(893,1348,l),
(922,1519,l),
(836,1519,l),
(816,1486,l),
(182,1486,l),
(90,767,l),
(142,732,l),
(228,778,o),
(334,834,o),
(470,834,cs),
(679,834,o),
(778,706,o),
(778,513,c),
(778,214,o),
(517,40,o),
(202,40,cs),
(162,40,o),
(123,43,o),
(92,48,c)
);
}
);
width = 1032;
},
{
layerId = "AFA1064D-EFC9-4C9F-B9B0-9118E41D87C4";
shapes = (
{
closed = 1;
nodes = (
(60,7,l),
(148,-27,o),
(320,-37,o),
(406,-34,cs),
(786,-21,o),
(1139,192,o),
(1139,539,cs),
(1139,813,o),
(970,935,o),
(675,935,cs),
(508,935,o),
(265,843,o),
(154,729,c),
(281,1192,l),
(1041,1192,l),
(1091,1524,l),
(1000,1524,l),
(970,1486,l),
(176,1486,l),
(66,729,l),
(147,684,l),
(242,741,o),
(351,751,o),
(460,751,cs),
(639,751,o),
(725,611,o),
(725,453,cs),
(725,214,o),
(557,62,o),
(317,53,cs),
(214,49,o),
(122,56,o),
(59,69,c)
);
}
);
width = 1201;
},
{
layerId = "2103F1D3-C390-4F79-A87D-298F85EA6916";
shapes = (
{
closed = 1;
nodes = (
(104,-13,l),
(152,-24,o),
(206,-26,o),
(248,-26,cs),
(759,-26,o),
(1000,278,o),
(1000,543,c),
(1000,748,o),
(882,930,o),
(589,930,cs),
(435,930,o),
(263,865,o),
(150,765,c),
(309,1348,l),
(958,1348,l),
(989,1519,l),
(908,1519,l),
(886,1486,l),
(198,1486,l),
(100,767,l),
(156,732,l),
(248,778,o),
(356,830,o),
(499,830,cs),
(723,830,o),
(836,706,o),
(836,513,c),
(836,214,o),
(557,40,o),
(220,40,cs),
(177,40,o),
(135,43,o),
(102,48,c)
);
}
);
width = 1072;
},
{
layerId = "779F1615-9D1A-4778-9767-9A030AA58B6C";
shapes = (
{
closed = 1;
nodes = (
(122,-12,l),
(171,-24,o),
(226,-26,o),
(273,-26,cs),
(741,-26,o),
(1024,242,o),
(1024,532,cs),
(1024,792,o),
(863,932,o),
(589,932,cs),
(468,932,o),
(325,896,o),
(254,858,c),
(358,1344,l),
(954,1344,l),
(986,1524,l),
(870,1524,l),
(850,1486,l),
(228,1486,l),
(120,776,l),
(177,742,l),
(264,780,o),
(416,825,o),
(513,825,cs),
(742,825,o),
(851,723,o),
(851,517,cs),
(851,283,o),
(608,68,o),
(251,68,cs),
(213,68,o),
(163,70,o),
(122,74,c)
);
}
);
userData = {
com.schriftgestaltung.Glyphs.lastChange = "2019-04-25 21:50:43 +0000";
};
width = 1134;
},
{
layerId = "97BB7961-D669-43AB-8BBF-11FFD0C46A4B";
shapes = (
{
closed = 1;
nodes = (
(127,-19,l),
(173,-30,o),
(258,-33,o),
(302,-33,cs),
(772,-33,o),
(1185,183,o),
(1185,556,cs),
(1185,791,o),
(1025,944,o),
(729,944,cs),
(571,944,o),
(414,892,o),
(358,864,c),
(436,1246,l),
(1086,1246,l),
(1132,1524,l),
(976,1524,l),
(956,1486,l),
(208,1486,l),
(112,736,l),
(196,684,l),
(268,718,o),
(410,751,o),
(516,751,cs),
(689,751,o),
(795,685,o),
(795,524,cs),
(795,279,o),
(547,124,o),
(278,124,cs),
(242,124,o),
(165,126,o),
(127,129,c)
);
}
);
width = 1268;
}
);
unicode = 53;
}
{
glyphname = six;
kernLeft = six;
kernRight = six;
layers = (
{
layerId = UUID0;
shapes = (
{
closed = 1;
nodes = (
(914,-26,o),
(1106,214,o),
(1106,496,cs),
(1106,768,o),
(954,978,o),
(648,978,cs),
(488,978,o),
(372,894,o),
(312,820,c),
(388,1114,o),
(552,1372,o),
(914,1496,c),
(876,1572,l),
(432,1476,o),
(110,1056,o),
(110,604,cs),
(110,252,o),
(280,-26,o),
(604,-26,cs)
);
},
{
closed = 1;
nodes = (
(810,874,o),
(934,746,o),
(934,460,cs),
(934,270,o),
(826,64,o),
(616,64,cs),
(372,64,o),
(286,330,o),
(286,564,cs),
(286,650,o),
(288,668,o),
(290,686,c),
(324,754,o),
(438,874,o),
(646,874,cs)
);
}
);
width = 1196;
},
{
layerId = "DEBB1CE4-A72D-4960-969E-E04A036D2FA1";
shapes = (
{
closed = 1;
nodes = (
(986,-34,o),
(1177,184,o),
(1177,478,cs),
(1177,764,o),
(1012,942,o),
(752,942,cs),
(614,942,o),
(528,894,o),
(468,844,c),
(542,1098,o),
(696,1316,o),
(982,1402,c),
(916,1522,l),
(522,1476,o),
(90,1092,o),
(90,562,cs),
(90,226,o),
(274,-34,o),
(628,-34,cs)
);
},
{
closed = 1;
nodes = (
(765,776,o),
(831,674,o),
(831,418,cs),
(831,210,o),
(778,100,o),
(640,100,cs),
(492,100,o),
(428,262,o),
(428,532,cs),
(428,596,o),
(432,642,o),
(436,684,c),
(472,724,o),
(534,776,o),
(643,776,cs)
);
}
);
width = 1242;
},
{
layerId = "184155C8-9F61-4F1C-9784-DDA8EA717636";
shapes = (
{
closed = 1;
nodes = (
(954,-35,o),
(1224,139,o),
(1224,514,cs),
(1224,814,o),
(1035,948,o),
(827,948,cs),
(690,948,o),
(552,884,o),
(471,752,c),
(503,1036,o),
(624,1371,o),
(999,1457,c),
(970,1517,l),
(447,1499,o),
(63,1084,o),
(63,603,cs),
(63,222,o),
(273,-35,o),
(644,-35,cs)
);
},
{
closed = 1;
nodes = (
(784,790,o),
(829,601,o),
(829,405,cs),
(829,198,o),
(777,30,o),
(645,30,cs),
(526,30,o),
(463,161,o),
(463,510,cs),
(463,589,o),
(467,652,o),
(471,697,c),
(503,734,o),
(570,790,o),
(648,790,cs)
);
}
);
width = 1281;
},
{
layerId = "C9B9556E-C2FD-4F62-BB40-44923C452C22";
shapes = (
{
closed = 1;
nodes = (
(903,-27,o),
(1070,254,o),
(1070,522,cs),
(1070,818,o),
(892,976,o),
(653,976,cs),
(524,976,o),
(377,918,o),
(280,761,c),
(324,1088,o),
(523,1398,o),
(894,1522,c),
(869,1572,l),
(414,1476,o),
(100,1056,o),
(100,604,cs),
(100,322,o),
(240,-25,o),
(572,-26,cs)
);
},
{
closed = 1;
nodes = (
(826,908,o),
(898,708,o),
(898,497,cs),
(898,259,o),
(814,19,o),
(584,19,cs),
(335,19,o),
(273,388,o),
(273,552,cs),
(273,628,o),
(274,705,o),
(276,723,c),
(340,813,o),
(471,910,o),
(612,909,cs)
);
}
);
width = 1160;
},
{
layerId = "AFA1064D-EFC9-4C9F-B9B0-9118E41D87C4";
shapes = (
{
closed = 1;
nodes = (
(966,-38,o),
(1249,155,o),
(1249,511,cs),
(1249,804,o),
(1049,939,o),
(840,939,cs),
(703,939,o),
(545,876,o),
(463,742,c),
(495,1023,o),
(630,1362,o),
(1006,1447,c),
(975,1507,l),
(468,1489,o),
(53,1075,o),
(53,594,cs),
(53,251,o),
(276,-38,o),
(655,-38,cs)
);
},
{
closed = 1;
nodes = (
(775,781,o),
(843,592,o),
(843,401,cs),
(843,214,o),
(774,27,o),
(649,27,cs),
(534,27,o),
(456,178,o),
(456,506,cs),
(456,585,o),
(460,643,o),
(463,688,c),
(494,725,o),
(571,781,o),
(646,781,cs)
);
}
);
width = 1296;
},
{
layerId = "2103F1D3-C390-4F79-A87D-298F85EA6916";
shapes = (
{
closed = 1;
nodes = (
(959,-27,o),
(1146,254,o),
(1146,522,cs),
(1146,818,o),
(948,976,o),
(687,976,cs),
(546,976,o),
(376,918,o),
(271,761,c),
(318,1088,o),
(535,1398,o),
(950,1522,c),
(923,1572,l),
(426,1476,o),
(80,1056,o),
(80,604,cs),
(80,322,o),
(236,-25,o),
(599,-26,cs)
);
},
{
closed = 1;
nodes = (
(876,908,o),
(964,708,o),
(964,497,cs),
(964,259,o),
(862,19,o),
(612,19,cs),
(340,19,o),
(263,388,o),
(263,552,cs),
(263,628,o),
(264,705,o),
(266,723,c),
(335,813,o),
(479,910,o),
(642,909,cs)
);
}
);
width = 1221;
},
{
layerId = "779F1615-9D1A-4778-9767-9A030AA58B6C";
shapes = (
{
closed = 1;
nodes = (
(935,-26,o),
(1134,214,o),
(1134,496,cs),
(1134,768,o),
(976,978,o),
(659,978,cs),
(492,978,o),
(369,894,o),
(307,820,c),
(386,1114,o),
(559,1372,o),
(935,1496,c),
(895,1572,l),
(434,1476,o),
(100,1056,o),
(100,604,cs),
(100,252,o),
(276,-26,o),
(613,-26,cs)
);
},
{
closed = 1;
nodes = (
(827,874,o),
(959,746,o),
(959,460,cs),
(959,270,o),
(843,64,o),
(625,64,cs),
(372,64,o),
(280,330,o),
(280,564,cs),
(280,650,o),
(282,668,o),
(284,686,c),
(319,754,o),
(440,874,o),
(656,874,cs)
);
}
);
userData = {
com.schriftgestaltung.Glyphs.lastChange = "2019-04-25 21:50:43 +0000";
};
width = 1224;
},
{
layerId = "97BB7961-D669-43AB-8BBF-11FFD0C46A4B";
shapes = (
{
closed = 1;
nodes = (
(1051,-34,o),
(1284,194,o),
(1284,488,cs),
(1284,774,o),
(1098,942,o),
(813,942,cs),
(661,942,o),
(563,894,o),
(497,844,c),
(578,1098,o),
(737,1306,o),
(1051,1422,c),
(985,1542,l),
(553,1466,o),
(84,1092,o),
(84,562,cs),
(84,226,o),
(325,-34,o),
(677,-34,cs)
);
},
{
closed = 1;
nodes = (
(824,776,o),
(916,674,o),
(916,418,cs),
(916,210,o),
(841,100,o),
(690,100,cs),
(518,100,o),
(450,262,o),
(450,532,cs),
(450,596,o),
(454,642,o),
(459,684,c),
(498,724,o),
(579,776,o),
(690,776,cs)
);
}
);
width = 1340;
}
);
unicode = 54;
}
{
glyphname = seven;
kernLeft = seven;
kernRight = seven;
layers = (
{
layerId = UUID0;
shapes = (
{
closed = 1;
nodes = (
(1046,1442,l),
(1012,1486,l),
(108,1486,l),
(68,1120,l),
(174,1102,l),
(244,1352,l),
(896,1358,l),
(720,894,o),
(540,436,o),
(360,0,c),
(560,-2,l)
);
}
);
width = 1102;
},
{
layerId = "DEBB1CE4-A72D-4960-969E-E04A036D2FA1";
shapes = (
{
closed = 1;
nodes = (
(1174,1410,l),
(1114,1486,l),
(145,1486,l),
(91,1012,l),
(275,974,l),
(394,1290,l),
(875,1304,l),
(731,926,o),
(521,474,o),
(297,0,c),
(694,0,l)
);
}
);
width = 1234;
},
{
guides = (
{
angle = 3.2983;
pos = (792,1432);
},
{
pos = (-736,1250);
},
{
pos = (555,1195);
}
);
layerId = "184155C8-9F61-4F1C-9784-DDA8EA717636";
shapes = (
{
closed = 1;
nodes = (
(1107,1435,l),
(1058,1486,l),
(93,1486,l),
(26,1003,l),
(102,987,l),
(184,1178,l),
(959,1178,l),
(740,824,o),
(526,451,o),
(232,0,c),
(646,0,l)
);
}
);
width = 1105;
},
{
layerId = "C9B9556E-C2FD-4F62-BB40-44923C452C22";
shapes = (
{
closed = 1;
nodes = (
(1016,1442,l),
(982,1486,l),
(108,1486,l),
(68,1119,l),
(111,1111,l),
(191,1352,l),
(928,1358,l),
(741,908,o),
(529,436,o),
(329,0,c),
(516,-2,l)
);
}
);
width = 1066;
},
{
layerId = "AFA1064D-EFC9-4C9F-B9B0-9118E41D87C4";
shapes = (
{
closed = 1;
nodes = (
(1127,1435,l),
(1078,1486,l),
(93,1486,l),
(26,988,l),
(102,972,l),
(184,1163,l),
(977,1163,l),
(758,809,o),
(566,451,o),
(272,0,c),
(686,0,l)
);
}
);
width = 1165;
},
{
layerId = "2103F1D3-C390-4F79-A87D-298F85EA6916";
shapes = (
{
closed = 1;
nodes = (
(1052,1442,l),
(1016,1486,l),
(110,1486,l),
(68,1119,l),
(113,1111,l),
(197,1352,l),
(960,1358,l),
(764,908,o),
(593,436,o),
(384,0,c),
(558,-2,l)
);
}
);
width = 1102;
},
{
layerId = "779F1615-9D1A-4778-9767-9A030AA58B6C";
shapes = (
{
closed = 1;
nodes = (
(1100,1442,l),
(1066,1486,l),
(112,1486,l),
(72,1120,l),
(180,1102,l),
(250,1352,l),
(946,1358,l),
(770,894,o),
(590,436,o),
(410,0,c),
(614,-2,l)
);
}
);
userData = {
com.schriftgestaltung.Glyphs.lastChange = "2019-04-25 21:50:43 +0000";
};
width = 1184;
},
{
layerId = "97BB7961-D669-43AB-8BBF-11FFD0C46A4B";
shapes = (
{
closed = 1;
nodes = (
(1234,1410,l),
(1174,1486,l),
(111,1486,l),
(56,1012,l),
(250,974,l),
(358,1264,l),
(922,1278,l),
(768,900,o),
(550,474,o),
(312,0,c),
(734,0,l)
);
}
);
width = 1276;
}
);
unicode = 55;
}
{
glyphname = eight;
kernLeft = eight;
kernRight = eight;
layers = (
{
layerId = UUID0;
shapes = (
{
closed = 1;
nodes = (
(100,86,o),
(352,-18,o),
(576,-18,cs),
(826,-18,o),
(1057,134,o),
(1057,382,cs),
(1057,574,o),
(914,686,o),
(740,782,c),
(916,879,o),
(1014,1016,o),
(1014,1174,cs),
(1014,1378,o),
(838,1504,o),
(598,1504,cs),
(380,1504,o),
(162,1378,o),
(162,1134,cs),
(162,948,o),
(276,850,o),
(414,766,c),
(198,666,o),
(100,520,o),
(100,366,cs)
);
},
{
closed = 1;
nodes = (
(304,1326,o),
(434,1422,o),
(590,1422,cs),
(758,1422,o),
(872,1314,o),
(872,1128,cs),
(872,998,o),
(784,892,o),
(654,828,c),
(474,922,o),
(304,1007,o),
(304,1170,cs)
);
},
{
closed = 1;
nodes = (
(893,178,o),
(746,70,o),
(594,70,cs),
(384,70,o),
(258,196,o),
(258,400,cs),
(258,538,o),
(362,656,o),
(496,720,c),
(696,612,o),
(893,532,o),
(893,346,cs)
);
}
);
width = 1157;
},
{
layerId = "DEBB1CE4-A72D-4960-969E-E04A036D2FA1";
shapes = (
{
closed = 1;
nodes = (
(90,101,o),
(352,-22,o),
(622,-22,cs),
(952,-22,o),
(1184,149,o),
(1184,383,cs),
(1184,599,o),
(1027,723,o),
(853,823,c),
(1023,901,o),
(1108,1023,o),
(1108,1167,cs),
(1108,1359,o),
(946,1506,o),
(650,1506,cs),
(385,1506,o),
(153,1359,o),
(153,1109,cs),
(153,919,o),
(257,801,o),
(385,715,c),
(191,643,o),
(90,501,o),
(90,359,cs)
);
},
{
closed = 1;
nodes = (
(444,1309,o),
(544,1380,o),
(650,1380,cs),
(792,1380,o),
(870,1283,o),
(870,1123,cs),
(870,1033,o),
(823,945,o),
(741,885,c),
(585,971,o),
(444,1047,o),
(444,1183,cs)
);
},
{
closed = 1;
nodes = (
(858,189,o),
(742,112,o),
(628,112,cs),
(452,112,o),
(354,233,o),
(354,407,cs),
(354,509,o),
(405,599,o),
(483,653,c),
(667,551,o),
(858,483,o),
(858,325,cs)
);
}
);
width = 1274;
},
{
layerId = "184155C8-9F61-4F1C-9784-DDA8EA717636";
shapes = (
{
closed = 1;
nodes = (
(59,87,o),
(326,-22,o),
(633,-22,cs),
(965,-22,o),
(1224,136,o),
(1224,427,cs),
(1224,648,o),
(1067,739,o),
(826,863,c),
(1017,916,o),
(1147,1020,o),
(1147,1184,cs),
(1147,1408,o),
(930,1506,o),
(665,1506,cs),
(375,1506,o),
(121,1369,o),
(121,1098,cs),
(121,964,o),
(214,794,o),
(401,690,c),
(206,649,o),
(59,523,o),
(59,355,cs)
);
},
{
closed = 1;
nodes = (
(445,1369,o),
(543,1446,o),
(663,1446,cs),
(814,1446,o),
(873,1329,o),
(873,1181,cs),
(873,1061,o),
(834,945,o),
(771,892,c),
(601,978,o),
(445,1048,o),
(445,1228,cs)
);
},
{
closed = 1;
nodes = (
(873,119,o),
(768,37,o),
(637,37,cs),
(456,37,o),
(353,193,o),
(353,388,cs),
(353,529,o),
(397,606,o),
(459,657,c),
(686,557,o),
(873,464,o),
(873,262,cs)
);
}
);
width = 1283;
},
{
layerId = "C9B9556E-C2FD-4F62-BB40-44923C452C22";
shapes = (
{
closed = 1;
nodes = (
(80,131,o),
(273,-18,o),
(556,-18,cs),
(829,-18,o),
(1059,135,o),
(1059,392,cs),
(1059,592,o),
(893,703,o),
(694,790,c),
(919,885,o),
(1016,1044,o),
(1016,1188,cs),
(1016,1356,o),
(874,1504,o),
(603,1504,cs),
(375,1504,o),
(157,1378,o),
(157,1134,cs),
(157,930,o),
(305,818,o),
(440,739,c),
(189,666,o),
(80,505,o),
(80,349,cs)
);
},
{
closed = 1;
nodes = (
(294,1359,o),
(409,1458,o),
(588,1458,cs),
(777,1458,o),
(876,1311,o),
(876,1152,cs),
(876,1010,o),
(806,874,o),
(651,807,c),
(422,926,o),
(294,1018,o),
(294,1193,cs)
);
},
{
closed = 1;
nodes = (
(905,146,o),
(761,33,o),
(581,33,cs),
(379,33,o),
(233,187,o),
(233,378,cs),
(233,516,o),
(307,668,o),
(488,722,c),
(718,599,o),
(905,519,o),
(905,319,cs)
);
}
);
width = 1139;
},
{
layerId = "AFA1064D-EFC9-4C9F-B9B0-9118E41D87C4";
shapes = (
{
closed = 1;
nodes = (
(40,83,o),
(346,-22,o),
(632,-22,cs),
(985,-22,o),
(1241,136,o),
(1241,427,cs),
(1241,646,o),
(1093,741,o),
(841,866,c),
(1034,918,o),
(1165,1017,o),
(1165,1184,cs),
(1165,1408,o),
(928,1506,o),
(676,1506,cs),
(376,1506,o),
(104,1369,o),
(104,1098,cs),
(104,963,o),
(189,795,o),
(383,690,c),
(163,649,o),
(40,521,o),
(40,351,cs)
);
},
{
closed = 1;
nodes = (
(450,1369,o),
(551,1446,o),
(674,1446,cs),
(829,1446,o),
(887,1329,o),
(887,1181,cs),
(887,1061,o),
(849,948,o),
(784,895,c),
(618,980,o),
(450,1048,o),
(450,1228,cs)
);
},
{
closed = 1;
nodes = (
(867,119,o),
(770,37,o),
(636,37,cs),
(450,37,o),
(346,194,o),
(346,388,cs),
(346,501,o),
(380,606,o),
(443,657,c),
(676,554,o),
(867,461,o),
(867,262,cs)
);
}
);
width = 1281;
},
{
layerId = "2103F1D3-C390-4F79-A87D-298F85EA6916";
shapes = (
{
closed = 1;
nodes = (
(72,146,o),
(280,-19,o),
(602,-19,cs),
(890,-19,o),
(1153,135,o),
(1153,392,cs),
(1153,592,o),
(958,703,o),
(738,790,c),
(975,885,o),
(1088,1044,o),
(1088,1188,cs),
(1088,1356,o),
(921,1504,o),
(632,1504,cs),
(381,1504,o),
(140,1378,o),
(140,1134,cs),
(140,930,o),
(306,807,o),
(472,738,c),
(205,665,o),
(72,505,o),
(72,349,cs)
);
},
{
closed = 1;
nodes = (
(276,1359,o),
(410,1458,o),
(616,1458,cs),
(823,1458,o),
(945,1311,o),
(945,1152,cs),
(945,1010,o),
(863,873,o),
(699,806,c),
(435,906,o),
(276,978,o),
(276,1193,cs)
);
},
{
closed = 1;
nodes = (
(1006,146,o),
(825,32,o),
(628,32,cs),
(362,32,o),
(228,202,o),
(228,378,cs),
(228,516,o),
(319,666,o),
(516,720,c),
(782,625,o),
(1006,549,o),
(1006,319,cs)
);
}
);
width = 1225;
},
{
layerId = "779F1615-9D1A-4778-9767-9A030AA58B6C";
shapes = (
{
closed = 1;
nodes = (
(80,92,o),
(380,-18,o),
(593,-18,cs),
(902,-18,o),
(1135,136,o),
(1135,394,cs),
(1135,562,o),
(986,705,o),
(783,782,c),
(975,872,o),
(1072,1006,o),
(1072,1164,cs),
(1072,1378,o),
(888,1504,o),
(623,1504,cs),
(384,1504,o),
(154,1377,o),
(154,1129,cs),
(154,973,o),
(243,835,o),
(420,754,c),
(172,689,o),
(80,504,o),
(80,368,cs)
);
},
{
closed = 1;
nodes = (
(299,1326,o),
(455,1422,o),
(614,1422,cs),
(799,1422,o),
(920,1324,o),
(920,1138,cs),
(920,1008,o),
(823,873,o),
(680,819,c),
(470,900,o),
(299,984,o),
(299,1170,cs)
);
},
{
closed = 1;
nodes = (
(971,170,o),
(814,70,o),
(616,70,cs),
(415,70,o),
(242,192,o),
(242,402,cs),
(242,526,o),
(356,681,o),
(514,721,c),
(752,639,o),
(971,549,o),
(971,368,cs)
);
}
);
userData = {
com.schriftgestaltung.Glyphs.lastChange = "2019-04-25 21:50:43 +0000";
};
width = 1215;
},
{
layerId = "97BB7961-D669-43AB-8BBF-11FFD0C46A4B";
shapes = (
{
closed = 1;
nodes = (
(110,81,o),
(400,-22,o),
(697,-22,cs),
(1025,-22,o),
(1331,100,o),
(1331,403,cs),
(1331,592,o),
(1167,747,o),
(965,832,c),
(1152,910,o),
(1239,1023,o),
(1239,1167,cs),
(1239,1359,o),
(1053,1506,o),
(726,1506,cs),
(433,1506,o),
(177,1365,o),
(177,1092,cs),
(177,931,o),
(283,785,o),
(427,717,c),
(213,645,o),
(110,501,o),
(110,359,cs)
);
},
{
closed = 1;
nodes = (
(496,1309,o),
(609,1380,o),
(726,1380,cs),
(883,1380,o),
(972,1283,o),
(972,1123,cs),
(972,1033,o),
(933,943,o),
(842,883,c),
(654,961,o),
(496,1047,o),
(496,1183,cs)
);
},
{
closed = 1;
nodes = (
(968,189,o),
(836,112,o),
(710,112,cs),
(516,112,o),
(405,233,o),
(405,407,cs),
(405,509,o),
(449,610,o),
(535,664,c),
(755,573,o),
(968,483,o),
(968,325,cs)
);
}
);
width = 1441;
}
);
metricRight = "=|";
unicode = 56;
}
{
glyphname = nine;
kernLeft = nine;
kernRight = nine;
layers = (
{
layerId = UUID0;
shapes = (
{
closed = 1;
nodes = (
(274,1504,o),
(90,1256,o),
(90,982,cs),
(90,692,o),
(258,500,o),
(548,500,cs),
(696,500,o),
(824,580,o),
(884,658,c),
(818,358,o),
(618,94,o),
(282,-18,c),
(320,-94,l),
(716,-16,o),
(1086,378,o),
(1086,924,cs),
(1086,1240,o),
(936,1504,o),
(592,1504,cs)
);
},
{
closed = 1;
nodes = (
(392,604,o),
(262,718,o),
(262,1018,cs),
(262,1202,o),
(364,1414,o),
(580,1414,cs),
(858,1414,o),
(910,1136,o),
(910,862,cs),
(910,838,o),
(908,816,o),
(906,792,c),
(874,718,o),
(744,604,o),
(564,604,cs)
);
}
);
width = 1196;
},
{
layerId = "DEBB1CE4-A72D-4960-969E-E04A036D2FA1";
shapes = (
{
closed = 1;
nodes = (
(259,1506,o),
(65,1252,o),
(65,962,cs),
(65,672,o),
(253,484,o),
(509,484,cs),
(631,484,o),
(710,531,o),
(768,581,c),
(702,317,o),
(555,106,o),
(275,24,c),
(339,-96,l),
(737,-58,o),
(1159,328,o),
(1159,886,cs),
(1159,1244,o),
(983,1506,o),
(619,1506,cs)
);
},
{
closed = 1;
nodes = (
(483,652,o),
(409,758,o),
(409,1020,cs),
(409,1210,o),
(463,1372,o),
(601,1372,cs),
(764,1372,o),
(812,1180,o),
(812,896,cs),
(812,852,o),
(806,789,o),
(802,739,c),
(768,699,o),
(692,652,o),
(603,652,cs)
);
}
);
width = 1249;
},
{
layerId = "184155C8-9F61-4F1C-9784-DDA8EA717636";
shapes = (
{
closed = 1;
nodes = (
(324,1505,o),
(57,1325,o),
(57,972,cs),
(57,645,o),
(274,499,o),
(480,499,cs),
(620,499,o),
(758,560,o),
(810,700,c),
(778,433,o),
(655,105,o),
(287,10,c),
(314,-48,l),
(834,-26,o),
(1220,392,o),
(1220,861,cs),
(1220,1250,o),
(1008,1507,o),
(638,1506,cs)
);
},
{
closed = 1;
nodes = (
(482,660,o),
(452,855,o),
(452,1059,cs),
(452,1274,o),
(501,1443,o),
(634,1442,cs),
(751,1441,o),
(819,1296,o),
(819,957,cs),
(819,855,o),
(815,803,o),
(810,759,c),
(758,694,o),
(683,660,o),
(623,660,cs)
);
}
);
width = 1283;
},
{
layerId = "C9B9556E-C2FD-4F62-BB40-44923C452C22";
shapes = (
{
closed = 1;
nodes = (
(292,1504,o),
(90,1299,o),
(90,963,cs),
(90,677,o),
(297,500,o),
(516,500,cs),
(645,500,o),
(786,558,o),
(883,715,c),
(839,388,o),
(657,120,o),
(296,-4,c),
(321,-54,l),
(766,42,o),
(1067,430,o),
(1067,882,cs),
(1067,1164,o),
(939,1504,o),
(587,1504,cs)
);
},
{
closed = 1;
nodes = (
(363,568,o),
(267,778,o),
(267,989,cs),
(267,1227,o),
(369,1459,o),
(575,1459,cs),
(844,1459,o),
(890,1088,o),
(890,924,cs),
(890,848,o),
(889,771,o),
(887,753,c),
(823,663,o),
(698,566,o),
(557,567,cs)
);
}
);
width = 1167;
},
{
layerId = "AFA1064D-EFC9-4C9F-B9B0-9118E41D87C4";
shapes = (
{
closed = 1;
nodes = (
(335,1506,o),
(47,1315,o),
(47,972,cs),
(47,645,o),
(280,498,o),
(489,498,cs),
(631,498,o),
(788,560,o),
(831,700,c),
(798,383,o),
(640,77,o),
(296,-8,c),
(324,-66,l),
(841,-48,o),
(1242,352,o),
(1242,861,cs),
(1242,1327,o),
(920,1506,o),
(646,1506,cs)
);
},
{
closed = 1;
nodes = (
(505,650,o),
(453,855,o),
(453,1059,cs),
(453,1285,o),
(527,1446,o),
(639,1446,cs),
(766,1446,o),
(839,1296,o),
(839,934,cs),
(839,855,o),
(835,803,o),
(831,759,c),
(780,684,o),
(700,650,o),
(641,650,cs)
);
}
);
width = 1295;
},
{
layerId = "2103F1D3-C390-4F79-A87D-298F85EA6916";
shapes = (
{
closed = 1;
nodes = (
(286,1504,o),
(75,1299,o),
(75,963,cs),
(75,677,o),
(281,500,o),
(519,500,cs),
(660,500,o),
(806,558,o),
(912,715,c),
(864,388,o),
(678,112,o),
(278,-12,c),
(305,-62,l),
(795,34,o),
(1103,430,o),
(1103,882,cs),
(1103,1164,o),
(993,1504,o),
(607,1504,cs)
);
},
{
closed = 1;
nodes = (
(353,568,o),
(257,778,o),
(257,989,cs),
(257,1227,o),
(370,1459,o),
(593,1459,cs),
(888,1459,o),
(920,1088,o),
(920,924,cs),
(920,848,o),
(919,771,o),
(916,753,c),
(847,663,o),
(718,566,o),
(564,567,cs)
);
}
);
width = 1183;
},
{
layerId = "779F1615-9D1A-4778-9767-9A030AA58B6C";
shapes = (
{
closed = 1;
nodes = (
(285,1504,o),
(90,1256,o),
(90,982,cs),
(90,692,o),
(268,500,o),
(576,500,cs),
(733,500,o),
(869,580,o),
(932,658,c),
(862,358,o),
(650,94,o),
(294,-18,c),
(334,-94,l),
(730,-16,o),
(1136,378,o),
(1136,924,cs),
(1136,1240,o),
(988,1504,o),
(623,1504,cs)
);
},
{
closed = 1;
nodes = (
(399,604,o),
(262,718,o),
(262,1018,cs),
(262,1202,o),
(367,1414,o),
(600,1414,cs),
(904,1414,o),
(960,1136,o),
(960,862,cs),
(960,838,o),
(958,816,o),
(956,792,c),
(921,718,o),
(780,604,o),
(585,604,cs)
);
}
);
userData = {
com.schriftgestaltung.Glyphs.lastChange = "2019-04-25 21:50:43 +0000";
};
width = 1236;
},
{
layerId = "97BB7961-D669-43AB-8BBF-11FFD0C46A4B";
shapes = (
{
closed = 1;
nodes = (
(296,1506,o),
(56,1283,o),
(56,989,cs),
(56,679,o),
(238,484,o),
(523,484,cs),
(675,484,o),
(772,539,o),
(838,593,c),
(757,318,o),
(619,132,o),
(299,24,c),
(363,-96,l),
(795,-14,o),
(1256,324,o),
(1256,898,cs),
(1256,1234,o),
(1058,1506,o),
(669,1506,cs)
);
},
{
closed = 1;
nodes = (
(496,652,o),
(428,847,o),
(428,1043,cs),
(428,1236,o),
(500,1372,o),
(646,1372,cs),
(808,1372,o),
(885,1191,o),
(885,921,cs),
(885,851,o),
(881,798,o),
(876,752,c),
(837,709,o),
(766,652,o),
(646,652,cs)
);
}
);
width = 1340;
}
);
metricLeft = "=|six";
metricRight = "=|six";
unicode = 57;
}
{
glyphname = colon;
kernLeft = colon;
kernRight = colon;
layers = (
{
layerId = UUID0;
shapes = (
{
closed = 1;
nodes = (
(400,810,o),
(462,864,o),
(462,942,cs),
(462,1000,o),
(430,1054,o),
(354,1054,cs),
(288,1054,o),
(224,998,o),
(224,922,cs),
(224,854,o),
(274,810,o),
(334,810,cs)
);
},
{
closed = 1;
nodes = (
(400,-22,o),
(462,32,o),
(462,110,cs),
(462,168,o),
(430,222,o),
(354,222,cs),
(288,222,o),
(224,166,o),
(224,90,cs),
(224,22,o),
(274,-22,o),
(334,-22,cs)
);
}
);
width = 686;
},
{
layerId = "DEBB1CE4-A72D-4960-969E-E04A036D2FA1";
shapes = (
{
closed = 1;
nodes = (
(461,794,o),
(546,860,o),
(546,975,cs),
(546,1061,o),
(482,1143,o),
(370,1143,cs),
(260,1143,o),
(169,1069,o),
(169,960,cs),
(169,863,o),
(252,794,o),
(340,794,cs)
);
},
{
closed = 1;
nodes = (
(461,-16,o),
(546,50,o),
(546,165,cs),
(546,251,o),
(482,333,o),
(370,333,cs),
(260,333,o),
(169,259,o),
(169,151,cs),
(169,53,o),
(252,-16,o),
(340,-16,cs)
);
}
);
width = 716;
},
{
layerId = "184155C8-9F61-4F1C-9784-DDA8EA717636";
shapes = (
{
closed = 1;
nodes = (
(377,712,o),
(451,772,o),
(451,877,cs),
(451,955,o),
(396,1029,o),
(295,1029,cs),
(195,1029,o),
(116,962,o),
(116,864,cs),
(116,775,o),
(187,712,o),
(267,712,cs)
);
},
{
closed = 1;
nodes = (
(378,-16,o),
(452,44,o),
(452,149,cs),
(452,227,o),
(397,301,o),
(296,301,cs),
(196,301,o),
(117,234,o),
(117,136,cs),
(117,47,o),
(188,-16,o),
(268,-16,cs)
);
}
);
width = 568;
},
{
layerId = "C9B9556E-C2FD-4F62-BB40-44923C452C22";
shapes = (
{
closed = 1;
nodes = (
(273,765,o),
(323,809,o),
(323,872,cs),
(323,919,o),
(297,963,o),
(236,963,cs),
(182,963,o),
(131,917,o),
(131,856,cs),
(131,801,o),
(171,765,o),
(220,765,cs)
);
},
{
closed = 1;
nodes = (
(273,-22,o),
(323,22,o),
(323,85,cs),
(323,132,o),
(297,176,o),
(236,176,cs),
(182,176,o),
(131,130,o),
(131,69,cs),
(131,14,o),
(171,-22,o),
(220,-22,cs)
);
}
);
width = 454;
},
{
layerId = "AFA1064D-EFC9-4C9F-B9B0-9118E41D87C4";
shapes = (
{
closed = 1;
nodes = (
(398,720,o),
(477,780,o),
(477,885,cs),
(477,963,o),
(419,1037,o),
(305,1037,cs),
(192,1037,o),
(108,970,o),
(108,872,cs),
(108,783,o),
(183,720,o),
(274,720,cs)
);
},
{
closed = 1;
nodes = (
(398,-16,o),
(477,44,o),
(477,149,cs),
(477,227,o),
(419,301,o),
(305,301,cs),
(192,301,o),
(108,234,o),
(108,136,cs),
(108,47,o),
(183,-16,o),
(274,-16,cs)
);
}
);
width = 585;
},
{
layerId = "2103F1D3-C390-4F79-A87D-298F85EA6916";
shapes = (
{
closed = 1;
nodes = (
(306,760,o),
(358,804,o),
(358,867,cs),
(358,914,o),
(332,958,o),
(260,958,cs),
(196,958,o),
(142,912,o),
(142,851,cs),
(142,796,o),
(183,760,o),
(242,760,cs)
);
},
{
closed = 1;
nodes = (
(306,-22,o),
(358,22,o),
(358,85,cs),
(358,132,o),
(332,176,o),
(260,176,cs),
(196,176,o),
(142,130,o),
(142,69,cs),
(142,14,o),
(183,-22,o),
(242,-22,cs)
);
}
);
width = 500;
},
{
layerId = "779F1615-9D1A-4778-9767-9A030AA58B6C";
shapes = (
{
closed = 1;
nodes = (
(400,810,o),
(462,864,o),
(462,942,cs),
(462,1000,o),
(430,1054,o),
(354,1054,cs),
(288,1054,o),
(224,998,o),
(224,922,cs),
(224,854,o),
(274,810,o),
(334,810,cs)
);
},
{
closed = 1;
nodes = (
(400,-22,o),
(462,32,o),
(462,110,cs),
(462,168,o),
(430,222,o),
(354,222,cs),
(288,222,o),
(224,166,o),
(224,90,cs),
(224,22,o),
(274,-22,o),
(334,-22,cs)
);
}
);
userData = {
com.schriftgestaltung.Glyphs.lastChange = "2019-04-25 21:50:43 +0000";
};
width = 686;
},
{
layerId = "97BB7961-D669-43AB-8BBF-11FFD0C46A4B";
shapes = (
{
closed = 1;
nodes = (
(461,794,o),
(546,860,o),
(546,975,cs),
(546,1061,o),
(482,1143,o),
(370,1143,cs),
(260,1143,o),
(169,1069,o),
(169,960,cs),
(169,863,o),
(252,794,o),
(340,794,cs)
);
},
{
closed = 1;
nodes = (
(461,-16,o),
(546,50,o),
(546,165,cs),
(546,251,o),
(482,333,o),
(370,333,cs),
(260,333,o),
(169,259,o),
(169,151,cs),
(169,53,o),
(252,-16,o),
(340,-16,cs)
);
}
);
width = 716;
}
);
unicode = 58;
}
{
color = 0;
glyphname = less;
kernLeft = less;
kernRight = less;
layers = (
{
layerId = UUID0;
shapes = (
{
closed = 1;
nodes = (
(164,616,l),
(164,510,l),
(1110,16,l),
(1110,168,l),
(310,564,l),
(1110,962,l),
(1110,1112,l)
);
}
);
width = 1338;
},
{
layerId = "DEBB1CE4-A72D-4960-969E-E04A036D2FA1";
shapes = (
{
closed = 1;
nodes = (
(164,625,l),
(164,501,l),
(1110,16,l),
(1110,246,l),
(461,564,l),
(1110,876,l),
(1110,1112,l)
);
}
);
width = 1338;
},
{
layerId = "184155C8-9F61-4F1C-9784-DDA8EA717636";
shapes = (
{
closed = 1;
nodes = (
(154,597,l),
(154,526,l),
(1100,77,l),
(1100,170,l),
(262,562,l),
(1100,960,l),
(1100,1051,l)
);
}
);
width = 1318;
},
{
layerId = "C9B9556E-C2FD-4F62-BB40-44923C452C22";
shapes = (
{
closed = 1;
nodes = (
(154,597,l),
(154,526,l),
(1100,77,l),
(1100,170,l),
(262,562,l),
(1100,960,l),
(1100,1051,l)
);
}
);
width = 1318;
},
{
layerId = "AFA1064D-EFC9-4C9F-B9B0-9118E41D87C4";
shapes = (
{
closed = 1;
nodes = (
(174,597,l),
(174,526,l),
(1234,77,l),
(1234,172,l),
(288,562,l),
(1234,957,l),
(1234,1051,l)
);
}
);
width = 1472;
},
{
layerId = "2103F1D3-C390-4F79-A87D-298F85EA6916";
shapes = (
{
closed = 1;
nodes = (
(164,597,l),
(164,526,l),
(1175,77,l),
(1175,170,l),
(279,562,l),
(1175,960,l),
(1175,1051,l)
);
}
);
width = 1403;
},
{
layerId = "779F1615-9D1A-4778-9767-9A030AA58B6C";
shapes = (
{
closed = 1;
nodes = (
(184,616,l),
(184,510,l),
(1241,16,l),
(1241,168,l),
(334,564,l),
(1241,960,l),
(1241,1112,l)
);
}
);
userData = {
com.schriftgestaltung.Glyphs.lastChange = "2019-04-25 21:50:43 +0000";
};
width = 1496;
},
{
layerId = "97BB7961-D669-43AB-8BBF-11FFD0C46A4B";
shapes = (
{
closed = 1;
nodes = (
(184,625,l),
(184,501,l),
(1244,16,l),
(1244,246,l),
(482,564,l),
(1244,876,l),
(1244,1112,l)
);
}
);
width = 1492;
}
);
unicode = 60;
}
{
color = 4;
glyphname = equal;
kernLeft = equal;
kernRight = equal;
layers = (
{
layerId = UUID0;
shapes = (
{
closed = 1;
nodes = (
(180,981,l),
(180,857,l),
(1074,857,l),
(1074,981,l)
);
},
{
closed = 1;
nodes = (
(180,427,l),
(180,303,l),
(1074,303,l),
(1074,427,l)
);
}
);
width = 1254;
},
{
layerId = "DEBB1CE4-A72D-4960-969E-E04A036D2FA1";
shapes = (
{
closed = 1;
nodes = (
(180,1013,l),
(180,815,l),
(1109,815,l),
(1109,1013,l)
);
},
{
closed = 1;
nodes = (
(180,471,l),
(180,273,l),
(1109,273,l),
(1109,471,l)
);
}
);
width = 1289;
},
{
layerId = "184155C8-9F61-4F1C-9784-DDA8EA717636";
shapes = (
{
closed = 1;
nodes = (
(154,859,l),
(154,773,l),
(1018,773,l),
(1018,859,l)
);
},
{
closed = 1;
nodes = (
(154,348,l),
(154,262,l),
(1018,262,l),
(1018,348,l)
);
}
);
width = 1172;
},
{
layerId = "C9B9556E-C2FD-4F62-BB40-44923C452C22";
shapes = (
{
closed = 1;
nodes = (
(154,861,l),
(154,777,l),
(1018,777,l),
(1018,861,l)
);
},
{
closed = 1;
nodes = (
(154,350,l),
(154,266,l),
(1018,266,l),
(1018,350,l)
);
}
);
width = 1172;
},
{
layerId = "AFA1064D-EFC9-4C9F-B9B0-9118E41D87C4";
shapes = (
{
closed = 1;
nodes = (
(104,861,l),
(104,775,l),
(1103,775,l),
(1103,861,l)
);
},
{
closed = 1;
nodes = (
(104,350,l),
(104,264,l),
(1103,264,l),
(1103,350,l)
);
}
);
width = 1207;
},
{
layerId = "2103F1D3-C390-4F79-A87D-298F85EA6916";
shapes = (
{
closed = 1;
nodes = (
(156,859,l),
(156,775,l),
(1080,775,l),
(1080,859,l)
);
},
{
closed = 1;
nodes = (
(156,348,l),
(156,264,l),
(1080,264,l),
(1080,348,l)
);
}
);
width = 1236;
},
{
layerId = "779F1615-9D1A-4778-9767-9A030AA58B6C";
shapes = (
{
closed = 1;
nodes = (
(110,981,l),
(110,857,l),
(1087,857,l),
(1087,981,l)
);
},
{
closed = 1;
nodes = (
(110,427,l),
(110,303,l),
(1087,303,l),
(1087,427,l)
);
}
);
userData = {
com.schriftgestaltung.Glyphs.lastChange = "2019-04-25 21:50:43 +0000";
};
width = 1197;
},
{
layerId = "97BB7961-D669-43AB-8BBF-11FFD0C46A4B";
shapes = (
{
closed = 1;
nodes = (
(170,1013,l),
(170,815,l),
(1189,815,l),
(1189,1013,l)
);
},
{
closed = 1;
nodes = (
(170,471,l),
(170,273,l),
(1189,273,l),
(1189,471,l)
);
}
);
width = 1359;
}
);
metricLeft = hyphen;
metricRight = hyphen;
unicode = 61;
}
{
color = 0;
glyphname = greater;
kernLeft = greater;
kernRight = greater;
layers = (
{
layerId = UUID0;
shapes = (
{
closed = 1;
nodes = (
(1174,654,l),
(228,1150,l),
(228,1000,l),
(1028,602,l),
(228,206,l),
(228,54,l),
(1174,548,l)
);
}
);
width = 1338;
},
{
layerId = "DEBB1CE4-A72D-4960-969E-E04A036D2FA1";
shapes = (
{
closed = 1;
nodes = (
(1174,663,l),
(228,1150,l),
(228,914,l),
(877,602,l),
(228,284,l),
(228,54,l),
(1174,539,l)
);
}
);
width = 1338;
},
{
layerId = "184155C8-9F61-4F1C-9784-DDA8EA717636";
shapes = (
{
closed = 1;
nodes = (
(1164,596,l),
(218,1050,l),
(218,959,l),
(1056,561,l),
(218,169,l),
(218,76,l),
(1164,525,l)
);
}
);
width = 1318;
},
{
layerId = "C9B9556E-C2FD-4F62-BB40-44923C452C22";
shapes = (
{
closed = 1;
nodes = (
(1164,596,l),
(218,1050,l),
(218,959,l),
(1056,561,l),
(218,169,l),
(218,76,l),
(1164,525,l)
);
}
);
width = 1318;
},
{
layerId = "AFA1064D-EFC9-4C9F-B9B0-9118E41D87C4";
shapes = (
{
closed = 1;
nodes = (
(1239,597,l),
(228,1051,l),
(228,960,l),
(1124,562,l),
(228,170,l),
(228,77,l),
(1239,526,l)
);
}
);
width = 1472;
},
{
layerId = "2103F1D3-C390-4F79-A87D-298F85EA6916";
shapes = (
{
closed = 1;
nodes = (
(1239,597,l),
(228,1051,l),
(228,960,l),
(1124,562,l),
(228,170,l),
(228,77,l),
(1239,526,l)
);
}
);
width = 1403;
},
{
layerId = "779F1615-9D1A-4778-9767-9A030AA58B6C";
shapes = (
{
closed = 1;
nodes = (
(1305,654,l),
(248,1150,l),
(248,998,l),
(1155,602,l),
(248,206,l),
(248,54,l),
(1305,548,l)
);
}
);
userData = {
com.schriftgestaltung.Glyphs.lastChange = "2019-04-25 21:50:43 +0000";
};
width = 1489;
},
{
layerId = "97BB7961-D669-43AB-8BBF-11FFD0C46A4B";
shapes = (
{
closed = 1;
nodes = (
(1308,663,l),
(248,1150,l),
(248,914,l),
(1010,602,l),
(248,284,l),
(248,54,l),
(1308,539,l)
);
}
);
width = 1492;
}
);
unicode = 62;
}
{
glyphname = question;
kernLeft = question;
kernRight = question;
layers = (
{
layerId = UUID0;
shapes = (
{
closed = 1;
nodes = (
(462,468,l),
(456,536,o),
(452,614,o),
(452,704,cs),
(452,722,o),
(452,750,o),
(454,766,c),
(526,914,o),
(872,1032,o),
(872,1336,cs),
(872,1574,o),
(742,1810,o),
(332,1810,cs),
(256,1810,o),
(150,1792,o),
(108,1768,c),
(134,1664,l),
(176,1682,o),
(254,1690,o),
(306,1690,cs),
(604,1690,o),
(740,1504,o),
(740,1316,cs),
(740,1196,o),
(642,1094,o),
(582,1048,cs),
(456,952,o),
(284,912,o),
(284,748,c),
(288,678,o),
(296,576,o),
(340,468,c)
);
},
{
closed = 1;
nodes = (
(412,-22,o),
(476,30,o),
(476,108,cs),
(476,166,o),
(442,218,o),
(362,218,cs),
(298,218,o),
(230,162,o),
(230,88,cs),
(230,20,o),
(284,-22,o),
(342,-22,cs)
);
}
);
width = 952;
},
{
layerId = "DEBB1CE4-A72D-4960-969E-E04A036D2FA1";
shapes = (
{
closed = 1;
nodes = (
(515,523,l),
(499,611,o),
(495,700,o),
(495,775,cs),
(493,805,o),
(502,830,o),
(509,841,c),
(609,980,o),
(944,1022,o),
(944,1349,cs),
(944,1581,o),
(789,1816,o),
(372,1816,cs),
(206,1816,o),
(103,1783,o),
(52,1756,c),
(98,1578,l),
(132,1596,o),
(193,1616,o),
(276,1616,cs),
(518,1616,o),
(617,1460,o),
(617,1313,cs),
(617,1217,o),
(562,1122,o),
(501,1086,cs),
(280,964,o),
(223,891,o),
(223,786,c),
(229,684,o),
(284,582,o),
(322,523,c)
);
},
{
closed = 1;
nodes = (
(518,-16,o),
(604,49,o),
(604,164,cs),
(604,249,o),
(539,330,o),
(427,330,cs),
(317,330,o),
(227,257,o),
(227,149,cs),
(227,51,o),
(310,-16,o),
(397,-16,cs)
);
}
);
width = 987;
},
{
layerId = "184155C8-9F61-4F1C-9784-DDA8EA717636";
shapes = (
{
closed = 1;
nodes = (
(414,456,l),
(398,544,o),
(386,661,o),
(386,738,cs),
(386,774,o),
(393,807,o),
(408,832,cs),
(456,913,o),
(894,1003,o),
(894,1322,cs),
(894,1590,o),
(695,1776,o),
(343,1776,cs),
(199,1776,o),
(88,1741,o),
(42,1714,c),
(64,1638,l),
(100,1655,o),
(169,1669,o),
(239,1669,cs),
(447,1669,o),
(568,1499,o),
(568,1279,cs),
(568,1110,o),
(520,999,o),
(443,961,cs),
(291,885,o),
(254,853,o),
(255,782,cs),
(256,682,o),
(323,515,o),
(353,456,c)
);
},
{
closed = 1;
nodes = (
(473,-16,o),
(547,44,o),
(547,149,cs),
(547,227,o),
(492,301,o),
(391,301,cs),
(291,301,o),
(212,234,o),
(212,136,cs),
(212,47,o),
(283,-16,o),
(363,-16,cs)
);
}
);
width = 924;
},
{
background = {
shapes = (
{
closed = 1;
nodes = (
(306,377,l),
(297,485,o),
(290,549,o),
(290,639,cs),
(290,657,o),
(290,685,o),
(293,701,c),
(393,904,o),
(755,994,o),
(755,1325,cs),
(755,1586,o),
(575,1770,o),
(219,1770,cs),
(142,1770,o),
(26,1752,o),
(-16,1728,c),
(5,1667,l),
(48,1685,o),
(132,1696,o),
(184,1696,cs),
(468,1696,o),
(631,1507,o),
(631,1289,cs),
(631,1135,o),
(527,1032,o),
(466,985,cs),
(343,890,o),
(179,810,o),
(179,683,c),
(184,613,o),
(209,485,o),
(241,377,c)
);
},
{
closed = 1;
nodes = (
(304,-22,o),
(357,22,o),
(357,85,cs),
(357,132,o),
(330,176,o),
(259,176,cs),
(196,176,o),
(141,130,o),
(141,69,cs),
(141,14,o),
(183,-22,o),
(241,-22,cs)
);
}
);
};
layerId = "C9B9556E-C2FD-4F62-BB40-44923C452C22";
shapes = (
{
closed = 1;
nodes = (
(282,359,l),
(269,467,o),
(260,535,o),
(260,625,cs),
(260,643,o),
(260,678,o),
(262,694,c),
(351,896,o),
(693,961,o),
(693,1326,cs),
(693,1582,o),
(549,1770,o),
(192,1770,cs),
(123,1770,o),
(26,1752,o),
(-12,1728,c),
(5,1667,l),
(43,1685,o),
(137,1696,o),
(184,1696,cs),
(445,1696,o),
(583,1521,o),
(583,1294,cs),
(583,1136,o),
(527,1047,o),
(432,977,cs),
(272,859,o),
(151,780,o),
(151,669,c),
(155,599,o),
(177,467,o),
(206,359,c)
);
},
{
closed = 1;
nodes = (
(302,-22,o),
(352,22,o),
(352,85,cs),
(352,132,o),
(326,176,o),
(265,176,cs),
(211,176,o),
(160,130,o),
(160,69,cs),
(160,14,o),
(200,-22,o),
(249,-22,cs)
);
}
);
width = 745;
},
{
layerId = "AFA1064D-EFC9-4C9F-B9B0-9118E41D87C4";
shapes = (
{
closed = 1;
nodes = (
(434,486,l),
(422,574,o),
(414,652,o),
(414,727,cs),
(414,759,o),
(418,805,o),
(433,824,cs),
(513,926,o),
(964,972,o),
(964,1329,cs),
(964,1603,o),
(734,1776,o),
(400,1776,cs),
(240,1776,o),
(147,1739,o),
(94,1712,c),
(115,1636,l),
(153,1654,o),
(224,1670,o),
(304,1670,cs),
(507,1670,o),
(604,1524,o),
(604,1304,cs),
(604,1113,o),
(559,985,o),
(469,950,cs),
(298,883,o),
(258,848,o),
(258,783,cs),
(258,696,o),
(333,545,o),
(367,486,c)
);
},
{
closed = 1;
nodes = (
(505,-16,o),
(584,44,o),
(584,149,cs),
(584,227,o),
(526,301,o),
(412,301,cs),
(299,301,o),
(215,234,o),
(215,136,cs),
(215,47,o),
(290,-16,o),
(381,-16,cs)
);
}
);
width = 982;
},
{
layerId = "2103F1D3-C390-4F79-A87D-298F85EA6916";
shapes = (
{
closed = 1;
nodes = (
(326,377,l),
(317,485,o),
(310,549,o),
(310,639,cs),
(310,657,o),
(310,685,o),
(313,701,c),
(413,904,o),
(775,994,o),
(775,1325,cs),
(775,1586,o),
(595,1770,o),
(239,1770,cs),
(162,1770,o),
(46,1752,o),
(4,1728,c),
(25,1667,l),
(68,1685,o),
(152,1696,o),
(204,1696,cs),
(488,1696,o),
(651,1507,o),
(651,1289,cs),
(651,1135,o),
(547,1032,o),
(486,985,cs),
(363,890,o),
(199,810,o),
(199,683,c),
(204,613,o),
(229,485,o),
(261,377,c)
);
},
{
closed = 1;
nodes = (
(324,-22,o),
(377,22,o),
(377,85,cs),
(377,132,o),
(350,176,o),
(279,176,cs),
(216,176,o),
(161,130,o),
(161,69,cs),
(161,14,o),
(203,-22,o),
(261,-22,cs)
);
}
);
width = 847;
},
{
layerId = "779F1615-9D1A-4778-9767-9A030AA58B6C";
shapes = (
{
closed = 1;
nodes = (
(442,468,l),
(436,536,o),
(432,614,o),
(432,704,cs),
(432,722,o),
(432,750,o),
(434,766,c),
(506,914,o),
(852,1032,o),
(852,1336,cs),
(852,1574,o),
(722,1810,o),
(312,1810,cs),
(236,1810,o),
(130,1792,o),
(88,1768,c),
(114,1664,l),
(156,1682,o),
(234,1690,o),
(286,1690,cs),
(584,1690,o),
(720,1504,o),
(720,1316,cs),
(720,1196,o),
(622,1094,o),
(562,1048,cs),
(436,952,o),
(264,912,o),
(264,748,c),
(268,678,o),
(276,576,o),
(320,468,c)
);
},
{
closed = 1;
nodes = (
(392,-22,o),
(456,30,o),
(456,108,cs),
(456,166,o),
(422,218,o),
(342,218,cs),
(278,218,o),
(210,162,o),
(210,88,cs),
(210,20,o),
(264,-22,o),
(322,-22,cs)
);
}
);
userData = {
com.schriftgestaltung.Glyphs.lastChange = "2019-04-25 21:50:43 +0000";
};
width = 932;
},
{
layerId = "97BB7961-D669-43AB-8BBF-11FFD0C46A4B";
shapes = (
{
closed = 1;
nodes = (
(535,523,l),
(519,611,o),
(515,700,o),
(515,775,cs),
(513,805,o),
(522,830,o),
(529,841,c),
(629,980,o),
(964,1022,o),
(964,1349,cs),
(964,1581,o),
(809,1816,o),
(392,1816,cs),
(226,1816,o),
(123,1783,o),
(72,1756,c),
(118,1578,l),
(152,1596,o),
(213,1616,o),
(296,1616,cs),
(538,1616,o),
(637,1460,o),
(637,1313,cs),
(637,1217,o),
(582,1122,o),
(521,1086,cs),
(300,964,o),
(243,891,o),
(243,786,c),
(249,684,o),
(304,582,o),
(342,523,c)
);
},
{
closed = 1;
nodes = (
(538,-16,o),
(624,49,o),
(624,164,cs),
(624,249,o),
(559,330,o),
(447,330,cs),
(337,330,o),
(247,257,o),
(247,149,cs),
(247,51,o),
(330,-16,o),
(417,-16,cs)
);
}
);
width = 1007;
}
);
unicode = 63;
}
{
glyphname = at;
kernLeft = at;
kernRight = at;
layers = (
{
layerId = UUID0;
shapes = (
{
closed = 1;
nodes = (
(136,-162,o),
(396,-500,o),
(870,-500,cs),
(1060,-500,o),
(1240,-438,o),
(1338,-358,c),
(1306,-290,l),
(1226,-344,o),
(1040,-386,o),
(896,-386,cs),
(530,-386,o),
(264,-118,o),
(264,392,cs),
(264,1010,o),
(670,1390,o),
(1110,1390,cs),
(1442,1390,o),
(1746,1204,o),
(1746,734,cs),
(1746,342,o),
(1508,102,o),
(1366,102,cs),
(1332,102,o),
(1310,160,o),
(1322,326,cs),
(1336,524,o),
(1398,846,o),
(1424,972,c),
(1388,986,o),
(1360,997,o),
(1328,1006,cs),
(1306,1012,o),
(1296,982,o),
(1288,958,c),
(1220,996,o),
(1124,1016,o),
(1054,1016,cs),
(738,1016,o),
(550,636,o),
(550,368,cs),
(550,120,o),
(688,-26,o),
(820,-26,cs),
(970,-26,o),
(1120,206,o),
(1206,434,c),
(1182,302,o),
(1176,210,o),
(1180,148,cs),
(1187,36,o),
(1260,-26,o),
(1328,-26,cs),
(1492,-26,o),
(1860,244,o),
(1860,772,cs),
(1860,1264,o),
(1566,1504,o),
(1168,1504,cs),
(626,1504,o),
(136,1056,o),
(136,362,cs)
);
},
{
closed = 1;
nodes = (
(702,648,o),
(814,898,o),
(1012,898,cs),
(1082,898,o),
(1208,866,o),
(1248,826,c),
(1236,754,o),
(1214,674,o),
(1186,596,cs),
(1095,342,o),
(950,120,o),
(852,120,cs),
(740,120,o),
(702,278,o),
(702,406,cs)
);
}
);
width = 1994;
},
{
layerId = "DEBB1CE4-A72D-4960-969E-E04A036D2FA1";
shapes = (
{
closed = 1;
nodes = (
(152,-200,o),
(511,-522,o),
(941,-522,cs),
(1139,-522,o),
(1333,-468,o),
(1444,-373,c),
(1405,-281,l),
(1328,-332,o),
(1152,-373,o),
(993,-373,cs),
(660,-373,o),
(357,-133,o),
(357,364,cs),
(357,955,o),
(681,1396,o),
(1186,1396,cs),
(1517,1396,o),
(1865,1253,o),
(1865,727,cs),
(1865,389,o),
(1698,170,o),
(1519,170,cs),
(1502,170,o),
(1472,237,o),
(1478,338,cs),
(1489,530,o),
(1560,846,o),
(1592,991,c),
(1538,1007,o),
(1479,1033,o),
(1434,1044,cs),
(1406,1051,o),
(1377,1020,o),
(1369,996,c),
(1298,1033,o),
(1209,1051,o),
(1138,1051,cs),
(810,1051,o),
(609,701,o),
(609,380,cs),
(609,123,o),
(759,-29,o),
(895,-29,cs),
(1072,-29,o),
(1208,206,o),
(1293,438,c),
(1269,302,o),
(1258,214,o),
(1261,160,cs),
(1267,48,o),
(1328,-8,o),
(1396,-8,cs),
(1620,-8,o),
(2037,256,o),
(2037,803,cs),
(2037,1276,o),
(1710,1562,o),
(1273,1562,cs),
(583,1562,o),
(152,1000,o),
(152,322,cs)
);
},
{
closed = 1;
nodes = (
(855,672,o),
(936,888,o),
(1097,888,cs),
(1147,888,o),
(1267,844,o),
(1298,808,c),
(1290,755,o),
(1264,667,o),
(1243,603,cs),
(1178,405,o),
(1046,209,o),
(962,209,cs),
(887,209,o),
(855,362,o),
(855,453,cs)
);
}
);
width = 2155;
},
{
layerId = "184155C8-9F61-4F1C-9784-DDA8EA717636";
shapes = (
{
closed = 1;
nodes = (
(142,-186,o),
(480,-522,o),
(931,-522,cs),
(1115,-522,o),
(1311,-466,o),
(1416,-373,c),
(1396,-328,l),
(1275,-405,o),
(1133,-438,o),
(1005,-438,cs),
(600,-438,o),
(298,-111,o),
(298,391,cs),
(298,952,o),
(665,1431,o),
(1184,1431,cs),
(1554,1431,o),
(1879,1181,o),
(1879,729,cs),
(1879,355,o),
(1656,125,o),
(1519,125,cs),
(1469,125,o),
(1455,156,o),
(1455,257,cs),
(1455,500,o),
(1517,819,o),
(1553,930,c),
(1391,986,o),
(1376,990,o),
(1353,990,cs),
(1327,990,o),
(1310,990,o),
(1292,943,c),
(1228,975,o),
(1167,991,o),
(1100,991,cs),
(786,991,o),
(561,694,o),
(561,359,cs),
(561,117,o),
(683,-20,o),
(844,-20,cs),
(1018,-20,o),
(1132,140,o),
(1209,418,c),
(1185,282,o),
(1171,194,o),
(1174,140,cs),
(1180,28,o),
(1254,-8,o),
(1353,-8,cs),
(1643,-8,o),
(2007,305,o),
(2007,799,cs),
(2007,1222,o),
(1741,1533,o),
(1274,1533,cs),
(700,1533,o),
(142,1040,o),
(142,344,cs)
);
},
{
closed = 1;
nodes = (
(871,729,o),
(984,932,o),
(1116,932,cs),
(1161,932,o),
(1210,900,o),
(1255,851,c),
(1255,796,o),
(1221,644,o),
(1201,569,cs),
(1141,344,o),
(1062,193,o),
(978,193,cs),
(901,193,o),
(871,322,o),
(871,457,cs)
);
}
);
width = 2127;
},
{
layerId = "C9B9556E-C2FD-4F62-BB40-44923C452C22";
shapes = (
{
closed = 1;
nodes = (
(142,-198,o),
(444,-500,o),
(881,-500,cs),
(1077,-500,o),
(1254,-439,o),
(1353,-358,c),
(1334,-303,l),
(1235,-387,o),
(1060,-446,o),
(897,-446,cs),
(520,-446,o),
(262,-119,o),
(262,382,cs),
(262,1000,o),
(655,1450,o),
(1133,1450,cs),
(1466,1450,o),
(1782,1232,o),
(1782,760,cs),
(1782,312,o),
(1500,66,o),
(1395,66,cs),
(1347,66,o),
(1318,118,o),
(1334,325,cs),
(1349,515,o),
(1397,783,o),
(1435,962,c),
(1358,988,o),
(1351,990,o),
(1345,991,cs),
(1328,994,o),
(1319,984,o),
(1306,945,c),
(1233,975,o),
(1138,992,o),
(1072,992,cs),
(758,992,o),
(575,626,o),
(575,365,cs),
(575,140,o),
(711,4,o),
(835,4,cs),
(999,4,o),
(1130,245,o),
(1217,478,c),
(1201,313,o),
(1198,185,o),
(1200,148,cs),
(1205,56,o),
(1277,4,o),
(1349,4,cs),
(1510,4,o),
(1887,259,o),
(1887,787,cs),
(1887,1259,o),
(1589,1504,o),
(1177,1504,cs),
(631,1504,o),
(142,1073,o),
(142,362,cs)
);
},
{
closed = 1;
nodes = (
(720,698,o),
(854,938,o),
(1024,938,cs),
(1101,938,o),
(1211,888,o),
(1274,842,c),
(1261,764,o),
(1237,676,o),
(1209,595,cs),
(1108,298,o),
(963,90,o),
(862,90,cs),
(783,90,o),
(720,215,o),
(720,411,cs)
);
}
);
width = 2011;
},
{
layerId = "AFA1064D-EFC9-4C9F-B9B0-9118E41D87C4";
shapes = (
{
closed = 1;
nodes = (
(142,-186,o),
(500,-522,o),
(978,-522,cs),
(1173,-522,o),
(1380,-466,o),
(1492,-373,c),
(1470,-328,l),
(1342,-405,o),
(1192,-438,o),
(1056,-438,cs),
(627,-438,o),
(307,-111,o),
(307,391,cs),
(307,952,o),
(696,1431,o),
(1246,1431,cs),
(1638,1431,o),
(1982,1181,o),
(1982,729,cs),
(1982,355,o),
(1746,125,o),
(1601,125,cs),
(1548,125,o),
(1533,156,o),
(1533,257,cs),
(1533,500,o),
(1599,819,o),
(1637,930,c),
(1465,986,o),
(1449,990,o),
(1425,990,cs),
(1397,990,o),
(1379,990,o),
(1360,943,c),
(1292,975,o),
(1228,991,o),
(1157,991,cs),
(824,991,o),
(586,694,o),
(586,359,cs),
(586,117,o),
(715,-20,o),
(886,-20,cs),
(1070,-20,o),
(1191,140,o),
(1272,418,c),
(1247,282,o),
(1232,194,o),
(1235,140,cs),
(1242,28,o),
(1320,-8,o),
(1425,-8,cs),
(1732,-8,o),
(2118,305,o),
(2118,799,cs),
(2118,1222,o),
(1836,1533,o),
(1341,1533,cs),
(733,1533,o),
(142,1040,o),
(142,344,cs)
);
},
{
closed = 1;
nodes = (
(914,729,o),
(1034,932,o),
(1174,932,cs),
(1221,932,o),
(1273,900,o),
(1321,851,c),
(1321,796,o),
(1285,644,o),
(1264,569,cs),
(1200,344,o),
(1117,193,o),
(1028,193,cs),
(946,193,o),
(914,322,o),
(914,457,cs)
);
}
);
width = 2243;
},
{
layerId = "2103F1D3-C390-4F79-A87D-298F85EA6916";
shapes = (
{
closed = 1;
nodes = (
(132,-198,o),
(452,-500,o),
(914,-500,cs),
(1122,-500,o),
(1309,-439,o),
(1414,-358,c),
(1394,-303,l),
(1289,-387,o),
(1104,-446,o),
(931,-446,cs),
(532,-446,o),
(259,-119,o),
(259,382,cs),
(259,1000,o),
(675,1450,o),
(1181,1450,cs),
(1533,1450,o),
(1868,1232,o),
(1868,760,cs),
(1868,312,o),
(1569,66,o),
(1458,66,cs),
(1408,66,o),
(1377,118,o),
(1394,325,cs),
(1410,515,o),
(1460,783,o),
(1501,962,c),
(1419,988,o),
(1412,990,o),
(1405,991,cs),
(1387,994,o),
(1378,984,o),
(1364,945,c),
(1287,975,o),
(1186,992,o),
(1116,992,cs),
(784,992,o),
(590,626,o),
(590,365,cs),
(590,140,o),
(734,4,o),
(866,4,cs),
(1039,4,o),
(1178,245,o),
(1270,478,c),
(1253,313,o),
(1250,185,o),
(1252,148,cs),
(1257,56,o),
(1333,4,o),
(1410,4,cs),
(1580,4,o),
(1979,259,o),
(1979,787,cs),
(1979,1259,o),
(1664,1504,o),
(1228,1504,cs),
(650,1504,o),
(132,1073,o),
(132,362,cs)
);
},
{
closed = 1;
nodes = (
(744,698,o),
(886,938,o),
(1066,938,cs),
(1147,938,o),
(1264,888,o),
(1330,842,c),
(1316,764,o),
(1291,676,o),
(1261,595,cs),
(1151,299,o),
(1001,90,o),
(894,90,cs),
(811,90,o),
(744,215,o),
(744,411,cs)
);
}
);
width = 2093;
},
{
layerId = "779F1615-9D1A-4778-9767-9A030AA58B6C";
shapes = (
{
closed = 1;
nodes = (
(154,-166,o),
(477,-500,o),
(937,-500,cs),
(1144,-500,o),
(1324,-439,o),
(1429,-358,c),
(1396,-290,l),
(1310,-344,o),
(1136,-386,o),
(975,-386,cs),
(585,-386,o),
(282,-104,o),
(282,387,cs),
(282,1010,o),
(714,1390,o),
(1198,1390,cs),
(1542,1390,o),
(1865,1195,o),
(1865,745,cs),
(1865,339,o),
(1601,102,o),
(1470,102,cs),
(1412,102,o),
(1391,148,o),
(1406,331,cs),
(1423,536,o),
(1482,829,o),
(1514,972,c),
(1501,977,o),
(1441,1002,o),
(1419,1006,cs),
(1404,1009,o),
(1394,1005,o),
(1378,958,c),
(1305,996,o),
(1202,1016,o),
(1126,1016,cs),
(797,1016,o),
(600,637,o),
(600,361,cs),
(600,126,o),
(742,-26,o),
(874,-26,cs),
(1036,-26,o),
(1194,198,o),
(1289,434,c),
(1262,288,o),
(1258,210,o),
(1263,147,cs),
(1272,29,o),
(1350,-26,o),
(1424,-26,cs),
(1591,-26,o),
(1979,243,o),
(1979,778,cs),
(1979,1232,o),
(1699,1504,o),
(1248,1504,cs),
(668,1504,o),
(154,1058,o),
(154,358,cs)
);
},
{
closed = 1;
nodes = (
(752,645,o),
(872,898,o),
(1082,898,cs),
(1158,898,o),
(1294,866,o),
(1337,826,c),
(1324,754,o),
(1301,676,o),
(1271,596,cs),
(1168,321,o),
(1007,120,o),
(898,120,cs),
(818,120,o),
(752,235,o),
(752,410,cs)
);
}
);
userData = {
com.schriftgestaltung.Glyphs.lastChange = "2019-04-25 21:50:43 +0000";
};
width = 2135;
},
{
layerId = "97BB7961-D669-43AB-8BBF-11FFD0C46A4B";
shapes = (
{
closed = 1;
nodes = (
(147,-215,o),
(535,-522,o),
(1002,-522,cs),
(1202,-522,o),
(1410,-466,o),
(1522,-373,c),
(1481,-281,l),
(1410,-328,o),
(1227,-373,o),
(1062,-373,cs),
(696,-373,o),
(360,-153,o),
(360,387,cs),
(360,954,o),
(709,1396,o),
(1272,1396,cs),
(1582,1396,o),
(1961,1252,o),
(1961,741,cs),
(1961,382,o),
(1774,170,o),
(1584,170,cs),
(1582,170,o),
(1567,232,o),
(1572,345,cs),
(1580,539,o),
(1649,840,o),
(1680,991,c),
(1614,1006,o),
(1514,1040,o),
(1490,1044,cs),
(1459,1049,o),
(1433,1021,o),
(1425,996,c),
(1356,1033,o),
(1252,1051,o),
(1174,1051,cs),
(825,1051,o),
(627,693,o),
(627,390,cs),
(627,120,o),
(784,-29,o),
(933,-29,cs),
(1120,-29,o),
(1275,206,o),
(1364,438,c),
(1341,308,o),
(1328,220,o),
(1331,162,cs),
(1337,36,o),
(1407,-8,o),
(1491,-8,cs),
(1696,-8,o),
(2141,256,o),
(2141,801,cs),
(2141,1276,o),
(1803,1562,o),
(1325,1562,cs),
(622,1562,o),
(147,980,o),
(147,344,cs)
);
},
{
closed = 1;
nodes = (
(916,673,o),
(1007,888,o),
(1149,888,cs),
(1214,888,o),
(1321,844,o),
(1354,808,c),
(1347,762,o),
(1332,687,o),
(1302,601,cs),
(1227,387,o),
(1096,209,o),
(1015,209,cs),
(941,209,o),
(916,356,o),
(916,465,cs)
);
}
);
width = 2277;
}
);
unicode = 64;
}
{
color = 4;
glyphname = A;
kernLeft = A;
kernRight = A;
layers = (
{
anchors = (
{
name = bottom;
pos = (704,0);
},
{
name = center;
pos = (743,710);
},
{
name = ogonek;
pos = (1267,10);
},
{
name = top;
pos = (723,1486);
}
);
layerId = UUID0;
shapes = (
{
closed = 1;
nodes = (
(-6,86,l),
(-6,0,l),
(444,0,l),
(444,86,l),
(266,106,l),
(372,422,l),
(993,422,l),
(1096,104,l),
(926,86,l),
(926,0,l),
(1414,0,l),
(1414,86,l),
(1284,104,l),
(806,1500,l),
(633,1500,l),
(122,104,l)
);
},
{
closed = 1;
nodes = (
(406,526,l),
(639,1186,l),
(695,1367,l),
(746,1192,l),
(958,526,l)
);
}
);
width = 1408;
},
{
anchors = (
{
name = bottom;
pos = (707,0);
},
{
name = center;
pos = (783,710);
},
{
name = ogonek;
pos = (1273,10);
},
{
name = top;
pos = (707,1486);
}
);
layerId = "DEBB1CE4-A72D-4960-969E-E04A036D2FA1";
shapes = (
{
closed = 1;
nodes = (
(-33,132,l),
(-31,0,l),
(502,0,l),
(502,132,l),
(346,150,l),
(413,392,l),
(891,392,l),
(960,153,l),
(818,132,l),
(818,0,l),
(1448,0,l),
(1448,132,l),
(1337,153,l),
(903,1493,l),
(543,1493,l),
(83,154,l)
);
},
{
closed = 1;
nodes = (
(453,545,l),
(630,1142,l),
(663,1284,l),
(691,1143,l),
(849,545,l)
);
}
);
width = 1414;
},
{
anchors = (
{
name = bottom;
pos = (619,0);
},
{
name = center;
pos = (623,710);
},
{
name = ogonek;
pos = (1113,10);
},
{
name = top;
pos = (619,1486);
}
);
layerId = "184155C8-9F61-4F1C-9784-DDA8EA717636";
shapes = (
{
closed = 1;
nodes = (
(-150,38,l),
(-150,0,l),
(250,0,l),
(250,38,l),
(109,72,l),
(209,435,l),
(674,435,l),
(779,72,l),
(637,38,l),
(637,0,l),
(1327,0,l),
(1327,38,l),
(1213,69,l),
(758,1486,l),
(474,1486,l),
(2,76,l)
);
},
{
closed = 1;
nodes = (
(231,499,l),
(417,1089,l),
(450,1201,l),
(478,1089,l),
(651,499,l)
);
}
);
width = 1237;
},
{
anchors = (
{
name = bottom;
pos = (650,0);
},
{
name = center;
pos = (643,710);
},
{
name = ogonek;
pos = (1169,10);
},
{
name = top;
pos = (670,1486);
}
);
layerId = "C9B9556E-C2FD-4F62-BB40-44923C452C22";
shapes = (
{
closed = 1;
nodes = (
(-20,36,l),
(-20,0,l),
(347,0,l),
(347,36,l),
(214,69,l),
(326,460,l),
(895,460,l),
(1015,69,l),
(879,36,l),
(879,0,l),
(1314,0,l),
(1314,36,l),
(1184,69,l),
(737,1500,l),
(591,1500,l),
(104,67,l)
);
},
{
closed = 1;
nodes = (
(346,526,l),
(577,1251,l),
(621,1385,l),
(659,1251,l),
(874,526,l)
);
}
);
width = 1299;
},
{
anchors = (
{
name = bottom;
pos = (684,0);
},
{
name = center;
pos = (693,710);
},
{
name = ogonek;
pos = (1230,10);
},
{
name = top;
pos = (675,1486);
}
);
layerId = "AFA1064D-EFC9-4C9F-B9B0-9118E41D87C4";
shapes = (
{
closed = 1;
nodes = (
(-150,38,l),
(-150,0,l),
(289,0,l),
(289,38,l),
(102,72,l),
(221,435,l),
(754,435,l),
(880,72,l),
(726,38,l),
(726,0,l),
(1454,0,l),
(1454,38,l),
(1332,69,l),
(845,1486,l),
(517,1486,l),
(-9,72,l)
);
},
{
closed = 1;
nodes = (
(245,499,l),
(456,1099,l),
(496,1215,l),
(535,1099,l),
(729,499,l)
);
}
);
width = 1367;
},
{
anchors = (
{
name = bottom;
pos = (668,0);
},
{
name = center;
pos = (663,710);
},
{
name = ogonek;
pos = (1202,10);
},
{
name = top;
pos = (648,1486);
}
);
layerId = "2103F1D3-C390-4F79-A87D-298F85EA6916";
shapes = (
{
closed = 1;
nodes = (
(-90,36,l),
(-90,0,l),
(313,0,l),
(313,36,l),
(144,69,l),
(277,460,l),
(923,460,l),
(1064,67,l),
(914,36,l),
(914,0,l),
(1364,0,l),
(1364,36,l),
(1234,67,l),
(719,1500,l),
(576,1500,l),
(35,67,l)
);
},
{
closed = 1;
nodes = (
(299,526,l),
(556,1255,l),
(602,1381,l),
(648,1255,l),
(903,526,l)
);
}
);
width = 1336;
},
{
anchors = (
{
name = bottom;
pos = (722,0);
},
{
name = center;
pos = (763,710);
},
{
name = ogonek;
pos = (1300,10);
},
{
name = top;
pos = (722,1486);
}
);
layerId = "779F1615-9D1A-4778-9767-9A030AA58B6C";
shapes = (
{
closed = 1;
nodes = (
(-25,86,l),
(-25,0,l),
(434,0,l),
(434,86,l),
(260,106,l),
(368,422,l),
(1043,422,l),
(1152,104,l),
(969,86,l),
(969,0,l),
(1469,0,l),
(1469,86,l),
(1323,104,l),
(820,1500,l),
(641,1500,l),
(116,104,l)
);
},
{
closed = 1;
nodes = (
(403,526,l),
(640,1186,l),
(709,1392,l),
(778,1192,l),
(1006,526,l)
);
}
);
userData = {
com.schriftgestaltung.Glyphs.lastChange = "2019-04-25 21:50:43 +0000";
};
width = 1444;
},
{
anchors = (
{
name = bottom;
pos = (720,0);
},
{
name = center;
pos = (813,710);
},
{
name = ogonek;
pos = (1295,10);
},
{
name = top;
pos = (720,1486);
}
);
layerId = "97BB7961-D669-43AB-8BBF-11FFD0C46A4B";
shapes = (
{
closed = 1;
nodes = (
(-68,132,l),
(-66,0,l),
(479,0,l),
(479,132,l),
(307,150,l),
(377,392,l),
(914,392,l),
(982,153,l),
(824,132,l),
(824,0,l),
(1507,0,l),
(1507,132,l),
(1390,153,l),
(951,1493,l),
(554,1493,l),
(53,154,l)
);
},
{
closed = 1;
nodes = (
(418,545,l),
(624,1142,l),
(672,1284,l),
(708,1143,l),
(870,545,l)
);
}
);
width = 1439;
}
);
unicode = 65;
}
{
color = 4;
glyphname = B;
kernLeft = H;
kernRight = B;
layers = (
{
anchors = (
{
name = bottom;
pos = (651,0);
},
{
name = center;
pos = (651,743);
},
{
name = top;
pos = (651,1486);
}
);
layerId = UUID0;
shapes = (
{
closed = 1;
nodes = (
(79,86,l),
(79,0,l),
(325,0,ls),
(479,0,o),
(545,-12,o),
(643,-12,cs),
(1105,-12,o),
(1245,210,o),
(1245,444,cs),
(1245,656,o),
(1097,800,o),
(843,792,c),
(1037,830,o),
(1139,986,o),
(1139,1166,cs),
(1139,1376,o),
(1003,1502,o),
(645,1502,cs),
(545,1502,o),
(453,1486,o),
(333,1486,cs),
(83,1486,l),
(83,1400,l),
(251,1378,l),
(251,104,l)
);
},
{
closed = 1;
nodes = (
(415,1398,l),
(455,1398,o),
(525,1410,o),
(623,1410,cs),
(889,1410,o),
(973,1314,o),
(973,1128,cs),
(973,932,o),
(863,824,o),
(661,824,cs),
(609,824,o),
(477,822,o),
(415,826,c)
);
},
{
closed = 1;
nodes = (
(415,718,l),
(475,722,o),
(629,720,o),
(701,720,cs),
(959,720,o),
(1065,626,o),
(1065,414,cs),
(1065,210,o),
(951,84,o),
(641,84,cs),
(573,84,o),
(467,84,o),
(415,100,c)
);
}
);
width = 1301;
},
{
anchors = (
{
name = bottom;
pos = (717,0);
},
{
name = center;
pos = (717,743);
},
{
name = top;
pos = (717,1486);
}
);
layerId = "DEBB1CE4-A72D-4960-969E-E04A036D2FA1";
shapes = (
{
closed = 1;
nodes = (
(79,132,l),
(79,0,l),
(403,0,ls),
(533,0,o),
(591,-12,o),
(741,-12,cs),
(1243,-12,o),
(1387,192,o),
(1387,450,cs),
(1387,672,o),
(1219,794,o),
(957,794,c),
(1143,820,o),
(1287,954,o),
(1287,1160,cs),
(1287,1368,o),
(1173,1500,o),
(723,1500,cs),
(621,1500,o),
(525,1486,o),
(399,1486,cs),
(83,1486,l),
(83,1346,l),
(233,1318,l),
(233,154,l)
);
},
{
closed = 1;
nodes = (
(571,1358,l),
(597,1362,o),
(679,1368,o),
(709,1368,cs),
(879,1368,o),
(947,1292,o),
(947,1126,cs),
(947,952,o),
(885,840,o),
(733,840,cs),
(685,840,o),
(607,840,o),
(571,844,c)
);
},
{
closed = 1;
nodes = (
(571,686,l),
(607,688,o),
(693,690,o),
(753,690,cs),
(927,690,o),
(1011,622,o),
(1011,430,cs),
(1011,242,o),
(935,126,o),
(729,126,cs),
(675,126,o),
(601,130,o),
(571,142,c)
);
}
);
width = 1433;
},
{
anchors = (
{
name = bottom;
pos = (673,0);
},
{
name = center;
pos = (673,743);
},
{
name = top;
pos = (673,1486);
}
);
layerId = "184155C8-9F61-4F1C-9784-DDA8EA717636";
shapes = (
{
closed = 1;
nodes = (
(18,37,l),
(18,0,l),
(342,0,ls),
(472,0,o),
(530,-12,o),
(680,-12,cs),
(1182,-12,o),
(1326,192,o),
(1326,450,cs),
(1326,672,o),
(1148,794,o),
(896,794,c),
(1082,820,o),
(1223,954,o),
(1223,1160,cs),
(1223,1349,o),
(1112,1500,o),
(686,1500,cs),
(560,1500,o),
(464,1486,o),
(338,1486,cs),
(19,1486,l),
(19,1450,l),
(152,1412,l),
(152,73,l)
);
},
{
closed = 1;
nodes = (
(530,1431,l),
(554,1435,o),
(616,1442,o),
(644,1442,cs),
(802,1442,o),
(858,1336,o),
(858,1139,cs),
(858,960,o),
(808,796,o),
(639,796,cs),
(601,796,o),
(563,796,o),
(530,800,c)
);
},
{
closed = 1;
nodes = (
(530,735,l),
(563,737,o),
(607,740,o),
(657,740,cs),
(847,740,o),
(918,648,o),
(918,421,cs),
(918,198,o),
(854,49,o),
(662,49,cs),
(612,49,o),
(558,55,o),
(530,68,c)
);
}
);
width = 1346;
},
{
anchors = (
{
name = bottom;
pos = (582,0);
},
{
name = center;
pos = (582,743);
},
{
name = top;
pos = (582,1486);
}
);
background = {
shapes = (
{
closed = 1;
nodes = (
(24,36,l),
(24,0,l),
(248,0,ls),
(319,0,o),
(459,-12,o),
(516,-12,cs),
(978,-12,o),
(1125,204,o),
(1125,435,cs),
(1125,632,o),
(958,776,o),
(724,768,c),
(918,806,o),
(1024,965,o),
(1024,1145,cs),
(1024,1329,o),
(909,1502,o),
(528,1502,cs),
(428,1502,o),
(376,1486,o),
(256,1486,cs),
(174,1486,l),
(161,1457,l),
(174,1435,l),
(174,67,l)
);
},
{
closed = 1;
nodes = (
(333,1438,l),
(375,1442,o),
(417,1453,o),
(521,1453,cs),
(766,1453,o),
(863,1360,o),
(863,1129,cs),
(863,922,o),
(769,797,o),
(581,797,cs),
(526,797,o),
(398,795,o),
(332,799,c)
);
},
{
closed = 1;
nodes = (
(332,734,l),
(397,739,o),
(525,738,o),
(602,738,cs),
(832,738,o),
(948,621,o),
(948,415,cs),
(948,206,o),
(872,37,o),
(537,37,cs),
(463,37,o),
(387,46,o),
(331,63,c)
);
}
);
};
layerId = "C9B9556E-C2FD-4F62-BB40-44923C452C22";
shapes = (
{
closed = 1;
nodes = (
(24,36,l),
(24,0,l),
(248,0,ls),
(319,0,o),
(459,-12,o),
(516,-12,cs),
(978,-12,o),
(1125,204,o),
(1125,435,cs),
(1125,632,o),
(958,788,o),
(724,780,c),
(918,818,o),
(1024,965,o),
(1024,1145,cs),
(1024,1329,o),
(909,1502,o),
(528,1502,cs),
(428,1502,o),
(376,1486,o),
(256,1486,cs),
(25,1486,l),
(25,1450,l),
(174,1420,l),
(174,67,l)
);
},
{
closed = 1;
nodes = (
(333,1438,l),
(375,1442,o),
(417,1453,o),
(521,1453,cs),
(766,1453,o),
(863,1360,o),
(863,1129,cs),
(863,922,o),
(769,797,o),
(581,797,cs),
(526,797,o),
(398,795,o),
(332,799,c)
);
},
{
closed = 1;
nodes = (
(332,734,l),
(397,739,o),
(525,738,o),
(602,738,cs),
(832,738,o),
(948,621,o),
(948,415,cs),
(948,206,o),
(872,37,o),
(537,37,cs),
(463,37,o),
(387,46,o),
(331,63,c)
);
}
);
width = 1164;
},
{
anchors = (
{
name = bottom;
pos = (721,0);
},
{
name = center;
pos = (721,743);
},
{
name = top;
pos = (721,1486);
}
);
layerId = "AFA1064D-EFC9-4C9F-B9B0-9118E41D87C4";
shapes = (
{
closed = 1;
nodes = (
(20,38,l),
(20,0,l),
(333,0,ls),
(491,0,o),
(559,-12,o),
(714,-12,cs),
(1262,-12,o),
(1422,195,o),
(1422,449,cs),
(1422,669,o),
(1240,795,o),
(978,794,c),
(1159,821,o),
(1298,957,o),
(1298,1161,cs),
(1298,1369,o),
(1164,1500,o),
(700,1500,cs),
(583,1500,o),
(477,1486,o),
(331,1486,cs),
(22,1486,l),
(22,1450,l),
(151,1412,l),
(151,72,l)
);
},
{
closed = 1;
nodes = (
(546,1424,l),
(577,1428,o),
(607,1436,o),
(671,1436,cs),
(842,1436,o),
(906,1332,o),
(906,1137,cs),
(906,957,o),
(850,798,o),
(678,798,cs),
(616,798,o),
(590,800,o),
(546,804,c)
);
},
{
closed = 1;
nodes = (
(546,724,l),
(586,726,o),
(628,731,o),
(703,731,cs),
(906,731,o),
(988,645,o),
(988,420,cs),
(988,200,o),
(910,54,o),
(691,54,cs),
(617,54,o),
(584,59,o),
(546,72,c)
);
}
);
width = 1442;
},
{
anchors = (
{
name = bottom;
pos = (619,0);
},
{
name = center;
pos = (619,743);
},
{
name = top;
pos = (619,1486);
}
);
layerId = "2103F1D3-C390-4F79-A87D-298F85EA6916";
shapes = (
{
closed = 1;
nodes = (
(25,36,l),
(25,0,l),
(249,0,ls),
(426,0,o),
(462,-12,o),
(564,-12,cs),
(1016,-12,o),
(1193,204,o),
(1189,435,cs),
(1186,632,o),
(1005,783,o),
(777,782,c),
(971,820,o),
(1101,982,o),
(1097,1162,cs),
(1092,1377,o),
(928,1502,o),
(606,1502,cs),
(502,1502,o),
(430,1486,o),
(257,1486,cs),
(26,1486,l),
(26,1450,l),
(165,1420,l),
(165,67,l)
);
},
{
closed = 1;
nodes = (
(327,1438,l),
(422,1446,o),
(471,1453,o),
(579,1453,cs),
(823,1453,o),
(914,1360,o),
(919,1155,cs),
(925,922,o),
(822,797,o),
(604,797,cs),
(549,797,o),
(392,795,o),
(326,799,c)
);
},
{
closed = 1;
nodes = (
(326,734,l),
(391,739,o),
(548,738,o),
(625,738,cs),
(885,738,o),
(1004,621,o),
(1009,415,cs),
(1014,206,o),
(910,37,o),
(585,37,cs),
(507,37,o),
(420,34,o),
(325,63,c)
);
}
);
width = 1237;
},
{
anchors = (
{
name = bottom;
pos = (685,0);
},
{
name = center;
pos = (685,743);
},
{
name = top;
pos = (685,1486);
}
);
layerId = "779F1615-9D1A-4778-9767-9A030AA58B6C";
shapes = (
{
closed = 1;
nodes = (
(69,86,l),
(69,0,l),
(312,0,ls),
(466,0,o),
(572,-12,o),
(670,-12,cs),
(1132,-12,o),
(1308,210,o),
(1308,444,cs),
(1308,656,o),
(1160,800,o),
(906,792,c),
(1100,830,o),
(1194,986,o),
(1194,1166,cs),
(1194,1376,o),
(1022,1502,o),
(664,1502,cs),
(564,1502,o),
(440,1486,o),
(320,1486,cs),
(73,1486,l),
(73,1400,l),
(238,1378,l),
(238,104,l)
);
},
{
closed = 1;
nodes = (
(402,1398,l),
(442,1398,o),
(544,1410,o),
(642,1410,cs),
(908,1410,o),
(1028,1314,o),
(1028,1128,cs),
(1028,932,o),
(926,824,o),
(724,824,cs),
(672,824,o),
(464,822,o),
(402,826,c)
);
},
{
closed = 1;
nodes = (
(402,718,l),
(462,722,o),
(692,720,o),
(764,720,cs),
(1022,720,o),
(1128,626,o),
(1128,414,cs),
(1128,210,o),
(978,84,o),
(668,84,cs),
(600,84,o),
(454,84,o),
(402,100,c)
);
}
);
userData = {
com.schriftgestaltung.Glyphs.lastChange = "2019-04-25 21:50:43 +0000";
};
width = 1370;
},
{
anchors = (
{
name = bottom;
pos = (754,0);
},
{
name = center;
pos = (754,743);
},
{
name = top;
pos = (754,1486);
}
);
layerId = "97BB7961-D669-43AB-8BBF-11FFD0C46A4B";
shapes = (
{
closed = 1;
nodes = (
(78,132,l),
(78,0,l),
(415,0,ls),
(519,0,o),
(611,-12,o),
(820,-12,cs),
(1313,-12,o),
(1488,192,o),
(1488,450,cs),
(1488,672,o),
(1320,794,o),
(1041,794,c),
(1239,820,o),
(1392,954,o),
(1392,1160,cs),
(1392,1368,o),
(1238,1500,o),
(751,1500,cs),
(643,1500,o),
(511,1486,o),
(411,1486,cs),
(79,1486,l),
(79,1346,l),
(225,1318,l),
(225,154,l)
);
},
{
closed = 1;
nodes = (
(577,1358,l),
(603,1362,o),
(720,1368,o),
(751,1368,cs),
(934,1368,o),
(1004,1292,o),
(1004,1126,cs),
(1004,952,o),
(941,840,o),
(775,840,cs),
(726,840,o),
(613,840,o),
(577,844,c)
);
},
{
closed = 1;
nodes = (
(577,686,l),
(613,688,o),
(734,690,o),
(796,690,cs),
(983,690,o),
(1069,622,o),
(1069,430,cs),
(1069,242,o),
(991,126,o),
(771,126,cs),
(716,126,o),
(607,130,o),
(577,142,c)
);
}
);
width = 1508;
}
);
metricLeft = H;
unicode = 66;
}
{
color = 4;
glyphname = E;
kernLeft = H;
kernRight = E;
layers = (
{
anchors = (
{
name = bottom;
pos = (623,0);
},
{
name = ogonek;
pos = (1121,10);
},
{
name = top;
pos = (623,1486);
},
{
name = topleft;
pos = (20,1486);
}
);
layerId = UUID0;
shapes = (
{
closed = 1;
nodes = (
(79,86,l),
(79,0,l),
(1163,0,l),
(1225,338,l),
(1129,368,l),
(1027,118,l),
(415,102,l),
(415,718,l),
(783,712,l),
(809,542,l),
(909,542,l),
(909,984,l),
(809,984,l),
(783,818,l),
(415,812,l),
(415,1394,l),
(951,1384,l),
(1005,1192,l),
(1101,1192,l),
(1073,1486,l),
(83,1486,l),
(83,1400,l),
(251,1378,l),
(251,104,l)
);
}
);
width = 1246;
},
{
anchors = (
{
name = bottom;
pos = (664,0);
},
{
name = ogonek;
pos = (1194,10);
},
{
name = top;
pos = (664,1486);
},
{
name = topleft;
pos = (20,1486);
}
);
layerId = "DEBB1CE4-A72D-4960-969E-E04A036D2FA1";
shapes = (
{
closed = 1;
nodes = (
(82,132,l),
(82,0,l),
(1259,0,l),
(1306,376,l),
(1136,424,l),
(1015,165,l),
(581,138,l),
(581,691,l),
(823,686,l),
(856,511,l),
(995,511,l),
(995,1012,l),
(856,1012,l),
(821,849,l),
(581,843,l),
(581,1354,l),
(972,1334,l),
(1040,1133,l),
(1199,1133,l),
(1172,1486,l),
(79,1486,l),
(79,1347,l),
(235,1319,l),
(235,153,l)
);
}
);
width = 1327;
},
{
anchors = (
{
name = bottom;
pos = (636,0);
},
{
name = ogonek;
pos = (1144,10);
},
{
name = top;
pos = (636,1486);
},
{
name = topleft;
pos = (20,1486);
}
);
layerId = "184155C8-9F61-4F1C-9784-DDA8EA717636";
shapes = (
{
closed = 1;
nodes = (
(18,37,l),
(18,0,l),
(1154,0,l),
(1249,438,l),
(1117,466,l),
(938,120,l),
(533,59,l),
(533,735,l),
(748,728,l),
(834,462,l),
(882,462,l),
(882,1043,l),
(834,1043,l),
(748,794,l),
(533,787,l),
(533,1427,l),
(914,1389,l),
(1051,1108,l),
(1178,1108,l),
(1144,1486,l),
(19,1486,l),
(19,1450,l),
(152,1412,l),
(152,78,l)
);
}
);
width = 1271;
},
{
anchors = (
{
name = bottom;
pos = (579,0);
},
{
name = ogonek;
pos = (1042,10);
},
{
name = top;
pos = (579,1486);
},
{
name = topleft;
pos = (20,1486);
}
);
layerId = "C9B9556E-C2FD-4F62-BB40-44923C452C22";
shapes = (
{
closed = 1;
nodes = (
(24,36,l),
(24,0,l),
(1056,0,l),
(1118,338,l),
(1046,362,l),
(924,73,l),
(321,48,l),
(321,741,l),
(702,722,l),
(738,542,l),
(792,542,l),
(792,984,l),
(738,984,l),
(702,808,l),
(321,786,l),
(321,1435,l),
(837,1422,l),
(928,1192,l),
(994,1192,l),
(966,1486,l),
(25,1486,l),
(25,1450,l),
(165,1420,l),
(165,67,l)
);
}
);
width = 1158;
},
{
anchors = (
{
name = bottom;
pos = (661,0);
},
{
name = ogonek;
pos = (1189,10);
},
{
name = top;
pos = (661,1486);
},
{
name = topleft;
pos = (20,1486);
}
);
layerId = "AFA1064D-EFC9-4C9F-B9B0-9118E41D87C4";
shapes = (
{
closed = 1;
nodes = (
(8,37,l),
(8,0,l),
(1228,0,l),
(1305,422,l),
(1149,462,l),
(997,119,l),
(529,50,l),
(529,735,l),
(775,728,l),
(879,462,l),
(931,462,l),
(931,1043,l),
(879,1043,l),
(775,794,l),
(529,788,l),
(529,1433,l),
(958,1393,l),
(1088,1113,l),
(1227,1113,l),
(1199,1486,l),
(9,1486,l),
(9,1450,l),
(142,1412,l),
(142,73,l)
);
}
);
width = 1321;
},
{
anchors = (
{
name = bottom;
pos = (618,0);
},
{
name = ogonek;
pos = (1112,10);
},
{
name = top;
pos = (618,1486);
},
{
name = topleft;
pos = (20,1486);
}
);
layerId = "2103F1D3-C390-4F79-A87D-298F85EA6916";
shapes = (
{
closed = 1;
nodes = (
(28,36,l),
(28,0,l),
(1136,0,l),
(1198,338,l),
(1122,362,l),
(1000,73,l),
(329,48,l),
(329,741,l),
(779,722,l),
(827,542,l),
(881,542,l),
(881,984,l),
(827,984,l),
(779,808,l),
(329,786,l),
(329,1435,l),
(922,1422,l),
(1013,1192,l),
(1083,1192,l),
(1055,1486,l),
(29,1486,l),
(29,1450,l),
(169,1420,l),
(169,67,l)
);
}
);
width = 1236;
},
{
anchors = (
{
name = bottom;
pos = (670,0);
},
{
name = ogonek;
pos = (1205,10);
},
{
name = top;
pos = (670,1486);
},
{
name = topleft;
pos = (20,1486);
}
);
layerId = "779F1615-9D1A-4778-9767-9A030AA58B6C";
shapes = (
{
closed = 1;
nodes = (
(69,86,l),
(69,0,l),
(1242,0,l),
(1318,338,l),
(1217,368,l),
(1100,118,l),
(438,102,l),
(438,718,l),
(834,712,l),
(863,542,l),
(974,542,l),
(974,984,l),
(863,984,l),
(834,818,l),
(438,812,l),
(438,1394,l),
(1035,1384,l),
(1096,1192,l),
(1199,1192,l),
(1166,1486,l),
(75,1486,l),
(75,1400,l),
(275,1378,l),
(275,104,l)
);
}
);
userData = {
com.schriftgestaltung.Glyphs.lastChange = "2019-04-25 21:50:43 +0000";
};
width = 1339;
},
{
anchors = (
{
name = bottom;
pos = (716,0);
},
{
name = ogonek;
pos = (1288,10);
},
{
name = top;
pos = (716,1486);
},
{
name = topleft;
pos = (20,1486);
}
);
layerId = "97BB7961-D669-43AB-8BBF-11FFD0C46A4B";
shapes = (
{
closed = 1;
nodes = (
(78,132,l),
(78,0,l),
(1359,0,l),
(1406,376,l),
(1201,424,l),
(1100,165,l),
(611,138,l),
(611,690,l),
(891,685,l),
(934,510,l),
(1091,510,l),
(1091,1011,l),
(934,1011,l),
(889,848,l),
(611,842,l),
(611,1354,l),
(1050,1334,l),
(1118,1133,l),
(1304,1133,l),
(1277,1486,l),
(78,1486,l),
(78,1347,l),
(225,1319,l),
(225,153,l)
);
}
);
width = 1431;
}
);
unicode = 69;
}
{
color = 4;
glyphname = F;
kernLeft = H;
kernRight = F;
layers = (
{
anchors = (
{
name = bottom;
pos = (609,0);
},
{
name = top;
pos = (609,1486);
}
);
layerId = UUID0;
shapes = (
{
closed = 1;
nodes = (
(91,86,l),
(91,0,l),
(733,0,l),
(733,86,l),
(419,104,l),
(419,706,l),
(819,698,l),
(853,528,l),
(945,528,l),
(945,970,l),
(853,970,l),
(819,808,l),
(419,802,l),
(419,1394,l),
(982,1384,l),
(1038,1158,l),
(1147,1158,l),
(1127,1486,l),
(79,1486,l),
(79,1400,l),
(255,1378,l),
(255,104,l)
);
}
);
width = 1217;
},
{
anchors = (
{
name = bottom;
pos = (632,0);
},
{
name = top;
pos = (632,1486);
}
);
layerId = "DEBB1CE4-A72D-4960-969E-E04A036D2FA1";
shapes = (
{
closed = 1;
nodes = (
(88,132,l),
(88,0,l),
(887,0,l),
(887,132,l),
(582,154,l),
(582,645,l),
(843,637,l),
(884,453,l),
(1023,453,l),
(1023,986,l),
(883,986,l),
(843,807,l),
(582,801,l),
(582,1354,l),
(965,1329,l),
(1046,1112,l),
(1225,1112,l),
(1204,1486,l),
(79,1486,l),
(79,1347,l),
(239,1319,l),
(239,154,l)
);
}
);
width = 1264;
},
{
anchors = (
{
name = bottom;
pos = (586,0);
},
{
name = top;
pos = (586,1486);
}
);
layerId = "184155C8-9F61-4F1C-9784-DDA8EA717636";
shapes = (
{
closed = 1;
nodes = (
(18,38,l),
(18,0,l),
(750,0,l),
(750,38,l),
(533,72,l),
(533,711,l),
(751,704,l),
(834,438,l),
(882,438,l),
(882,1019,l),
(835,1019,l),
(751,770,l),
(533,763,l),
(533,1426,l),
(865,1389,l),
(994,1088,l),
(1127,1088,l),
(1098,1486,l),
(19,1486,l),
(19,1450,l),
(152,1412,l),
(152,72,l)
);
}
);
width = 1172;
},
{
anchors = (
{
name = bottom;
pos = (522,0);
},
{
name = top;
pos = (522,1486);
}
);
layerId = "C9B9556E-C2FD-4F62-BB40-44923C452C22";
shapes = (
{
closed = 1;
nodes = (
(24,36,l),
(24,0,l),
(528,0,l),
(528,36,l),
(321,67,l),
(321,735,l),
(703,722,l),
(738,542,l),
(792,542,l),
(792,984,l),
(738,984,l),
(703,808,l),
(321,792,l),
(321,1433,l),
(849,1422,l),
(937,1192,l),
(1004,1192,l),
(977,1486,l),
(25,1486,l),
(25,1450,l),
(165,1420,l),
(165,67,l)
);
}
);
width = 1044;
},
{
anchors = (
{
name = bottom;
pos = (632,0);
},
{
name = top;
pos = (632,1486);
}
);
layerId = "AFA1064D-EFC9-4C9F-B9B0-9118E41D87C4";
shapes = (
{
closed = 1;
nodes = (
(20,38,l),
(20,0,l),
(723,0,l),
(723,38,l),
(541,72,l),
(541,711,l),
(818,704,l),
(920,438,l),
(973,438,l),
(973,1019,l),
(921,1019,l),
(818,770,l),
(541,763,l),
(541,1426,l),
(952,1389,l),
(1084,1088,l),
(1219,1088,l),
(1190,1486,l),
(21,1486,l),
(21,1450,l),
(154,1412,l),
(154,72,l)
);
}
);
width = 1264;
},
{
anchors = (
{
name = bottom;
pos = (564,0);
},
{
name = top;
pos = (564,1486);
}
);
layerId = "2103F1D3-C390-4F79-A87D-298F85EA6916";
shapes = (
{
closed = 1;
nodes = (
(25,36,l),
(25,0,l),
(569,0,l),
(569,36,l),
(322,67,l),
(322,735,l),
(754,722,l),
(789,542,l),
(843,542,l),
(843,984,l),
(789,984,l),
(754,808,l),
(322,792,l),
(322,1433,l),
(930,1422,l),
(1018,1192,l),
(1085,1192,l),
(1058,1486,l),
(26,1486,l),
(26,1450,l),
(166,1420,l),
(166,67,l)
);
}
);
width = 1127;
},
{
anchors = (
{
name = bottom;
pos = (634,0);
},
{
name = top;
pos = (634,1486);
}
);
layerId = "779F1615-9D1A-4778-9767-9A030AA58B6C";
shapes = (
{
closed = 1;
nodes = (
(81,86,l),
(81,0,l),
(722,0,l),
(722,86,l),
(437,104,l),
(437,706,l),
(832,698,l),
(866,528,l),
(958,528,l),
(958,970,l),
(866,970,l),
(832,808,l),
(437,802,l),
(437,1394,l),
(1042,1384,l),
(1097,1158,l),
(1207,1158,l),
(1187,1486,l),
(69,1486,l),
(69,1400,l),
(273,1378,l),
(273,104,l)
);
}
);
userData = {
com.schriftgestaltung.Glyphs.lastChange = "2019-04-25 21:50:43 +0000";
};
width = 1267;
},
{
anchors = (
{
name = bottom;
pos = (662,0);
},
{
name = top;
pos = (662,1486);
}
);
layerId = "97BB7961-D669-43AB-8BBF-11FFD0C46A4B";
shapes = (
{
closed = 1;
nodes = (
(78,132,l),
(78,0,l),
(862,0,l),
(862,132,l),
(577,154,l),
(577,635,l),
(896,627,l),
(937,443,l),
(1090,443,l),
(1090,976,l),
(936,976,l),
(896,797,l),
(577,791,l),
(577,1354,l),
(1032,1329,l),
(1121,1092,l),
(1300,1092,l),
(1271,1486,l),
(78,1486,l),
(78,1347,l),
(225,1319,l),
(225,154,l)
);
}
);
width = 1324;
}
);
metricLeft = H;
unicode = 70;
}
{
color = 4;
glyphname = G;
kernLeft = O;
kernRight = G;
layers = (
{
anchors = (
{
name = bottom;
pos = (741,0);
},
{
name = hook;
pos = (1259,1108);
},
{
name = rstem;
pos = (1258,380);
},
{
name = top;
pos = (751,1486);
}
);
layerId = UUID0;
shapes = (
{
closed = 1;
nodes = (
(999,-22,o),
(1155,76,o),
(1291,80,c),
(1291,622,l),
(1413,642,l),
(1413,748,l),
(845,748,l),
(845,642,l),
(1123,622,l),
(1123,166,l),
(1021,110,o),
(885,71,o),
(743,71,cs),
(365,71,o),
(241,418,o),
(241,770,cs),
(241,1192,o),
(435,1406,o),
(775,1406,cs),
(963,1406,o),
(1081,1362,o),
(1111,1338,c),
(1155,1108,l),
(1259,1108,l),
(1275,1440,l),
(1207,1445,o),
(999,1502,o),
(793,1502,cs),
(345,1502,o),
(53,1220,o),
(53,718,cs),
(53,306,o),
(287,-22,o),
(731,-22,cs)
);
}
);
width = 1441;
},
{
anchors = (
{
name = bottom;
pos = (772,0);
},
{
name = hook;
pos = (1310,1056);
},
{
name = rstem;
pos = (1288,380);
},
{
name = top;
pos = (772,1486);
}
);
layerId = "DEBB1CE4-A72D-4960-969E-E04A036D2FA1";
shapes = (
{
closed = 1;
nodes = (
(1030,-22,o),
(1240,76,o),
(1346,80,c),
(1346,606,l),
(1446,623,l),
(1446,767,l),
(824,767,l),
(824,623,l),
(1010,601,l),
(1010,184,l),
(970,145,o),
(886,117,o),
(790,117,cs),
(544,117,o),
(448,385,o),
(448,758,cs),
(448,1159,o),
(584,1371,o),
(820,1371,cs),
(939,1371,o),
(995,1340,o),
(1013,1320,c),
(1069,1056,l),
(1310,1056,l),
(1333,1443,l),
(1262,1450,o),
(1040,1505,o),
(828,1505,cs),
(348,1505,o),
(50,1232,o),
(50,730,cs),
(50,305,o),
(300,-22,o),
(759,-22,cs)
);
}
);
width = 1464;
},
{
anchors = (
{
name = bottom;
pos = (737,0);
},
{
name = hook;
pos = (1245,1006);
},
{
name = rstem;
pos = (1278,380);
},
{
name = top;
pos = (737,1486);
}
);
layerId = "184155C8-9F61-4F1C-9784-DDA8EA717636";
shapes = (
{
closed = 1;
nodes = (
(1074,-22,o),
(1123,80,o),
(1315,80,c),
(1315,621,l),
(1399,641,l),
(1399,694,l),
(797,694,l),
(797,641,l),
(973,621,l),
(973,184,l),
(943,88,o),
(846,36,o),
(741,36,cs),
(519,36,o),
(460,385,o),
(462,758,cs),
(464,1245,o),
(540,1447,o),
(719,1447,cs),
(913,1447,o),
(957,1381,o),
(967,1316,c),
(1019,1006,l),
(1245,1006,l),
(1299,1437,l),
(1109,1437,o),
(1031,1507,o),
(743,1507,cs),
(289,1507,o),
(30,1213,o),
(30,734,cs),
(30,289,o),
(238,-22,o),
(712,-22,cs)
);
}
);
width = 1414;
},
{
anchors = (
{
name = bottom;
pos = (688,0);
},
{
name = hook;
pos = (1149,1108);
},
{
name = rstem;
pos = (1148,380);
},
{
name = top;
pos = (718,1486);
}
);
layerId = "C9B9556E-C2FD-4F62-BB40-44923C452C22";
shapes = (
{
closed = 1;
nodes = (
(971,-20,o),
(1081,76,o),
(1179,80,c),
(1179,629,l),
(1301,650,l),
(1301,718,l),
(784,718,l),
(784,650,l),
(1028,629,l),
(1028,121,l),
(958,74,o),
(844,31,o),
(722,31,cs),
(333,31,o),
(210,399,o),
(210,751,cs),
(210,1178,o),
(406,1452,o),
(773,1452,cs),
(891,1452,o),
(977,1416,o),
(1014,1384,c),
(1058,1108,l),
(1149,1108,l),
(1164,1438,l),
(1094,1438,o),
(999,1502,o),
(747,1502,cs),
(336,1502,o),
(40,1181,o),
(40,724,cs),
(40,323,o),
(262,-20,o),
(678,-20,cs)
);
}
);
width = 1316;
},
{
anchors = (
{
name = bottom;
pos = (758,0);
},
{
name = hook;
pos = (1309,1006);
},
{
name = rstem;
pos = (1318,380);
},
{
name = top;
pos = (768,1486);
}
);
layerId = "AFA1064D-EFC9-4C9F-B9B0-9118E41D87C4";
shapes = (
{
closed = 1;
nodes = (
(1130,-22,o),
(1169,80,o),
(1361,80,c),
(1361,621,l),
(1445,641,l),
(1445,694,l),
(843,694,l),
(843,641,l),
(1001,621,l),
(1001,184,l),
(971,88,o),
(884,36,o),
(797,36,cs),
(551,36,o),
(451,385,o),
(453,758,cs),
(455,1245,o),
(571,1452,o),
(794,1452,cs),
(968,1452,o),
(1003,1386,o),
(1013,1321,c),
(1065,1006,l),
(1309,1006,l),
(1363,1442,l),
(1135,1442,o),
(1116,1512,o),
(798,1512,cs),
(320,1512,o),
(20,1213,o),
(20,734,cs),
(20,289,o),
(270,-22,o),
(768,-22,cs)
);
}
);
width = 1455;
},
{
anchors = (
{
name = bottom;
pos = (731,0);
},
{
name = hook;
pos = (1250,1108);
},
{
name = rstem;
pos = (1248,380);
},
{
name = top;
pos = (751,1486);
}
);
layerId = "2103F1D3-C390-4F79-A87D-298F85EA6916";
shapes = (
{
closed = 1;
nodes = (
(996,-20,o),
(1181,76,o),
(1279,80,c),
(1279,664,l),
(1373,685,l),
(1373,748,l),
(829,748,l),
(829,685,l),
(1119,664,l),
(1119,121,l),
(1071,74,o),
(869,31,o),
(747,31,cs),
(371,31,o),
(213,399,o),
(213,751,cs),
(213,1178,o),
(444,1452,o),
(779,1452,cs),
(908,1452,o),
(1097,1409,o),
(1111,1384,c),
(1160,1108,l),
(1249,1108,l),
(1264,1440,l),
(1196,1440,o),
(1041,1502,o),
(772,1502,cs),
(361,1502,o),
(35,1181,o),
(35,724,cs),
(35,323,o),
(287,-20,o),
(703,-20,cs)
);
}
);
width = 1421;
},
{
anchors = (
{
name = bottom;
pos = (785,0);
},
{
name = hook;
pos = (1342,1109);
},
{
name = rstem;
pos = (1338,380);
},
{
name = top;
pos = (825,1486);
}
);
layerId = "779F1615-9D1A-4778-9767-9A030AA58B6C";
shapes = (
{
closed = 1;
nodes = (
(1092,-22,o),
(1268,76,o),
(1374,80,c),
(1374,622,l),
(1496,642,l),
(1496,748,l),
(908,748,l),
(908,642,l),
(1206,622,l),
(1206,166,l),
(1134,110,o),
(978,71,o),
(816,71,cs),
(448,71,o),
(269,418,o),
(269,770,cs),
(269,1192,o),
(518,1406,o),
(840,1406,cs),
(1056,1406,o),
(1164,1362,o),
(1194,1338,c),
(1238,1108,l),
(1342,1108,l),
(1358,1440,l),
(1290,1456,o),
(1112,1502,o),
(858,1502,cs),
(428,1502,o),
(96,1220,o),
(96,718,cs),
(96,306,o),
(370,-22,o),
(804,-22,cs)
);
}
);
userData = {
com.schriftgestaltung.Glyphs.lastChange = "2019-04-25 21:50:43 +0000";
};
width = 1529;
},
{
anchors = (
{
name = bottom;
pos = (801,0);
},
{
name = hook;
pos = (1356,1056);
},
{
name = rstem;
pos = (1348,380);
},
{
name = top;
pos = (811,1486);
}
);
layerId = "97BB7961-D669-43AB-8BBF-11FFD0C46A4B";
shapes = (
{
closed = 1;
nodes = (
(1060,-22,o),
(1283,76,o),
(1395,80,c),
(1395,606,l),
(1491,623,l),
(1491,767,l),
(841,767,l),
(841,623,l),
(1049,601,l),
(1049,184,l),
(1006,145,o),
(907,117,o),
(795,117,cs),
(534,117,o),
(452,385,o),
(452,758,cs),
(452,1159,o),
(597,1371,o),
(847,1371,cs),
(983,1371,o),
(1023,1340,o),
(1042,1320,c),
(1101,1056,l),
(1357,1056,l),
(1382,1443,l),
(1284,1443,o),
(1065,1505,o),
(856,1505,cs),
(346,1505,o),
(30,1232,o),
(30,730,cs),
(30,305,o),
(295,-22,o),
(762,-22,cs)
);
}
);
width = 1501;
}
);
unicode = 71;
}
{
color = 4;
glyphname = I;
kernLeft = H;
kernRight = H;
layers = (
{
anchors = (
{
name = bottom;
pos = (356,0);
},
{
name = center;
pos = (353,790);
},
{
name = ogonek;
pos = (640,10);
},
{
name = top;
pos = (356,1486);
},
{
name = topleft;
pos = (20,1486);
}
);
layerId = UUID0;
shapes = (
{
closed = 1;
nodes = (
(79,86,l),
(79,0,l),
(632,0,l),
(632,84,l),
(438,104,l),
(438,1378,l),
(632,1400,l),
(632,1486,l),
(79,1486,l),
(79,1400,l),
(273,1378,l),
(273,104,l)
);
}
);
width = 711;
},
{
anchors = (
{
name = bottom;
pos = (416,0);
},
{
name = center;
pos = (413,790);
},
{
name = ogonek;
pos = (749,10);
},
{
name = top;
pos = (416,1486);
},
{
name = topleft;
pos = (20,1486);
}
);
layerId = "DEBB1CE4-A72D-4960-969E-E04A036D2FA1";
shapes = (
{
closed = 1;
nodes = (
(81,132,l),
(81,0,l),
(753,0,l),
(753,130,l),
(585,153,l),
(585,1319,l),
(753,1347,l),
(753,1486,l),
(79,1486,l),
(79,1347,l),
(242,1319,l),
(242,154,l)
);
}
);
width = 832;
},
{
anchors = (
{
name = bottom;
pos = (358,0);
},
{
name = center;
pos = (361,790);
},
{
name = ogonek;
pos = (644,10);
},
{
name = top;
pos = (358,1486);
},
{
name = topleft;
pos = (20,1486);
}
);
layerId = "184155C8-9F61-4F1C-9784-DDA8EA717636";
shapes = (
{
closed = 1;
nodes = (
(22,38,l),
(22,0,l),
(694,0,l),
(694,38,l),
(550,72,l),
(550,1412,l),
(693,1450,l),
(693,1486,l),
(23,1486,l),
(23,1450,l),
(166,1412,l),
(166,72,l)
);
}
);
width = 716;
},
{
anchors = (
{
name = bottom;
pos = (254,0);
},
{
name = center;
pos = (258,790);
},
{
name = ogonek;
pos = (456,10);
},
{
name = top;
pos = (254,1486);
},
{
name = topleft;
pos = (20,1486);
}
);
guides = (
{
angle = 270;
pos = (41,1370);
},
{
angle = 270;
pos = (466,1329);
}
);
layerId = "C9B9556E-C2FD-4F62-BB40-44923C452C22";
shapes = (
{
closed = 1;
nodes = (
(40,36,l),
(40,0,l),
(467,0,l),
(467,36,l),
(331,67,l),
(331,1420,l),
(467,1450,l),
(467,1486,l),
(40,1486,l),
(40,1450,l),
(177,1420,l),
(177,67,l)
);
}
);
width = 507;
},
{
anchors = (
{
name = bottom;
pos = (356,0);
},
{
name = center;
pos = (353,790);
},
{
name = ogonek;
pos = (641,10);
},
{
name = top;
pos = (356,1486);
},
{
name = topleft;
pos = (20,1486);
}
);
layerId = "AFA1064D-EFC9-4C9F-B9B0-9118E41D87C4";
shapes = (
{
closed = 1;
nodes = (
(20,39,l),
(20,0,l),
(692,0,l),
(692,38,l),
(557,72,l),
(557,1412,l),
(691,1450,l),
(691,1486,l),
(21,1486,l),
(21,1450,l),
(152,1412,l),
(152,72,l)
);
}
);
width = 712;
},
{
anchors = (
{
name = bottom;
pos = (248,0);
},
{
name = center;
pos = (248,790);
},
{
name = ogonek;
pos = (446,10);
},
{
name = top;
pos = (248,1486);
},
{
name = topleft;
pos = (20,1486);
}
);
guides = (
{
angle = 270;
pos = (32,1370);
},
{
angle = 270;
pos = (457,1329);
}
);
layerId = "2103F1D3-C390-4F79-A87D-298F85EA6916";
shapes = (
{
closed = 1;
nodes = (
(28,36,l),
(28,0,l),
(468,0,l),
(468,36,l),
(328,67,l),
(328,1420,l),
(468,1450,l),
(468,1486,l),
(29,1486,l),
(29,1450,l),
(168,1420,l),
(168,67,l)
);
}
);
width = 496;
},
{
anchors = (
{
name = bottom;
pos = (377,0);
},
{
name = center;
pos = (373,790);
},
{
name = ogonek;
pos = (679,10);
},
{
name = top;
pos = (377,1486);
},
{
name = topleft;
pos = (20,1486);
}
);
layerId = "779F1615-9D1A-4778-9767-9A030AA58B6C";
shapes = (
{
closed = 1;
nodes = (
(79,86,l),
(79,0,l),
(675,0,l),
(675,84,l),
(462,104,l),
(462,1378,l),
(675,1400,l),
(675,1486,l),
(79,1486,l),
(79,1400,l),
(293,1378,l),
(293,104,l)
);
}
);
userData = {
com.schriftgestaltung.Glyphs.lastChange = "2019-04-25 21:50:43 +0000";
};
width = 754;
},
{
anchors = (
{
name = bottom;
pos = (422,0);
},
{
name = center;
pos = (423,790);
},
{
name = ogonek;
pos = (759,10);
},
{
name = top;
pos = (422,1486);
},
{
name = topleft;
pos = (20,1486);
}
);
layerId = "97BB7961-D669-43AB-8BBF-11FFD0C46A4B";
shapes = (
{
closed = 1;
nodes = (
(80,132,l),
(80,0,l),
(765,0,l),
(765,130,l),
(597,153,l),
(597,1319,l),
(765,1347,l),
(765,1486,l),
(78,1486,l),
(78,1347,l),
(241,1319,l),
(241,154,l)
);
}
);
width = 843;
}
);
metricRight = "=|";
unicode = 73;
}
{
color = 4;
glyphname = J;
kernLeft = J;
kernRight = J;
layers = (
{
anchors = (
{
name = bottom;
pos = (356,0);
},
{
name = center;
pos = (368,791);
},
{
name = top;
pos = (369,1486);
}
);
layerId = UUID0;
shapes = (
{
closed = 1;
nodes = (
(22,-346,l),
(194,-314,o),
(384,-188,o),
(430,42,cs),
(455,166,o),
(450,328,o),
(450,550,cs),
(450,1376,l),
(642,1400,l),
(642,1486,l),
(84,1486,l),
(84,1400,l),
(286,1376,l),
(286,506,ls),
(286,208,o),
(282,96,o),
(246,-18,cs),
(204,-152,o),
(96,-242,o),
(-22,-274,c)
);
}
);
width = 711;
},
{
anchors = (
{
name = bottom;
pos = (416,0);
},
{
name = center;
pos = (417,791);
},
{
name = top;
pos = (416,1486);
}
);
layerId = "DEBB1CE4-A72D-4960-969E-E04A036D2FA1";
shapes = (
{
closed = 1;
nodes = (
(34,-387,l),
(316,-342,o),
(496,-184,o),
(556,29,cs),
(582,122,o),
(585,298,o),
(585,550,cs),
(585,1320,l),
(744,1347,l),
(744,1486,l),
(73,1486,l),
(73,1347,l),
(244,1318,l),
(244,382,ls),
(244,171,o),
(229,68,o),
(202,-12,cs),
(154,-155,o),
(50,-239,o),
(-43,-271,c)
);
}
);
width = 832;
},
{
anchors = (
{
name = bottom;
pos = (358,0);
},
{
name = center;
pos = (356,791);
},
{
name = top;
pos = (358,1486);
}
);
layerId = "184155C8-9F61-4F1C-9784-DDA8EA717636";
shapes = (
{
closed = 1;
nodes = (
(-23,-387,l),
(255,-357,o),
(457,-195,o),
(522,29,cs),
(549,122,o),
(551,298,o),
(551,550,cs),
(551,1412,l),
(692,1450,l),
(692,1486,l),
(25,1486,l),
(25,1450,l),
(168,1412,l),
(168,318,ls),
(168,107,o),
(153,-19,o),
(126,-99,cs),
(78,-242,o),
(44,-286,o),
(-55,-330,c)
);
}
);
width = 716;
},
{
anchors = (
{
name = bottom;
pos = (254,0);
},
{
name = center;
pos = (239,791);
},
{
name = top;
pos = (237,1486);
}
);
layerId = "C9B9556E-C2FD-4F62-BB40-44923C452C22";
shapes = (
{
closed = 1;
nodes = (
(-89,-346,l),
(83,-314,o),
(254,-170,o),
(294,38,cs),
(318,162,o),
(313,333,o),
(313,476,cs),
(313,1420,l),
(445,1450,l),
(445,1486,l),
(12,1486,l),
(12,1450,l),
(157,1420,l),
(157,506,ls),
(157,208,o),
(153,96,o),
(123,-18,cs),
(85,-164,o),
(-5,-269,o),
(-123,-301,c)
);
}
);
width = 507;
},
{
anchors = (
{
name = bottom;
pos = (356,0);
},
{
name = center;
pos = (356,791);
},
{
name = top;
pos = (356,1486);
}
);
layerId = "AFA1064D-EFC9-4C9F-B9B0-9118E41D87C4";
shapes = (
{
closed = 1;
nodes = (
(-41,-387,l),
(237,-357,o),
(452,-195,o),
(517,29,cs),
(544,122,o),
(554,298,o),
(554,550,cs),
(554,1412,l),
(689,1450,l),
(689,1486,l),
(17,1486,l),
(17,1450,l),
(153,1412,l),
(153,318,ls),
(153,107,o),
(138,-19,o),
(111,-99,cs),
(63,-242,o),
(26,-286,o),
(-73,-330,c)
);
}
);
width = 712;
},
{
anchors = (
{
name = bottom;
pos = (248,0);
},
{
name = center;
pos = (247,791);
},
{
name = top;
pos = (248,1486);
}
);
layerId = "2103F1D3-C390-4F79-A87D-298F85EA6916";
shapes = (
{
closed = 1;
nodes = (
(-74,-348,l),
(108,-314,o),
(266,-170,o),
(306,38,cs),
(330,162,o),
(325,333,o),
(325,476,cs),
(325,1420,l),
(460,1450,l),
(460,1486,l),
(23,1486,l),
(23,1450,l),
(165,1420,l),
(165,506,ls),
(165,208,o),
(161,96,o),
(131,-18,cs),
(93,-164,o),
(10,-269,o),
(-108,-301,c)
);
}
);
width = 496;
},
{
anchors = (
{
name = bottom;
pos = (377,0);
},
{
name = center;
pos = (381,791);
},
{
name = top;
pos = (382,1486);
}
);
layerId = "779F1615-9D1A-4778-9767-9A030AA58B6C";
shapes = (
{
closed = 1;
nodes = (
(34,-346,l),
(206,-314,o),
(389,-188,o),
(434,42,cs),
(458,166,o),
(464,328,o),
(464,550,cs),
(464,1376,l),
(654,1400,l),
(654,1486,l),
(96,1486,l),
(96,1400,l),
(296,1376,l),
(296,506,ls),
(296,208,o),
(292,96,o),
(256,-18,cs),
(214,-152,o),
(108,-242,o),
(-10,-274,c)
);
}
);
userData = {
com.schriftgestaltung.Glyphs.lastChange = "2019-04-25 21:50:43 +0000";
};
width = 754;
},
{
anchors = (
{
name = bottom;
pos = (422,0);
},
{
name = center;
pos = (429,791);
},
{
name = top;
pos = (428,1486);
}
);
layerId = "97BB7961-D669-43AB-8BBF-11FFD0C46A4B";
shapes = (
{
closed = 1;
nodes = (
(56,-387,l),
(338,-342,o),
(517,-184,o),
(577,29,cs),
(603,122,o),
(606,298,o),
(606,550,cs),
(606,1320,l),
(766,1347,l),
(766,1486,l),
(75,1486,l),
(75,1347,l),
(254,1318,l),
(254,382,ls),
(254,171,o),
(239,68,o),
(212,-12,cs),
(164,-155,o),
(72,-239,o),
(-21,-271,c)
);
}
);
width = 843;
}
);
metricWidth = I;
unicode = 74;
}
{
color = 4;
glyphname = K;
kernLeft = H;
kernRight = K;
layers = (
{
anchors = (
{
name = bottom;
pos = (701,0);
},
{
name = center;
pos = (340,1112);
},
{
name = top;
pos = (701,1486);
}
);
background = {
shapes = (
{
closed = 1;
nodes = (
(1399,0,l),
(1399,84,l),
(1305,106,l),
(1219,117,o),
(901,750,o),
(699,887,c),
(680,810,l),
(1189,1378,l),
(1335,1400,l),
(1335,1486,l),
(871,1486,l),
(871,1400,l),
(1041,1378,l),
(367,595,l),
(415,577,l),
(415,1378,l),
(587,1400,l),
(587,1486,l),
(83,1486,l),
(83,1400,l),
(251,1378,l),
(251,104,l),
(79,86,l),
(79,0,l),
(603,0,l),
(603,84,l),
(415,104,l),
(415,581,l),
(367,453,l),
(681,809,l),
(604,781,l),
(794,625,o),
(1050,0,o),
(1159,0,c)
);
}
);
};
layerId = UUID0;
shapes = (
{
closed = 1;
nodes = (
(603,0,l),
(603,84,l),
(415,104,l),
(415,508,l),
(633,755,l),
(819,565,o),
(1055,0,o),
(1159,0,c),
(1399,0,l),
(1399,84,l),
(1305,106,l),
(1223,116,o),
(930,691,o),
(728,864,c),
(1189,1378,l),
(1335,1400,l),
(1335,1486,l),
(871,1486,l),
(871,1400,l),
(1041,1378,l),
(415,651,l),
(415,1378,l),
(587,1400,l),
(587,1486,l),
(83,1486,l),
(83,1400,l),
(251,1378,l),
(251,104,l),
(79,86,l),
(79,0,l)
);
}
);
width = 1401;
},
{
anchors = (
{
name = bottom;
pos = (764,0);
},
{
name = center;
pos = (400,1112);
},
{
name = top;
pos = (764,1486);
}
);
background = {
shapes = (
{
closed = 1;
nodes = (
(1536,0,l),
(1536,131,l),
(1441,153,l),
(1357,202,o),
(1067,868,o),
(875,954,c),
(834,800,l),
(1294,1320,l),
(1470,1348,l),
(1470,1486,l),
(899,1486,l),
(899,1347,l),
(1062,1319,l),
(481,578,l),
(574,546,l),
(574,1319,l),
(722,1347,l),
(722,1486,l),
(80,1486,l),
(80,1347,l),
(233,1319,l),
(233,154,l),
(79,132,l),
(79,0,l),
(740,0,l),
(740,131,l),
(574,153,l),
(574,642,l),
(476,378,l),
(833,793,l),
(682,737,l),
(834,617,o),
(1045,0,o),
(1132,0,c)
);
}
);
};
layerId = "DEBB1CE4-A72D-4960-969E-E04A036D2FA1";
shapes = (
{
closed = 1;
nodes = (
(740,0,l),
(740,131,l),
(574,153,l),
(574,493,l),
(736,679,l),
(889,467,o),
(1055,0,o),
(1132,0,c),
(1536,0,l),
(1536,131,l),
(1441,153,l),
(1363,202,o),
(1121,744,o),
(934,913,c),
(1294,1320,l),
(1470,1348,l),
(1470,1486,l),
(899,1486,l),
(899,1347,l),
(1062,1319,l),
(574,696,l),
(574,1319,l),
(722,1347,l),
(722,1486,l),
(80,1486,l),
(80,1347,l),
(233,1319,l),
(233,154,l),
(79,132,l),
(79,0,l)
);
}
);
width = 1527;
},
{
anchors = (
{
name = bottom;
pos = (724,0);
},
{
name = center;
pos = (350,1112);
},
{
name = top;
pos = (724,1486);
}
);
background = {
shapes = (
{
closed = 1;
nodes = (
(1457,1,l),
(1457,39,l),
(1396,66,l),
(1264,236,o),
(975,943,o),
(872,995,c),
(776,853,l),
(1211,1409,l),
(1384,1447,l),
(1384,1487,l),
(920,1486,l),
(920,1449,l),
(1104,1412,l),
(455,519,l),
(535,612,l),
(535,1412,l),
(678,1450,l),
(678,1486,l),
(19,1486,l),
(19,1450,l),
(152,1412,l),
(152,71,l),
(18,38,l),
(18,0,l),
(678,0,l),
(678,38,l),
(535,71,l),
(535,557,l),
(450,417,l),
(726,792,l),
(631,688,l),
(709,612,o),
(896,0,o),
(984,0,c)
);
}
);
};
layerId = "184155C8-9F61-4F1C-9784-DDA8EA717636";
shapes = (
{
closed = 1;
nodes = (
(678,0,l),
(678,38,l),
(535,71,l),
(535,532,l),
(641,676,l),
(728,553,o),
(901,0,o),
(984,0,c),
(1457,1,l),
(1457,39,l),
(1396,66,l),
(1264,236,o),
(995,899,o),
(882,988,c),
(1211,1409,l),
(1384,1447,l),
(1384,1487,l),
(920,1486,l),
(920,1449,l),
(1104,1412,l),
(535,629,l),
(535,1412,l),
(678,1450,l),
(678,1486,l),
(19,1486,l),
(19,1450,l),
(152,1412,l),
(152,71,l),
(18,38,l),
(18,0,l)
);
}
);
width = 1447;
},
{
anchors = (
{
name = bottom;
pos = (622,0);
},
{
name = center;
pos = (241,1112);
},
{
name = top;
pos = (622,1486);
}
);
background = {
shapes = (
{
closed = 1;
nodes = (
(1233,0,l),
(1233,36,l),
(1152,68,l),
(1067,78,o),
(731,738,o),
(584,875,c),
(568,800,l),
(1053,1422,l),
(1180,1450,l),
(1180,1486,l),
(781,1486,l),
(781,1450,l),
(933,1420,l),
(297,568,l),
(321,557,l),
(321,1420,l),
(471,1450,l),
(471,1486,l),
(25,1486,l),
(25,1450,l),
(165,1420,l),
(165,67,l),
(24,37,l),
(24,0,l),
(476,0,l),
(476,36,l),
(321,67,l),
(321,543,l),
(299,470,l),
(541,766,l),
(489,767,l),
(623,613,o),
(929,0,o),
(994,0,c)
);
}
);
};
layerId = "C9B9556E-C2FD-4F62-BB40-44923C452C22";
shapes = (
{
closed = 1;
nodes = (
(476,0,l),
(476,36,l),
(321,67,l),
(321,497,l),
(515,734,l),
(653,555,o),
(932,0,o),
(994,0,c),
(1233,0,l),
(1233,36,l),
(1152,68,l),
(1070,81,o),
(781,649,o),
(607,850,c),
(1053,1422,l),
(1180,1450,l),
(1180,1486,l),
(781,1486,l),
(781,1450,l),
(933,1420,l),
(321,600,l),
(321,1420,l),
(471,1450,l),
(471,1486,l),
(25,1486,l),
(25,1450,l),
(165,1420,l),
(165,67,l),
(24,37,l),
(24,0,l)
);
}
);
width = 1243;
},
{
anchors = (
{
name = bottom;
pos = (725,0);
},
{
name = center;
pos = (352,1112);
},
{
name = top;
pos = (725,1486);
}
);
layerId = "AFA1064D-EFC9-4C9F-B9B0-9118E41D87C4";
shapes = (
{
closed = 1;
nodes = (
(701,0,l),
(701,38,l),
(558,71,l),
(558,538,l),
(665,677,l),
(740,582,o),
(920,0,o),
(1004,0,cs),
(1490,1,l),
(1490,39,l),
(1429,66,l),
(1305,179,o),
(1026,864,o),
(914,997,c),
(1230,1409,l),
(1407,1447,l),
(1407,1487,l),
(943,1486,l),
(943,1449,l),
(1123,1412,l),
(558,645,l),
(558,1412,l),
(701,1450,l),
(701,1486,l),
(21,1486,l),
(21,1450,l),
(154,1412,l),
(154,71,l),
(20,38,l),
(20,0,l)
);
}
);
width = 1449;
},
{
anchors = (
{
name = bottom;
pos = (654,0);
},
{
name = center;
pos = (243,1112);
},
{
name = top;
pos = (654,1486);
}
);
layerId = "2103F1D3-C390-4F79-A87D-298F85EA6916";
shapes = (
{
closed = 1;
nodes = (
(484,0,l),
(484,36,l),
(325,67,l),
(325,490,l),
(555,738,l),
(713,539,o),
(1019,0,o),
(1073,0,cs),
(1318,0,l),
(1318,36,l),
(1232,68,l),
(1160,78,o),
(820,668,o),
(652,851,c),
(1118,1422,l),
(1241,1450,l),
(1241,1486,l),
(852,1486,l),
(852,1450,l),
(991,1420,l),
(325,591,l),
(325,1420,l),
(484,1450,l),
(484,1486,l),
(26,1486,l),
(26,1450,l),
(165,1420,l),
(165,67,l),
(25,36,l),
(25,0,l)
);
}
);
width = 1308;
},
{
anchors = (
{
name = bottom;
pos = (696,0);
},
{
name = center;
pos = (321,1112);
},
{
name = top;
pos = (696,1486);
}
);
layerId = "779F1615-9D1A-4778-9767-9A030AA58B6C";
shapes = (
{
closed = 1;
nodes = (
(593,0,l),
(593,84,l),
(405,104,l),
(405,507,l),
(623,754,l),
(809,564,o),
(1045,0,o),
(1149,0,cs),
(1389,0,l),
(1389,84,l),
(1295,106,l),
(1213,116,o),
(921,691,o),
(719,864,c),
(1179,1378,l),
(1325,1400,l),
(1325,1486,l),
(861,1486,l),
(861,1400,l),
(1031,1378,l),
(405,651,l),
(405,1378,l),
(577,1400,l),
(577,1486,l),
(73,1486,l),
(73,1400,l),
(241,1378,l),
(241,104,l),
(69,86,l),
(69,0,l)
);
}
);
userData = {
com.schriftgestaltung.Glyphs.lastChange = "2019-04-25 21:50:43 +0000";
};
width = 1391;
},
{
anchors = (
{
name = bottom;
pos = (778,0);
},
{
name = center;
pos = (405,1112);
},
{
name = top;
pos = (778,1486);
}
);
layerId = "97BB7961-D669-43AB-8BBF-11FFD0C46A4B";
shapes = (
{
closed = 1;
nodes = (
(749,0,l),
(749,131,l),
(584,153,l),
(584,492,l),
(745,680,l),
(893,487,o),
(1084,0,o),
(1161,0,cs),
(1565,0,l),
(1565,131,l),
(1470,153,l),
(1395,197,o),
(1137,739,o),
(946,911,c),
(1323,1320,l),
(1499,1348,l),
(1499,1486,l),
(928,1486,l),
(928,1347,l),
(1091,1319,l),
(584,693,l),
(584,1319,l),
(731,1347,l),
(731,1486,l),
(79,1486,l),
(79,1347,l),
(232,1319,l),
(232,154,l),
(78,132,l),
(78,0,l)
);
}
);
width = 1556;
}
);
metricLeft = H;
unicode = 75;
}
{
color = 4;
glyphname = L;
kernLeft = H;
kernRight = L;
layers = (
{
anchors = (
{
name = belt;
pos = (249,757);
},
{
name = bottom;
pos = (613,0);
},
{
name = center;
pos = (613,743);
},
{
name = top;
pos = (328,1486);
},
{
name = topright;
pos = (841,1005);
}
);
layerId = UUID0;
shapes = (
{
closed = 1;
nodes = (
(1109,0,l),
(1183,416,l),
(1087,432,l),
(975,120,l),
(415,104,l),
(415,1378,l),
(615,1400,l),
(615,1486,l),
(83,1486,l),
(83,1400,l),
(251,1378,l),
(251,104,l),
(79,86,l),
(79,0,l)
);
}
);
width = 1225;
},
{
anchors = (
{
name = belt;
pos = (230,757);
},
{
name = bottom;
pos = (645,0);
},
{
name = center;
pos = (645,743);
},
{
name = top;
pos = (399,1486);
},
{
name = topright;
pos = (911,1005);
}
);
layerId = "DEBB1CE4-A72D-4960-969E-E04A036D2FA1";
shapes = (
{
closed = 1;
nodes = (
(1210,0,l),
(1268,548,l),
(1080,572,l),
(949,176,l),
(574,156,l),
(574,1319,l),
(764,1347,l),
(764,1486,l),
(81,1486,l),
(81,1347,l),
(231,1319,l),
(231,153,l),
(79,132,l),
(79,0,l)
);
}
);
width = 1289;
},
{
anchors = (
{
name = belt;
pos = (152,757);
},
{
name = bottom;
pos = (601,0);
},
{
name = center;
pos = (601,743);
},
{
name = top;
pos = (355,1486);
},
{
name = topright;
pos = (1181,1486);
}
);
layerId = "184155C8-9F61-4F1C-9784-DDA8EA717636";
shapes = (
{
closed = 1;
nodes = (
(1124,0,l),
(1191,435,l),
(1021,452,l),
(868,120,l),
(533,59,l),
(533,1412,l),
(694,1450,l),
(694,1486,l),
(19,1486,l),
(19,1450,l),
(152,1412,l),
(152,78,l),
(18,37,l),
(18,0,l)
);
}
);
width = 1201;
},
{
anchors = (
{
name = belt;
pos = (165,757);
},
{
name = bottom;
pos = (525,0);
},
{
name = center;
pos = (525,743);
},
{
name = top;
pos = (245,1486);
},
{
name = topright;
pos = (731,1005);
}
);
layerId = "C9B9556E-C2FD-4F62-BB40-44923C452C22";
shapes = (
{
closed = 1;
nodes = (
(966,0,l),
(1040,416,l),
(969,432,l),
(834,91,l),
(321,63,l),
(322,1420,l),
(482,1450,l),
(482,1486,l),
(25,1486,l),
(25,1450,l),
(165,1420,l),
(165,67,l),
(24,36,l),
(24,0,l)
);
}
);
width = 1050;
},
{
anchors = (
{
name = belt;
pos = (150,757);
},
{
name = bottom;
pos = (642,0);
},
{
name = center;
pos = (642,743);
},
{
name = top;
pos = (358,1486);
},
{
name = topright;
pos = (891,1005);
}
);
layerId = "AFA1064D-EFC9-4C9F-B9B0-9118E41D87C4";
shapes = (
{
closed = 1;
nodes = (
(1201,0,l),
(1278,424,l),
(1133,462,l),
(982,125,l),
(555,59,l),
(555,1420,l),
(736,1450,l),
(736,1486,l),
(21,1486,l),
(21,1450,l),
(151,1412,l),
(151,73,l),
(20,37,l),
(20,0,l)
);
}
);
width = 1283;
},
{
anchors = (
{
name = belt;
pos = (166,757);
},
{
name = bottom;
pos = (586,0);
},
{
name = center;
pos = (586,743);
},
{
name = top;
pos = (249,1486);
},
{
name = topright;
pos = (771,1005);
}
);
layerId = "2103F1D3-C390-4F79-A87D-298F85EA6916";
shapes = (
{
closed = 1;
nodes = (
(1057,0,l),
(1131,416,l),
(1060,432,l),
(925,91,l),
(322,63,l),
(323,1420,l),
(483,1450,l),
(483,1486,l),
(26,1486,l),
(26,1450,l),
(166,1420,l),
(166,67,l),
(25,36,l),
(25,0,l)
);
}
);
width = 1171;
},
{
anchors = (
{
name = belt;
pos = (240,757);
},
{
name = bottom;
pos = (630,0);
},
{
name = center;
pos = (630,743);
},
{
name = top;
pos = (328,1486);
},
{
name = topright;
pos = (841,1005);
}
);
layerId = "779F1615-9D1A-4778-9767-9A030AA58B6C";
shapes = (
{
closed = 1;
nodes = (
(1144,0,l),
(1218,416,l),
(1122,432,l),
(1010,120,l),
(405,104,l),
(405,1378,l),
(605,1400,l),
(605,1486,l),
(73,1486,l),
(73,1400,l),
(241,1378,l),
(241,104,l),
(69,86,l),
(69,0,l)
);
}
);
userData = {
com.schriftgestaltung.Glyphs.lastChange = "2019-04-25 21:50:43 +0000";
};
width = 1260;
},
{
anchors = (
{
name = belt;
pos = (230,757);
},
{
name = bottom;
pos = (665,0);
},
{
name = center;
pos = (665,743);
},
{
name = top;
pos = (412,1486);
},
{
name = topright;
pos = (941,1005);
}
);
layerId = "97BB7961-D669-43AB-8BBF-11FFD0C46A4B";
shapes = (
{
closed = 1;
nodes = (
(1259,0,l),
(1327,548,l),
(1139,572,l),
(988,176,l),
(586,156,l),
(586,1319,l),
(773,1347,l),
(773,1486,l),
(80,1486,l),
(80,1347,l),
(230,1319,l),
(230,153,l),
(78,132,l),
(78,0,l)
);
}
);
width = 1330;
}
);
metricLeft = H;
unicode = 76;
}
{
color = 4;
glyphname = M;
kernLeft = M;
kernRight = M;
layers = (
{
anchors = (
{
name = bottom;
pos = (973,0);
},
{
name = top;
pos = (973,1486);
}
);
layerId = UUID0;
shapes = (
{
closed = 1;
nodes = (
(16,86,l),
(16,0,l),
(516,0,l),
(516,86,l),
(320,104,l),
(415,1016,l),
(458,1416,l),
(576,1028,l),
(910,72,l),
(994,72,l),
(1354,1140,l),
(1442,1416,l),
(1482,1016,l),
(1578,104,l),
(1392,86,l),
(1392,0,l),
(1930,0,l),
(1930,86,l),
(1748,106,l),
(1590,1378,l),
(1820,1400,l),
(1820,1486,l),
(1342,1486,l),
(1038,562,l),
(970,294,l),
(896,562,l),
(592,1486,l),
(112,1486,l),
(112,1400,l),
(346,1378,l),
(186,104,l)
);
}
);
width = 1946;
},
{
anchors = (
{
name = bottom;
pos = (1034,0);
},
{
name = top;
pos = (1034,1486);
}
);
layerId = "DEBB1CE4-A72D-4960-969E-E04A036D2FA1";
shapes = (
{
closed = 1;
nodes = (
(4,132,l),
(4,0,l),
(569,0,l),
(569,132,l),
(371,154,l),
(460,1016,l),
(496,1370,l),
(580,1021,l),
(845,57,l),
(1107,57,l),
(1375,1048,l),
(1445,1369,l),
(1480,1016,l),
(1559,154,l),
(1389,132,l),
(1389,0,l),
(2063,0,l),
(2063,132,l),
(1909,155,l),
(1750,1319,l),
(1971,1347,l),
(1971,1486,l),
(1296,1486,l),
(1083,649,l),
(1041,428,l),
(995,649,l),
(800,1486,l),
(108,1486,l),
(108,1347,l),
(325,1319,l),
(163,153,l)
);
}
);
width = 2067;
},
{
anchors = (
{
name = bottom;
pos = (930,0);
},
{
name = top;
pos = (930,1486);
}
);
layerId = "184155C8-9F61-4F1C-9784-DDA8EA717636";
shapes = (
{
closed = 1;
nodes = (
(-45,36,l),
(-45,0,l),
(374,0,l),
(374,36,l),
(207,71,l),
(301,1046,l),
(334,1360,l),
(410,1047,l),
(638,57,l),
(980,57,l),
(1166,1046,l),
(1229,1360,l),
(1267,1044,l),
(1363,72,l),
(1218,38,l),
(1218,0,l),
(1905,0,l),
(1905,36,l),
(1763,72,l),
(1613,1413,l),
(1772,1451,l),
(1772,1486,l),
(1181,1486,l),
(995,520,l),
(954,282,l),
(912,516,l),
(705,1486,l),
(118,1486,l),
(118,1451,l),
(272,1413,l),
(110,71,l)
);
}
);
width = 1860;
},
{
anchors = (
{
name = bottom;
pos = (870,0);
},
{
name = top;
pos = (870,1486);
}
);
layerId = "C9B9556E-C2FD-4F62-BB40-44923C452C22";
shapes = (
{
closed = 1;
nodes = (
(-25,36,l),
(-25,0,l),
(410,0,l),
(410,36,l),
(234,60,l),
(344,1016,l),
(387,1419,l),
(505,1016,l),
(767,72,l),
(897,72,l),
(1200,1040,l),
(1302,1419,l),
(1339,1016,l),
(1439,60,l),
(1265,36,l),
(1265,0,l),
(1765,0,l),
(1765,36,l),
(1606,62,l),
(1436,1416,l),
(1583,1451,l),
(1583,1486,l),
(1226,1486,l),
(966,562,l),
(876,196,l),
(784,562,l),
(533,1486,l),
(149,1486,l),
(149,1451,l),
(314,1416,l),
(127,60,l)
);
}
);
width = 1740;
},
{
anchors = (
{
name = bottom;
pos = (986,0);
},
{
name = top;
pos = (986,1486);
}
);
layerId = "AFA1064D-EFC9-4C9F-B9B0-9118E41D87C4";
shapes = (
{
closed = 1;
nodes = (
(-55,36,l),
(-55,0,l),
(390,0,l),
(390,36,l),
(212,71,l),
(328,1046,l),
(363,1360,l),
(444,1047,l),
(685,57,l),
(1035,57,l),
(1257,1046,l),
(1324,1360,l),
(1364,1044,l),
(1466,72,l),
(1312,38,l),
(1312,0,l),
(2026,0,l),
(2026,36,l),
(1876,72,l),
(1716,1413,l),
(1885,1451,l),
(1885,1486,l),
(1273,1486,l),
(1051,520,l),
(1007,282,l),
(963,516,l),
(744,1486,l),
(134,1486,l),
(134,1451,l),
(298,1413,l),
(109,71,l)
);
}
);
width = 1971;
},
{
anchors = (
{
name = bottom;
pos = (924,0);
},
{
name = top;
pos = (924,1486);
}
);
layerId = "2103F1D3-C390-4F79-A87D-298F85EA6916";
shapes = (
{
closed = 1;
nodes = (
(-20,36,l),
(-20,0,l),
(433,0,l),
(433,36,l),
(249,60,l),
(370,1016,l),
(418,1419,l),
(541,1016,l),
(831,72,l),
(963,72,l),
(1288,1040,l),
(1398,1419,l),
(1436,1016,l),
(1534,60,l),
(1353,36,l),
(1353,0,l),
(1868,0,l),
(1868,36,l),
(1703,62,l),
(1536,1416,l),
(1709,1451,l),
(1709,1486,l),
(1321,1486,l),
(1042,562,l),
(941,196,l),
(842,562,l),
(561,1486,l),
(160,1486,l),
(160,1451,l),
(342,1416,l),
(138,60,l)
);
}
);
width = 1848;
},
{
anchors = (
{
name = bottom;
pos = (1012,0);
},
{
name = top;
pos = (1012,1486);
}
);
layerId = "779F1615-9D1A-4778-9767-9A030AA58B6C";
shapes = (
{
closed = 1;
nodes = (
(16,86,l),
(16,0,l),
(547,0,l),
(547,86,l),
(339,104,l),
(451,1016,l),
(499,1416,l),
(624,1028,l),
(945,72,l),
(1034,72,l),
(1410,1140,l),
(1504,1416,l),
(1540,1016,l),
(1631,104,l),
(1434,86,l),
(1434,0,l),
(2008,0,l),
(2008,86,l),
(1813,106,l),
(1661,1378,l),
(1905,1400,l),
(1905,1486,l),
(1398,1486,l),
(1081,562,l),
(1009,294,l),
(930,562,l),
(645,1486,l),
(132,1486,l),
(132,1400,l),
(380,1378,l),
(196,104,l)
);
}
);
userData = {
com.schriftgestaltung.Glyphs.lastChange = "2019-04-25 21:50:43 +0000";
};
width = 2024;
},
{
anchors = (
{
name = bottom;
pos = (1055,0);
},
{
name = top;
pos = (1055,1486);
}
);
layerId = "97BB7961-D669-43AB-8BBF-11FFD0C46A4B";
shapes = (
{
closed = 1;
nodes = (
(-16,132,l),
(-16,0,l),
(566,0,l),
(566,132,l),
(357,154,l),
(451,1016,l),
(488,1370,l),
(575,1021,l),
(831,57,l),
(1128,57,l),
(1389,1048,l),
(1462,1369,l),
(1499,1016,l),
(1593,154,l),
(1418,132,l),
(1418,0,l),
(2126,0,l),
(2126,132,l),
(1968,155,l),
(1791,1319,l),
(2019,1347,l),
(2019,1486,l),
(1309,1486,l),
(1103,649,l),
(1059,428,l),
(1005,649,l),
(826,1486,l),
(88,1486,l),
(88,1347,l),
(312,1319,l),
(143,153,l)
);
}
);
width = 2110;
}
);
metricRight = "=|";
unicode = 77;
}
{
color = 4;
glyphname = N;
kernLeft = H;
kernRight = H;
layers = (
{
anchors = (
{
name = bottom;
pos = (763,0);
},
{
name = top;
pos = (763,1486);
}
);
layerId = UUID0;
shapes = (
{
closed = 1;
nodes = (
(69,86,l),
(69,0,l),
(527,0,l),
(527,86,l),
(345,104,l),
(345,1296,l),
(509,1030,l),
(1225,0,l),
(1329,0,l),
(1329,1378,l),
(1493,1400,l),
(1493,1486,l),
(1037,1486,l),
(1037,1400,l),
(1213,1378,l),
(1213,260,l),
(1099,460,l),
(391,1486,l),
(69,1486,l),
(69,1400,l),
(122,1393,o),
(176,1385,o),
(229,1378,c),
(229,106,l)
);
}
);
width = 1526;
},
{
anchors = (
{
name = bottom;
pos = (800,0);
},
{
name = top;
pos = (800,1486);
}
);
layerId = "DEBB1CE4-A72D-4960-969E-E04A036D2FA1";
shapes = (
{
closed = 1;
nodes = (
(69,132,l),
(69,0,l),
(626,0,l),
(626,132,l),
(415,154,l),
(415,1178,l),
(546,913,l),
(1128,0,l),
(1423,0,l),
(1423,1320,l),
(1573,1347,l),
(1573,1486,l),
(1063,1486,l),
(1063,1347,l),
(1233,1320,l),
(1233,394,l),
(1120,634,l),
(585,1486,l),
(69,1486,l),
(69,1347,l),
(121,1338,o),
(174,1329,o),
(226,1320,c),
(226,153,l)
);
}
);
width = 1600;
},
{
anchors = (
{
name = bottom;
pos = (670,0);
},
{
name = top;
pos = (670,1486);
}
);
layerId = "184155C8-9F61-4F1C-9784-DDA8EA717636";
shapes = (
{
closed = 1;
nodes = (
(-22,36,l),
(-22,0,l),
(399,0,l),
(399,36,l),
(219,95,l),
(221,1161,l),
(312,1007,l),
(964,0,l),
(1199,0,l),
(1199,1392,l),
(1370,1450,l),
(1370,1486,l),
(949,1486,l),
(949,1450,l),
(1126,1392,l),
(1127,402,l),
(1017,599,l),
(444,1486,l),
(-19,1486,l),
(-19,1432,l),
(43,1432,o),
(141,1304,o),
(148,1241,c),
(146,95,l)
);
}
);
width = 1340;
},
{
anchors = (
{
name = bottom;
pos = (690,0);
},
{
name = top;
pos = (690,1486);
}
);
layerId = "C9B9556E-C2FD-4F62-BB40-44923C452C22";
shapes = (
{
closed = 1;
nodes = (
(24,36,l),
(24,0,l),
(427,0,l),
(427,36,l),
(277,67,l),
(254,1353,l),
(372,1139,l),
(1058,0,l),
(1198,0,l),
(1217,1419,l),
(1359,1450,l),
(1359,1486,l),
(971,1486,l),
(971,1450,l),
(1117,1419,l),
(1136,133,l),
(997,402,l),
(342,1486,l),
(43,1486,l),
(43,1450,l),
(98,1440,o),
(187,1403,o),
(191,1381,c),
(176,67,l)
);
}
);
width = 1379;
},
{
anchors = (
{
name = bottom;
pos = (714,0);
},
{
name = top;
pos = (714,1486);
}
);
layerId = "AFA1064D-EFC9-4C9F-B9B0-9118E41D87C4";
shapes = (
{
closed = 1;
nodes = (
(-11,36,l),
(-11,0,l),
(401,0,l),
(401,36,l),
(226,95,l),
(228,1181,l),
(345,1007,l),
(1024,0,l),
(1277,0,l),
(1277,1392,l),
(1435,1450,l),
(1435,1486,l),
(1026,1486,l),
(1026,1450,l),
(1203,1392,l),
(1205,402,l),
(1094,599,l),
(497,1486,l),
(-33,1486,l),
(-33,1432,l),
(29,1432,o),
(127,1343,o),
(153,1241,c),
(151,95,l)
);
}
);
width = 1427;
},
{
anchors = (
{
name = bottom;
pos = (748,0);
},
{
name = top;
pos = (748,1486);
}
);
layerId = "2103F1D3-C390-4F79-A87D-298F85EA6916";
shapes = (
{
closed = 1;
nodes = (
(25,36,l),
(25,0,l),
(428,0,l),
(428,36,l),
(278,67,l),
(262,1353,l),
(389,1152,l),
(1176,0,l),
(1314,0,l),
(1333,1419,l),
(1475,1450,l),
(1475,1486,l),
(1090,1486,l),
(1090,1450,l),
(1233,1419,l),
(1249,133,l),
(1074,410,l),
(339,1486,l),
(44,1486,l),
(44,1450,l),
(99,1440,o),
(188,1403,o),
(192,1381,c),
(177,67,l)
);
}
);
width = 1495;
},
{
anchors = (
{
name = bottom;
pos = (859,0);
},
{
name = top;
pos = (859,1486);
}
);
layerId = "779F1615-9D1A-4778-9767-9A030AA58B6C";
shapes = (
{
closed = 1;
nodes = (
(69,86,l),
(69,0,l),
(593,0,l),
(593,86,l),
(383,104,l),
(383,1317,l),
(581,1034,l),
(1378,0,l),
(1489,0,l),
(1489,1378,l),
(1685,1400,l),
(1685,1486,l),
(1156,1486,l),
(1156,1400,l),
(1365,1378,l),
(1365,240,l),
(1222,460,l),
(435,1485,l),
(69,1486,l),
(69,1400,l),
(132,1393,o),
(196,1385,o),
(258,1378,c),
(258,106,l)
);
}
);
userData = {
com.schriftgestaltung.Glyphs.lastChange = "2019-04-25 21:50:43 +0000";
};
width = 1718;
},
{
anchors = (
{
name = bottom;
pos = (817,0);
},
{
name = top;
pos = (817,1486);
}
);
layerId = "97BB7961-D669-43AB-8BBF-11FFD0C46A4B";
shapes = (
{
closed = 1;
nodes = (
(51,132,l),
(51,0,l),
(551,0,l),
(551,132,l),
(388,154,l),
(388,1194,l),
(525,938,l),
(1126,0,l),
(1465,0,l),
(1465,1320,l),
(1615,1347,l),
(1615,1486,l),
(1115,1486,l),
(1115,1347,l),
(1275,1320,l),
(1275,363,l),
(1158,594,l),
(584,1486,l),
(40,1486,l),
(40,1347,l),
(92,1338,o),
(147,1329,o),
(199,1320,c),
(199,153,l)
);
}
);
width = 1633;
}
);
unicode = 78;
}
{
color = 4;
glyphname = O;
kernLeft = O;
kernRight = O;
layers = (
{
anchors = (
{
name = bottom;
pos = (699,0);
},
{
name = center;
pos = (699,743);
},
{
name = ogonek;
pos = (1258,10);
},
{
name = qq;
pos = (808,0);
},
{
name = top;
pos = (699,1486);
},
{
name = topleft;
pos = (20,1486);
},
{
name = topright;
pos = (1378,1486);
}
);
layerId = UUID0;
shapes = (
{
closed = 1;
nodes = (
(1056,-15,o),
(1345,288,o),
(1345,756,cs),
(1345,1206,o),
(1123,1502,o),
(719,1502,cs),
(347,1502,o),
(53,1204,o),
(53,732,cs),
(53,289,o),
(272,-29,o),
(685,-22,cs)
);
},
{
closed = 1;
nodes = (
(401,72,o),
(235,350,o),
(235,732,cs),
(235,1186,o),
(425,1408,o),
(701,1408,cs),
(995,1408,o),
(1159,1140,o),
(1159,756,cs),
(1159,302,o),
(971,72,o),
(695,72,cs)
);
}
);
width = 1398;
},
{
anchors = (
{
name = bottom;
pos = (731,0);
},
{
name = center;
pos = (731,743);
},
{
name = ogonek;
pos = (1316,10);
},
{
name = qq;
pos = (808,0);
},
{
name = top;
pos = (731,1486);
},
{
name = topleft;
pos = (20,1486);
},
{
name = topright;
pos = (1442,1486);
}
);
layerId = "DEBB1CE4-A72D-4960-969E-E04A036D2FA1";
shapes = (
{
closed = 1;
nodes = (
(1138,-19,o),
(1409,301,o),
(1409,768,cs),
(1409,1218,o),
(1213,1503,o),
(743,1505,cs),
(325,1506,o),
(53,1207,o),
(53,741,cs),
(53,285,o),
(251,-26,o),
(722,-22,cs)
);
},
{
closed = 1;
nodes = (
(542,110,o),
(430,304,o),
(430,742,cs),
(430,1170,o),
(544,1373,o),
(732,1373,cs),
(920,1373,o),
(1031,1205,o),
(1031,766,cs),
(1031,337,o),
(917,110,o),
(729,110,cs)
);
}
);
width = 1462;
},
{
anchors = (
{
name = bottom;
pos = (705,0);
},
{
name = center;
pos = (705,743);
},
{
name = ogonek;
pos = (1269,10);
},
{
name = qq;
pos = (808,0);
},
{
name = top;
pos = (705,1486);
},
{
name = topleft;
pos = (20,1486);
},
{
name = topright;
pos = (1390,1486);
}
);
layerId = "184155C8-9F61-4F1C-9784-DDA8EA717636";
shapes = (
{
closed = 1;
nodes = (
(1177,-26,o),
(1384,325,o),
(1384,770,cs),
(1384,1203,o),
(1196,1509,o),
(722,1509,cs),
(235,1509,o),
(26,1161,o),
(26,719,cs),
(26,282,o),
(215,-26,o),
(694,-26,cs)
);
},
{
closed = 1;
nodes = (
(520,30,o),
(442,310,o),
(442,719,cs),
(442,1206,o),
(534,1453,o),
(708,1453,cs),
(889,1453,o),
(968,1183,o),
(968,770,cs),
(968,285,o),
(874,30,o),
(706,30,cs)
);
}
);
width = 1410;
},
{
anchors = (
{
name = bottom;
pos = (686,0);
},
{
name = center;
pos = (686,743);
},
{
name = ogonek;
pos = (1235,10);
},
{
name = qq;
pos = (808,0);
},
{
name = top;
pos = (686,1486);
},
{
name = topleft;
pos = (20,1486);
},
{
name = topright;
pos = (1352,1486);
}
);
layerId = "C9B9556E-C2FD-4F62-BB40-44923C452C22";
shapes = (
{
closed = 1;
nodes = (
(1040,-22,o),
(1327,259,o),
(1327,765,cs),
(1327,1214,o),
(1110,1502,o),
(706,1502,cs),
(334,1502,o),
(45,1232,o),
(45,724,cs),
(45,285,o),
(266,-22,o),
(672,-22,cs)
);
},
{
closed = 1;
nodes = (
(372,28,o),
(215,287,o),
(215,724,cs),
(215,1215,o),
(401,1452,o),
(688,1452,cs),
(998,1452,o),
(1157,1159,o),
(1157,765,cs),
(1157,273,o),
(969,28,o),
(682,28,cs)
);
}
);
width = 1372;
},
{
anchors = (
{
name = bottom;
pos = (767,0);
},
{
name = center;
pos = (767,743);
},
{
name = ogonek;
pos = (1381,10);
},
{
name = qq;
pos = (1018,0);
},
{
name = top;
pos = (767,1486);
},
{
name = topleft;
pos = (20,1486);
},
{
name = topright;
pos = (1514,1486);
}
);
layerId = "AFA1064D-EFC9-4C9F-B9B0-9118E41D87C4";
shapes = (
{
closed = 1;
nodes = (
(1249,-24,o),
(1510,305,o),
(1510,765,cs),
(1510,1210,o),
(1281,1504,o),
(788,1504,cs),
(286,1504,o),
(24,1178,o),
(24,724,cs),
(24,272,o),
(254,-24,o),
(751,-24,cs)
);
},
{
closed = 1;
nodes = (
(560,30,o),
(459,281,o),
(459,724,cs),
(459,1225,o),
(578,1449,o),
(767,1449,cs),
(972,1449,o),
(1074,1209,o),
(1074,765,cs),
(1074,263,o),
(952,30,o),
(763,30,cs)
);
}
);
width = 1534;
},
{
anchors = (
{
name = bottom;
pos = (737,0);
},
{
name = center;
pos = (737,743);
},
{
name = ogonek;
pos = (1326,10);
},
{
name = qq;
pos = (908,0);
},
{
name = top;
pos = (737,1486);
},
{
name = topleft;
pos = (20,1486);
},
{
name = topright;
pos = (1453,1486);
}
);
layerId = "2103F1D3-C390-4F79-A87D-298F85EA6916";
shapes = (
{
closed = 1;
nodes = (
(1140,-22,o),
(1436,282,o),
(1436,765,cs),
(1436,1218,o),
(1174,1502,o),
(758,1502,cs),
(335,1502,o),
(37,1202,o),
(37,724,cs),
(37,266,o),
(301,-22,o),
(721,-22,cs)
);
},
{
closed = 1;
nodes = (
(407,28,o),
(215,257,o),
(215,724,cs),
(215,1215,o),
(437,1450,o),
(738,1450,cs),
(1075,1450,o),
(1258,1179,o),
(1258,765,cs),
(1258,273,o),
(1033,28,o),
(732,28,cs)
);
}
);
width = 1473;
},
{
anchors = (
{
name = bottom;
pos = (740,0);
},
{
name = center;
pos = (740,743);
},
{
name = ogonek;
pos = (1332,10);
},
{
name = qq;
pos = (868,0);
},
{
name = top;
pos = (740,1486);
},
{
name = topleft;
pos = (20,1486);
},
{
name = topright;
pos = (1460,1486);
}
);
layerId = "779F1615-9D1A-4778-9767-9A030AA58B6C";
shapes = (
{
closed = 1;
nodes = (
(1128,-15,o),
(1438,288,o),
(1438,756,cs),
(1438,1206,o),
(1200,1502,o),
(764,1502,cs),
(359,1502,o),
(42,1204,o),
(42,732,cs),
(42,289,o),
(275,-29,o),
(723,-22,cs)
);
},
{
closed = 1;
nodes = (
(393,72,o),
(224,350,o),
(224,732,cs),
(224,1186,o),
(423,1408,o),
(742,1408,cs),
(1085,1408,o),
(1256,1141,o),
(1256,757,cs),
(1256,303,o),
(1055,72,o),
(736,72,cs)
);
}
);
userData = {
com.schriftgestaltung.Glyphs.lastChange = "2019-04-25 21:50:43 +0000";
};
width = 1480;
},
{
anchors = (
{
name = bottom;
pos = (778,0);
},
{
name = center;
pos = (778,743);
},
{
name = ogonek;
pos = (1400,10);
},
{
name = qq;
pos = (968,0);
},
{
name = top;
pos = (781,1486);
},
{
name = topleft;
pos = (20,1486);
},
{
name = topright;
pos = (1535,1486);
}
);
layerId = "97BB7961-D669-43AB-8BBF-11FFD0C46A4B";
shapes = (
{
closed = 1;
nodes = (
(1218,-19,o),
(1515,301,o),
(1515,768,cs),
(1515,1218,o),
(1299,1503,o),
(790,1505,cs),
(338,1506,o),
(40,1207,o),
(40,741,cs),
(40,285,o),
(258,-26,o),
(767,-22,cs)
);
},
{
closed = 1;
nodes = (
(581,112,o),
(461,326,o),
(461,742,cs),
(461,1155,o),
(583,1373,o),
(778,1373,cs),
(974,1373,o),
(1093,1190,o),
(1093,766,cs),
(1093,359,o),
(971,112,o),
(775,112,cs)
);
}
);
width = 1555;
}
);
metricRight = "=|";
unicode = 79;
}
{
color = 4;
glyphname = P;
kernLeft = H;
kernRight = P;
layers = (
{
anchors = (
{
name = bottom;
pos = (628,0);
},
{
name = lstem;
pos = (353,1035);
},
{
name = top;
pos = (628,1486);
}
);
layerId = UUID0;
shapes = (
{
closed = 1;
nodes = (
(79,86,l),
(79,0,l),
(693,0,l),
(693,86,l),
(415,106,l),
(415,576,l),
(433,572,o),
(549,568,o),
(627,568,cs),
(945,568,o),
(1199,756,o),
(1199,1080,cs),
(1199,1344,o),
(1075,1500,o),
(683,1500,cs),
(509,1500,o),
(465,1486,o),
(333,1486,cs),
(91,1486,l),
(91,1400,l),
(251,1378,l),
(251,104,l)
);
},
{
closed = 1;
nodes = (
(415,1392,l),
(471,1392,o),
(537,1404,o),
(633,1404,cs),
(897,1404,o),
(1023,1318,o),
(1023,1080,cs),
(1023,762,o),
(833,666,o),
(631,666,cs),
(531,666,o),
(453,668,o),
(415,674,c)
);
}
);
width = 1255;
},
{
anchors = (
{
name = bottom;
pos = (673,0);
},
{
name = lstem;
pos = (403,1015);
},
{
name = top;
pos = (673,1486);
}
);
layerId = "DEBB1CE4-A72D-4960-969E-E04A036D2FA1";
shapes = (
{
closed = 1;
nodes = (
(79,132,l),
(79,0,l),
(837,0,l),
(837,132,l),
(574,153,l),
(574,518,l),
(591,516,o),
(655,512,o),
(712,512,cs),
(1098,512,o),
(1308,713,o),
(1308,1052,cs),
(1308,1337,o),
(1184,1496,o),
(745,1497,cs),
(591,1499,o),
(500,1486,o),
(409,1486,cs),
(85,1486,l),
(85,1347,l),
(231,1319,l),
(231,153,l)
);
},
{
closed = 1;
nodes = (
(573,1352,l),
(604,1357,o),
(630,1364,o),
(703,1364,cs),
(874,1364,o),
(958,1269,o),
(958,1045,cs),
(958,740,o),
(849,647,o),
(704,647,cs),
(638,647,o),
(596,650,o),
(573,656,c)
);
}
);
width = 1345;
},
{
anchors = (
{
name = bottom;
pos = (658,0);
},
{
name = lstem;
pos = (333,1025);
},
{
name = top;
pos = (658,1486);
}
);
layerId = "184155C8-9F61-4F1C-9784-DDA8EA717636";
shapes = (
{
closed = 1;
nodes = (
(18,37,l),
(18,0,l),
(702,0,l),
(702,38,l),
(530,72,l),
(531,516,l),
(548,514,o),
(613,509,o),
(670,509,cs),
(1047,509,o),
(1272,675,o),
(1272,1024,cs),
(1272,1328,o),
(1103,1500,o),
(704,1497,cs),
(550,1496,o),
(441,1486,o),
(350,1486,cs),
(19,1486,l),
(19,1450,l),
(152,1412,l),
(152,73,l)
);
},
{
closed = 1;
nodes = (
(530,1430,l),
(561,1435,o),
(587,1442,o),
(640,1442,cs),
(810,1442,o),
(867,1241,o),
(867,1017,cs),
(867,711,o),
(757,576,o),
(632,576,cs),
(590,576,o),
(553,579,o),
(530,585,c)
);
}
);
width = 1316;
},
{
anchors = (
{
name = bottom;
pos = (543,0);
},
{
name = lstem;
pos = (231,1065);
},
{
name = top;
pos = (543,1486);
}
);
layerId = "C9B9556E-C2FD-4F62-BB40-44923C452C22";
shapes = (
{
closed = 1;
nodes = (
(24,36,l),
(24,0,l),
(521,0,l),
(521,36,l),
(320,68,l),
(320,640,l),
(358,633,o),
(488,625,o),
(526,626,cs),
(898,636,o),
(1057,798,o),
(1057,1081,cs),
(1057,1329,o),
(931,1502,o),
(549,1502,cs),
(446,1502,o),
(365,1486,o),
(246,1486,cs),
(25,1486,l),
(25,1450,l),
(164,1420,l),
(164,68,l)
);
},
{
closed = 1;
nodes = (
(320,1433,l),
(361,1433,o),
(474,1452,o),
(539,1452,cs),
(839,1452,o),
(891,1312,o),
(891,1081,cs),
(891,816,o),
(804,685,o),
(519,675,cs),
(459,673,o),
(371,686,o),
(320,700,c)
);
}
);
width = 1086;
},
{
anchors = (
{
name = bottom;
pos = (690,0);
},
{
name = lstem;
pos = (313,1025);
},
{
name = top;
pos = (690,1486);
}
);
layerId = "AFA1064D-EFC9-4C9F-B9B0-9118E41D87C4";
shapes = (
{
closed = 1;
nodes = (
(20,37,l),
(20,0,l),
(725,0,l),
(725,38,l),
(553,72,l),
(554,516,l),
(571,514,o),
(666,509,o),
(723,509,cs),
(1110,509,o),
(1356,685,o),
(1356,1024,cs),
(1356,1309,o),
(1197,1500,o),
(788,1497,cs),
(614,1496,o),
(513,1486,o),
(401,1486,cs),
(21,1486,l),
(21,1450,l),
(158,1412,l),
(158,73,l)
);
},
{
closed = 1;
nodes = (
(553,1430,l),
(583,1435,o),
(619,1442,o),
(691,1442,cs),
(867,1442,o),
(948,1241,o),
(948,1017,cs),
(948,711,o),
(815,576,o),
(683,576,cs),
(622,576,o),
(576,579,o),
(553,585,c)
);
}
);
width = 1380;
},
{
anchors = (
{
name = bottom;
pos = (563,0);
},
{
name = lstem;
pos = (251,1065);
},
{
name = top;
pos = (563,1486);
}
);
layerId = "2103F1D3-C390-4F79-A87D-298F85EA6916";
shapes = (
{
closed = 1;
nodes = (
(25,36,l),
(25,0,l),
(523,0,l),
(523,36,l),
(325,68,l),
(325,637,l),
(363,630,o),
(490,624,o),
(558,624,cs),
(924,624,o),
(1092,823,o),
(1092,1076,cs),
(1092,1339,o),
(957,1502,o),
(586,1502,cs),
(453,1502,o),
(367,1486,o),
(248,1486,cs),
(26,1486,l),
(26,1450,l),
(165,1420,l),
(165,68,l)
);
},
{
closed = 1;
nodes = (
(325,1433,l),
(366,1433,o),
(481,1452,o),
(576,1452,cs),
(865,1452,o),
(926,1312,o),
(926,1066,cs),
(926,831,o),
(830,675,o),
(551,675,cs),
(461,675,o),
(376,681,o),
(325,695,c)
);
}
);
width = 1125;
},
{
anchors = (
{
name = bottom;
pos = (648,0);
},
{
name = lstem;
pos = (313,1035);
},
{
name = top;
pos = (648,1486);
}
);
layerId = "779F1615-9D1A-4778-9767-9A030AA58B6C";
shapes = (
{
closed = 1;
nodes = (
(69,86,l),
(69,0,l),
(683,0,l),
(683,86,l),
(405,106,l),
(405,576,l),
(423,572,o),
(579,568,o),
(657,568,cs),
(985,568,o),
(1236,756,o),
(1236,1080,cs),
(1236,1344,o),
(1095,1500,o),
(693,1500,cs),
(519,1500,o),
(455,1486,o),
(323,1486,cs),
(81,1486,l),
(81,1400,l),
(241,1378,l),
(241,104,l)
);
},
{
closed = 1;
nodes = (
(405,1392,l),
(461,1392,o),
(547,1404,o),
(643,1404,cs),
(917,1404,o),
(1060,1318,o),
(1060,1080,cs),
(1060,762,o),
(873,666,o),
(661,666,cs),
(561,666,o),
(443,668,o),
(405,674,c)
);
}
);
userData = {
com.schriftgestaltung.Glyphs.lastChange = "2019-04-25 21:50:43 +0000";
};
width = 1295;
},
{
anchors = (
{
name = bottom;
pos = (734,0);
},
{
name = lstem;
pos = (403,1015);
},
{
name = top;
pos = (734,1486);
}
);
layerId = "97BB7961-D669-43AB-8BBF-11FFD0C46A4B";
shapes = (
{
closed = 1;
nodes = (
(78,132,l),
(78,0,l),
(846,0,l),
(846,132,l),
(583,153,l),
(583,518,l),
(600,516,o),
(747,512,o),
(804,512,cs),
(1190,512,o),
(1418,713,o),
(1418,1052,cs),
(1418,1337,o),
(1276,1497,o),
(837,1497,cs),
(683,1497,o),
(499,1486,o),
(408,1486,cs),
(84,1486,l),
(84,1347,l),
(230,1319,l),
(230,153,l)
);
},
{
closed = 1;
nodes = (
(582,1352,l),
(613,1357,o),
(679,1364,o),
(752,1364,cs),
(923,1364,o),
(1022,1269,o),
(1022,1045,cs),
(1022,740,o),
(898,647,o),
(733,647,cs),
(667,647,o),
(605,650,o),
(582,656,c)
);
}
);
width = 1468;
}
);
metricLeft = H;
unicode = 80;
}
{
color = 4;
glyphname = R;
kernLeft = H;
kernRight = R;
layers = (
{
anchors = (
{
name = bottom;
pos = (683,0);
},
{
name = top;
pos = (683,1486);
}
);
layerId = UUID0;
shapes = (
{
closed = 1;
nodes = (
(621,0,l),
(621,86,l),
(415,104,l),
(415,662,l),
(453,660,o),
(635,660,o),
(697,660,c),
(849,586,o),
(1029,0,o),
(1129,0,cs),
(1347,0,l),
(1347,84,l),
(1263,106,l),
(1165,128,o),
(1013,594,o),
(861,686,c),
(1051,744,o),
(1161,922,o),
(1161,1110,cs),
(1161,1358,o),
(1031,1502,o),
(655,1502,cs),
(583,1502,o),
(479,1486,o),
(335,1486,cs),
(91,1486,l),
(91,1404,l),
(251,1380,l),
(251,104,l),
(79,86,l),
(79,0,l)
);
},
{
closed = 1;
nodes = (
(637,758,o),
(485,756,o),
(415,760,c),
(415,1392,l),
(485,1396,o),
(559,1404,o),
(615,1404,cs),
(905,1404,o),
(987,1274,o),
(987,1096,cs),
(987,868,o),
(863,758,o),
(685,758,cs)
);
}
);
width = 1365;
},
{
anchors = (
{
name = bottom;
pos = (737,0);
},
{
name = top;
pos = (737,1486);
}
);
layerId = "DEBB1CE4-A72D-4960-969E-E04A036D2FA1";
shapes = (
{
closed = 1;
nodes = (
(744,0,l),
(744,132,l),
(567,153,l),
(567,632,l),
(612,632,o),
(693,632,o),
(745,632,c),
(896,577,o),
(997,0,o),
(1096,0,cs),
(1475,0,l),
(1475,131,l),
(1417,150,l),
(1322,174,o),
(1249,603,o),
(1018,685,c),
(1217,748,o),
(1302,938,o),
(1302,1101,cs),
(1302,1379,o),
(1150,1499,o),
(728,1499,cs),
(596,1499,o),
(512,1486,o),
(386,1486,cs),
(82,1486,l),
(82,1348,l),
(224,1319,l),
(224,153,l),
(79,132,l),
(79,0,l)
);
},
{
closed = 1;
nodes = (
(690,762,o),
(597,760,o),
(567,767,c),
(567,1357,l),
(595,1361,o),
(637,1366,o),
(693,1366,cs),
(875,1366,o),
(942,1277,o),
(942,1089,cs),
(942,864,o),
(856,762,o),
(720,762,cs)
);
}
);
width = 1473;
},
{
anchors = (
{
name = bottom;
pos = (702,0);
},
{
name = top;
pos = (702,1486);
}
);
layerId = "184155C8-9F61-4F1C-9784-DDA8EA717636";
shapes = (
{
closed = 1;
nodes = (
(668,0,l),
(668,38,l),
(523,72,l),
(523,632,l),
(568,632,o),
(623,632,o),
(675,632,c),
(826,577,o),
(884,0,o),
(983,0,cs),
(1405,0,l),
(1405,38,l),
(1357,57,l),
(1285,87,o),
(1220,619,o),
(938,687,c),
(1137,748,o),
(1232,938,o),
(1232,1101,cs),
(1232,1367,o),
(1080,1499,o),
(648,1499,cs),
(509,1499,o),
(452,1486,o),
(326,1486,cs),
(19,1486,l),
(19,1450,l),
(152,1412,l),
(152,73,l),
(18,37,l),
(18,0,l)
);
},
{
closed = 1;
nodes = (
(621,694,o),
(552,692,o),
(523,699,c),
(523,1430,l),
(550,1434,o),
(548,1442,o),
(609,1442,cs),
(783,1442,o),
(848,1296,o),
(848,1089,cs),
(848,864,o),
(781,694,o),
(650,694,cs)
);
}
);
width = 1403;
},
{
anchors = (
{
name = bottom;
pos = (603,0);
},
{
name = top;
pos = (603,1486);
}
);
layerId = "C9B9556E-C2FD-4F62-BB40-44923C452C22";
shapes = (
{
closed = 1;
nodes = (
(533,0,l),
(533,36,l),
(328,68,l),
(328,681,l),
(366,679,o),
(517,675,o),
(579,675,c),
(743,682,o),
(917,0,o),
(999,0,cs),
(1218,0,l),
(1218,36,l),
(1130,78,l),
(1048,124,o),
(881,666,o),
(715,694,c),
(920,739,o),
(1051,909,o),
(1051,1115,cs),
(1051,1339,o),
(930,1502,o),
(543,1502,cs),
(420,1502,o),
(310,1486,o),
(228,1486,cs),
(25,1486,l),
(25,1450,l),
(174,1420,l),
(174,68,l),
(24,36,l),
(24,0,l)
);
},
{
closed = 1;
nodes = (
(472,725,o),
(394,732,o),
(328,742,c),
(328,1431,l),
(350,1434,o),
(408,1452,o),
(535,1452,cs),
(789,1452,o),
(881,1339,o),
(881,1109,cs),
(881,855,o),
(779,725,o),
(520,725,cs)
);
}
);
width = 1206;
},
{
anchors = (
{
name = bottom;
pos = (754,0);
},
{
name = top;
pos = (754,1486);
}
);
layerId = "AFA1064D-EFC9-4C9F-B9B0-9118E41D87C4";
shapes = (
{
closed = 1;
nodes = (
(722,0,l),
(722,38,l),
(565,72,l),
(565,644,l),
(614,644,o),
(673,643,o),
(730,643,c),
(893,588,o),
(945,0,o),
(1052,0,cs),
(1508,0,l),
(1508,38,l),
(1456,57,l),
(1378,87,o),
(1318,631,o),
(1014,699,c),
(1229,760,o),
(1331,950,o),
(1331,1101,cs),
(1331,1367,o),
(1187,1499,o),
(740,1499,cs),
(570,1499,o),
(489,1486,o),
(353,1486,cs),
(21,1486,l),
(21,1450,l),
(165,1412,l),
(165,73,l),
(20,37,l),
(20,0,l)
);
},
{
closed = 1;
nodes = (
(671,706,o),
(597,704,o),
(565,711,c),
(565,1430,l),
(595,1434,o),
(592,1442,o),
(678,1442,cs),
(856,1442,o),
(916,1296,o),
(916,1089,cs),
(916,876,o),
(844,706,o),
(703,706,cs)
);
}
);
width = 1508;
},
{
anchors = (
{
name = bottom;
pos = (640,0);
},
{
name = top;
pos = (640,1486);
}
);
layerId = "2103F1D3-C390-4F79-A87D-298F85EA6916";
shapes = (
{
closed = 1;
nodes = (
(526,0,l),
(526,36,l),
(325,68,l),
(325,679,l),
(363,677,o),
(562,673,o),
(624,676,c),
(788,679,o),
(986,0,o),
(1068,0,cs),
(1280,0,l),
(1280,36,l),
(1198,78,l),
(1116,124,o),
(946,663,o),
(760,691,c),
(985,736,o),
(1108,945,o),
(1108,1115,cs),
(1108,1329,o),
(980,1502,o),
(589,1502,cs),
(466,1502,o),
(335,1486,o),
(253,1486,cs),
(26,1486,l),
(26,1450,l),
(165,1420,l),
(165,68,l),
(25,36,l),
(25,0,l)
);
},
{
closed = 1;
nodes = (
(517,726,o),
(391,733,o),
(325,743,c),
(325,1431,l),
(347,1434,o),
(454,1452,o),
(581,1452,cs),
(839,1452,o),
(942,1329,o),
(942,1109,cs),
(942,891,o),
(844,726,o),
(565,726,cs)
);
}
);
width = 1279;
},
{
anchors = (
{
name = bottom;
pos = (700,0);
},
{
name = top;
pos = (700,1486);
}
);
layerId = "779F1615-9D1A-4778-9767-9A030AA58B6C";
shapes = (
{
closed = 1;
nodes = (
(611,0,l),
(611,86,l),
(405,104,l),
(405,662,l),
(443,660,o),
(655,660,o),
(717,660,c),
(869,586,o),
(1059,0,o),
(1159,0,cs),
(1387,0,l),
(1387,84,l),
(1303,106,l),
(1205,128,o),
(1033,594,o),
(881,688,c),
(1071,744,o),
(1202,912,o),
(1202,1110,cs),
(1202,1358,o),
(1051,1502,o),
(675,1502,cs),
(603,1502,o),
(469,1486,o),
(325,1486,cs),
(81,1486,l),
(81,1404,l),
(241,1380,l),
(241,104,l),
(69,86,l),
(69,0,l)
);
},
{
closed = 1;
nodes = (
(657,758,o),
(475,756,o),
(405,760,c),
(405,1392,l),
(475,1396,o),
(579,1404,o),
(675,1404,cs),
(925,1404,o),
(1025,1274,o),
(1025,1096,cs),
(1025,868,o),
(883,758,o),
(705,758,cs)
);
}
);
userData = {
com.schriftgestaltung.Glyphs.lastChange = "2019-04-25 21:50:43 +0000";
};
width = 1399;
},
{
anchors = (
{
name = bottom;
pos = (776,0);
},
{
name = top;
pos = (776,1486);
}
);
layerId = "97BB7961-D669-43AB-8BBF-11FFD0C46A4B";
shapes = (
{
closed = 1;
nodes = (
(760,0,l),
(760,132,l),
(583,153,l),
(583,632,l),
(628,632,o),
(739,632,o),
(791,632,c),
(942,577,o),
(1052,0,o),
(1151,0,cs),
(1544,0,l),
(1544,131,l),
(1486,150,l),
(1391,174,o),
(1295,603,o),
(1064,687,c),
(1263,748,o),
(1362,912,o),
(1362,1101,cs),
(1362,1379,o),
(1196,1499,o),
(774,1499,cs),
(642,1499,o),
(529,1486,o),
(416,1486,cs),
(84,1486,l),
(84,1348,l),
(231,1319,l),
(231,153,l),
(78,132,l),
(78,0,l)
);
},
{
closed = 1;
nodes = (
(736,762,o),
(613,760,o),
(583,767,c),
(583,1357,l),
(611,1361,o),
(683,1366,o),
(739,1366,cs),
(921,1366,o),
(1002,1277,o),
(1002,1089,cs),
(1002,864,o),
(923,762,o),
(766,762,cs)
);
}
);
width = 1551;
}
);
metricLeft = H;
unicode = 82;
}
{
color = 4;
glyphname = T;
kernLeft = T;
kernRight = T;
layers = (
{
anchors = (
{
name = bottom;
pos = (681,0);
},
{
name = center;
pos = (681,743);
},
{
name = top;
pos = (681,1486);
}
);
layerId = UUID0;
shapes = (
{
closed = 1;
nodes = (
(324,86,l),
(324,0,l),
(1044,0,l),
(1044,86,l),
(767,104,l),
(767,1396,l),
(1144,1384,l),
(1208,978,l),
(1318,978,l),
(1284,1486,l),
(81,1486,l),
(44,978,l),
(154,978,l),
(221,1384,l),
(595,1396,l),
(595,104,l)
);
}
);
width = 1362;
},
{
anchors = (
{
name = bottom;
pos = (730,0);
},
{
name = center;
pos = (730,743);
},
{
name = top;
pos = (730,1486);
}
);
layerId = "DEBB1CE4-A72D-4960-969E-E04A036D2FA1";
shapes = (
{
closed = 1;
nodes = (
(290,132,l),
(290,0,l),
(1170,0,l),
(1170,132,l),
(903,154,l),
(903,1338,l),
(1152,1328,l),
(1240,882,l),
(1418,882,l),
(1386,1486,l),
(74,1486,l),
(42,882,l),
(220,882,l),
(310,1328,l),
(557,1338,l),
(557,154,l)
);
}
);
width = 1460;
},
{
anchors = (
{
name = bottom;
pos = (713,0);
},
{
name = center;
pos = (713,743);
},
{
name = top;
pos = (713,1486);
}
);
layerId = "184155C8-9F61-4F1C-9784-DDA8EA717636";
shapes = (
{
closed = 1;
nodes = (
(303,38,l),
(303,0,l),
(1123,0,l),
(1123,38,l),
(904,73,l),
(904,1437,l),
(1049,1419,l),
(1229,924,l),
(1391,924,l),
(1359,1486,l),
(67,1486,l),
(35,924,l),
(195,924,l),
(378,1419,l),
(522,1437,l),
(522,73,l)
);
}
);
width = 1426;
},
{
anchors = (
{
name = bottom;
pos = (657,0);
},
{
name = center;
pos = (657,743);
},
{
name = top;
pos = (657,1486);
}
);
layerId = "C9B9556E-C2FD-4F62-BB40-44923C452C22";
shapes = (
{
closed = 1;
nodes = (
(309,36,l),
(309,0,l),
(1009,0,l),
(1009,36,l),
(735,68,l),
(735,1433,l),
(1089,1412,l),
(1188,1008,l),
(1266,1008,l),
(1232,1486,l),
(83,1486,l),
(48,1008,l),
(126,1008,l),
(226,1412,l),
(579,1433,l),
(579,68,l)
);
}
);
width = 1314;
},
{
anchors = (
{
name = bottom;
pos = (761,0);
},
{
name = center;
pos = (761,743);
},
{
name = top;
pos = (761,1486);
}
);
layerId = "AFA1064D-EFC9-4C9F-B9B0-9118E41D87C4";
shapes = (
{
closed = 1;
nodes = (
(340,38,l),
(340,0,l),
(1181,0,l),
(1181,38,l),
(968,66,l),
(968,1437,l),
(1142,1419,l),
(1317,901,l),
(1479,901,l),
(1447,1486,l),
(74,1486,l),
(42,901,l),
(202,901,l),
(380,1419,l),
(563,1437,l),
(563,68,l)
);
}
);
width = 1521;
},
{
anchors = (
{
name = bottom;
pos = (695,0);
},
{
name = center;
pos = (695,743);
},
{
name = top;
pos = (695,1486);
}
);
layerId = "2103F1D3-C390-4F79-A87D-298F85EA6916";
shapes = (
{
closed = 1;
nodes = (
(343,36,l),
(343,0,l),
(1049,0,l),
(1049,36,l),
(775,68,l),
(775,1433,l),
(1166,1412,l),
(1265,1008,l),
(1343,1008,l),
(1303,1486,l),
(87,1486,l),
(47,1008,l),
(125,1008,l),
(225,1412,l),
(615,1433,l),
(615,68,l)
);
}
);
width = 1390;
},
{
anchors = (
{
name = bottom;
pos = (702,0);
},
{
name = center;
pos = (702,743);
},
{
name = top;
pos = (702,1486);
}
);
layerId = "779F1615-9D1A-4778-9767-9A030AA58B6C";
shapes = (
{
closed = 1;
nodes = (
(335,86,l),
(335,0,l),
(1075,0,l),
(1075,86,l),
(788,104,l),
(788,1396,l),
(1210,1384,l),
(1274,958,l),
(1384,958,l),
(1350,1486,l),
(59,1486,l),
(20,958,l),
(130,958,l),
(199,1384,l),
(616,1396,l),
(616,104,l)
);
}
);
userData = {
com.schriftgestaltung.Glyphs.lastChange = "2019-04-25 21:50:43 +0000";
};
width = 1404;
},
{
anchors = (
{
name = bottom;
pos = (768,0);
},
{
name = center;
pos = (768,743);
},
{
name = top;
pos = (768,1486);
}
);
layerId = "97BB7961-D669-43AB-8BBF-11FFD0C46A4B";
shapes = (
{
closed = 1;
nodes = (
(318,132,l),
(318,0,l),
(1219,0,l),
(1219,132,l),
(943,153,l),
(943,1338,l),
(1229,1328,l),
(1325,862,l),
(1523,862,l),
(1491,1486,l),
(50,1486,l),
(13,862,l),
(211,862,l),
(312,1328,l),
(593,1338,l),
(593,153,l)
);
}
);
width = 1536;
}
);
metricRight = "=|";
unicode = 84;
}
{
color = 4;
glyphname = U;
kernLeft = U;
kernRight = U;
layers = (
{
anchors = (
{
name = bottom;
pos = (738,0);
},
{
name = center;
pos = (750,710);
},
{
name = ogonek;
pos = (1328,10);
},
{
name = top;
pos = (738,1486);
},
{
name = topright;
pos = (1456,1486);
}
);
layerId = UUID0;
shapes = (
{
closed = 1;
nodes = (
(1062,-16,o),
(1288,176,o),
(1288,610,cs),
(1288,1378,l),
(1440,1400,l),
(1440,1486,l),
(996,1486,l),
(996,1400,l),
(1162,1376,l),
(1162,602,ls),
(1162,262,o),
(1030,82,o),
(774,82,cs),
(540,82,o),
(372,204,o),
(372,618,cs),
(372,1378,l),
(544,1400,l),
(544,1486,l),
(54,1486,l),
(54,1400,l),
(204,1378,l),
(204,636,ls),
(204,194,o),
(372,-16,o),
(758,-16,cs)
);
}
);
width = 1476;
},
{
anchors = (
{
name = bottom;
pos = (745,0);
},
{
name = center;
pos = (753,710);
},
{
name = ogonek;
pos = (1340,10);
},
{
name = top;
pos = (745,1486);
},
{
name = topright;
pos = (1469,1486);
}
);
layerId = "DEBB1CE4-A72D-4960-969E-E04A036D2FA1";
shapes = (
{
closed = 1;
nodes = (
(1103,-16,o),
(1343,157,o),
(1343,591,cs),
(1343,1319,l),
(1474,1347,l),
(1474,1486,l),
(953,1486,l),
(953,1347,l),
(1127,1318,l),
(1127,572,ls),
(1127,308,o),
(1042,123,o),
(824,123,cs),
(608,123,o),
(511,284,o),
(511,577,cs),
(511,1316,l),
(678,1347,l),
(678,1486,l),
(32,1486,l),
(32,1347,l),
(157,1319,l),
(157,605,ls),
(157,170,o),
(366,-16,o),
(774,-16,cs)
);
}
);
width = 1489;
},
{
anchors = (
{
name = bottom;
pos = (679,0);
},
{
name = center;
pos = (692,710);
},
{
name = ogonek;
pos = (1221,10);
},
{
name = top;
pos = (679,1486);
},
{
name = topright;
pos = (1337,1486);
}
);
layerId = "184155C8-9F61-4F1C-9784-DDA8EA717636";
shapes = (
{
closed = 1;
nodes = (
(983,-16,o),
(1211,123,o),
(1211,554,cs),
(1211,1412,l),
(1342,1450,l),
(1342,1486,l),
(995,1486,l),
(995,1450,l),
(1141,1412,l),
(1141,554,ls),
(1141,205,o),
(978,35,o),
(787,35,cs),
(633,35,o),
(538,145,o),
(538,438,cs),
(538,1412,l),
(682,1450,l),
(682,1486,l),
(20,1486,l),
(20,1450,l),
(153,1412,l),
(153,521,ls),
(153,136,o),
(362,-16,o),
(757,-16,cs)
);
}
);
width = 1357;
},
{
anchors = (
{
name = bottom;
pos = (671,0);
},
{
name = center;
pos = (685,710);
},
{
name = ogonek;
pos = (1207,10);
},
{
name = top;
pos = (671,1486);
},
{
name = topright;
pos = (1321,1486);
}
);
layerId = "C9B9556E-C2FD-4F62-BB40-44923C452C22";
shapes = (
{
closed = 1;
nodes = (
(1019,-20,o),
(1173,175,o),
(1178,610,cs),
(1188,1421,l),
(1321,1450,l),
(1321,1486,l),
(950,1486,l),
(950,1450,l),
(1101,1419,l),
(1106,602,ls),
(1108,218,o),
(957,32,o),
(718,32,cs),
(484,32,o),
(333,125,o),
(333,568,cs),
(333,1421,l),
(505,1450,l),
(505,1486,l),
(22,1486,l),
(22,1450,l),
(172,1421,l),
(172,577,ls),
(172,134,o),
(360,-20,o),
(726,-20,cs)
);
}
);
width = 1341;
},
{
anchors = (
{
name = bottom;
pos = (717,0);
},
{
name = center;
pos = (723,710);
},
{
name = ogonek;
pos = (1290,10);
},
{
name = top;
pos = (717,1486);
},
{
name = topright;
pos = (1413,1486);
}
);
layerId = "AFA1064D-EFC9-4C9F-B9B0-9118E41D87C4";
shapes = (
{
closed = 1;
nodes = (
(1059,-16,o),
(1287,123,o),
(1287,554,cs),
(1287,1412,l),
(1418,1450,l),
(1418,1486,l),
(1071,1486,l),
(1071,1450,l),
(1217,1412,l),
(1217,554,ls),
(1217,205,o),
(1054,35,o),
(817,35,cs),
(633,35,o),
(544,145,o),
(544,438,cs),
(544,1412,l),
(688,1450,l),
(688,1486,l),
(20,1486,l),
(20,1450,l),
(153,1412,l),
(153,521,ls),
(153,136,o),
(362,-16,o),
(787,-16,cs)
);
}
);
width = 1433;
},
{
anchors = (
{
name = bottom;
pos = (701,0);
},
{
name = center;
pos = (715,710);
},
{
name = ogonek;
pos = (1262,10);
},
{
name = top;
pos = (701,1486);
},
{
name = topright;
pos = (1382,1486);
}
);
layerId = "2103F1D3-C390-4F79-A87D-298F85EA6916";
shapes = (
{
closed = 1;
nodes = (
(1055,-20,o),
(1250,175,o),
(1255,640,cs),
(1264,1421,l),
(1387,1450,l),
(1387,1486,l),
(1026,1486,l),
(1026,1450,l),
(1177,1419,l),
(1182,632,ls),
(1185,218,o),
(993,32,o),
(754,32,cs),
(480,32,o),
(329,125,o),
(329,598,cs),
(329,1421,l),
(501,1450,l),
(501,1486,l),
(18,1486,l),
(18,1450,l),
(168,1421,l),
(168,607,ls),
(168,134,o),
(356,-20,o),
(762,-20,cs)
);
}
);
width = 1402;
},
{
anchors = (
{
name = bottom;
pos = (769,0);
},
{
name = center;
pos = (785,710);
},
{
name = ogonek;
pos = (1384,10);
},
{
name = top;
pos = (769,1486);
},
{
name = topright;
pos = (1518,1486);
}
);
layerId = "779F1615-9D1A-4778-9767-9A030AA58B6C";
shapes = (
{
closed = 1;
nodes = (
(1108,-16,o),
(1346,176,o),
(1346,610,cs),
(1346,1378,l),
(1505,1400,l),
(1505,1486,l),
(1039,1486,l),
(1039,1400,l),
(1213,1376,l),
(1213,602,ls),
(1213,262,o),
(1075,82,o),
(806,82,cs),
(560,82,o),
(384,204,o),
(384,618,cs),
(384,1378,l),
(564,1400,l),
(564,1486,l),
(50,1486,l),
(50,1400,l),
(207,1378,l),
(207,636,ls),
(207,194,o),
(384,-16,o),
(789,-16,cs)
);
}
);
userData = {
com.schriftgestaltung.Glyphs.lastChange = "2019-04-25 21:50:43 +0000";
};
width = 1538;
},
{
anchors = (
{
name = bottom;
pos = (755,0);
},
{
name = center;
pos = (781,710);
},
{
name = ogonek;
pos = (1358,10);
},
{
name = top;
pos = (755,1486);
},
{
name = topright;
pos = (1489,1486);
}
);
layerId = "97BB7961-D669-43AB-8BBF-11FFD0C46A4B";
shapes = (
{
closed = 1;
nodes = (
(1113,-16,o),
(1353,157,o),
(1353,591,cs),
(1353,1319,l),
(1484,1347,l),
(1484,1486,l),
(963,1486,l),
(963,1347,l),
(1137,1318,l),
(1137,572,ls),
(1137,308,o),
(1052,123,o),
(834,123,cs),
(618,123,o),
(521,284,o),
(521,577,cs),
(521,1316,l),
(688,1347,l),
(688,1486,l),
(42,1486,l),
(42,1347,l),
(167,1319,l),
(167,605,ls),
(167,170,o),
(376,-16,o),
(784,-16,cs)
);
}
);
width = 1509;
}
);
unicode = 85;
}
{
color = 4;
glyphname = Y;
kernLeft = Y;
kernRight = Y;
layers = (
{
anchors = (
{
name = bottom;
pos = (640,0);
},
{
name = center;
pos = (641,1134);
},
{
name = top;
pos = (640,1486);
},
{
name = topleft;
pos = (20,1486);
}
);
layerId = UUID0;
shapes = (
{
closed = 1;
nodes = (
(334,86,l),
(334,0,l),
(952,0,l),
(952,86,l),
(724,106,l),
(724,574,l),
(1168,1378,l),
(1300,1400,l),
(1300,1486,l),
(866,1486,l),
(866,1400,l),
(1034,1378,l),
(732,812,l),
(654,652,l),
(582,812,l),
(292,1378,l),
(460,1400,l),
(460,1486,l),
(-18,1486,l),
(-18,1400,l),
(106,1376,l),
(556,572,l),
(556,104,l)
);
}
);
width = 1280;
},
{
anchors = (
{
name = bottom;
pos = (653,0);
},
{
name = center;
pos = (671,1134);
},
{
name = top;
pos = (653,1486);
},
{
name = topleft;
pos = (20,1486);
}
);
layerId = "DEBB1CE4-A72D-4960-969E-E04A036D2FA1";
shapes = (
{
closed = 1;
nodes = (
(262,132,l),
(262,0,l),
(1044,0,l),
(1044,132,l),
(831,153,l),
(831,598,l),
(1228,1323,l),
(1350,1347,l),
(1350,1486,l),
(839,1486,l),
(839,1347,l),
(993,1319,l),
(785,859,l),
(734,730,l),
(684,859,l),
(456,1319,l),
(587,1347,l),
(587,1486,l),
(-45,1486,l),
(-45,1347,l),
(66,1320,l),
(468,596,l),
(468,154,l)
);
}
);
width = 1305;
},
{
anchors = (
{
name = bottom;
pos = (648,0);
},
{
name = center;
pos = (711,1134);
},
{
name = top;
pos = (648,1486);
},
{
name = topleft;
pos = (20,1486);
}
);
layerId = "184155C8-9F61-4F1C-9784-DDA8EA717636";
shapes = (
{
closed = 1;
nodes = (
(280,38,l),
(280,0,l),
(1033,0,l),
(1033,38,l),
(840,71,l),
(840,615,l),
(1191,1416,l),
(1377,1450,l),
(1377,1486,l),
(866,1486,l),
(866,1450,l),
(1088,1412,l),
(848,781,l),
(797,664,l),
(747,780,l),
(481,1412,l),
(603,1450,l),
(603,1486,l),
(-39,1486,l),
(-39,1450,l),
(72,1413,l),
(458,579,l),
(458,72,l)
);
}
);
width = 1295;
},
{
anchors = (
{
name = bottom;
pos = (573,0);
},
{
name = center;
pos = (581,1134);
},
{
name = top;
pos = (573,1486);
},
{
name = topleft;
pos = (20,1486);
}
);
layerId = "C9B9556E-C2FD-4F62-BB40-44923C452C22";
shapes = (
{
closed = 1;
nodes = (
(296,36,l),
(296,0,l),
(872,0,l),
(872,36,l),
(660,69,l),
(660,587,l),
(1050,1432,l),
(1176,1451,l),
(1176,1486,l),
(788,1486,l),
(788,1451,l),
(946,1430,l),
(665,797,l),
(607,644,l),
(550,807,l),
(257,1430,l),
(419,1451,l),
(419,1486,l),
(-30,1485,l),
(-30,1450,l),
(88,1430,l),
(510,585,l),
(510,69,l)
);
}
);
width = 1146;
},
{
anchors = (
{
name = bottom;
pos = (663,0);
},
{
name = center;
pos = (761,1134);
},
{
name = top;
pos = (663,1486);
},
{
name = topleft;
pos = (20,1486);
}
);
layerId = "AFA1064D-EFC9-4C9F-B9B0-9118E41D87C4";
shapes = (
{
closed = 1;
nodes = (
(321,38,l),
(321,0,l),
(1074,0,l),
(1074,38,l),
(881,71,l),
(881,620,l),
(1221,1416,l),
(1407,1450,l),
(1407,1486,l),
(916,1486,l),
(916,1450,l),
(1118,1412,l),
(878,781,l),
(828,664,l),
(778,780,l),
(481,1412,l),
(623,1450,l),
(623,1486,l),
(-39,1486,l),
(-39,1450,l),
(72,1413,l),
(497,584,l),
(497,72,l)
);
}
);
width = 1325;
},
{
anchors = (
{
name = bottom;
pos = (613,0);
},
{
name = center;
pos = (621,1134);
},
{
name = top;
pos = (613,1486);
},
{
name = topleft;
pos = (20,1486);
}
);
layerId = "2103F1D3-C390-4F79-A87D-298F85EA6916";
shapes = (
{
closed = 1;
nodes = (
(336,36,l),
(336,0,l),
(912,0,l),
(912,36,l),
(700,69,l),
(700,587,l),
(1150,1432,l),
(1276,1451,l),
(1276,1486,l),
(888,1486,l),
(888,1451,l),
(1044,1430,l),
(714,797,l),
(656,654,l),
(590,797,l),
(240,1430,l),
(399,1451,l),
(399,1486,l),
(-50,1485,l),
(-50,1450,l),
(68,1430,l),
(550,585,l),
(550,69,l)
);
}
);
width = 1226;
},
{
anchors = (
{
name = bottom;
pos = (679,0);
},
{
name = center;
pos = (681,1134);
},
{
name = top;
pos = (679,1486);
},
{
name = topleft;
pos = (20,1486);
}
);
layerId = "779F1615-9D1A-4778-9767-9A030AA58B6C";
shapes = (
{
closed = 1;
nodes = (
(352,86,l),
(352,0,l),
(1010,0,l),
(1010,86,l),
(762,106,l),
(762,574,l),
(1256,1378,l),
(1388,1400,l),
(1388,1486,l),
(954,1486,l),
(954,1400,l),
(1122,1378,l),
(770,812,l),
(692,652,l),
(620,812,l),
(280,1378,l),
(448,1400,l),
(448,1486,l),
(-30,1486,l),
(-30,1400,l),
(94,1378,l),
(594,572,l),
(594,104,l)
);
}
);
userData = {
com.schriftgestaltung.Glyphs.lastChange = "2019-04-25 21:50:43 +0000";
};
width = 1358;
},
{
anchors = (
{
name = bottom;
pos = (707,0);
},
{
name = center;
pos = (741,1134);
},
{
name = top;
pos = (707,1486);
},
{
name = topleft;
pos = (20,1486);
}
);
layerId = "97BB7961-D669-43AB-8BBF-11FFD0C46A4B";
shapes = (
{
closed = 1;
nodes = (
(321,132,l),
(321,0,l),
(1103,0,l),
(1103,132,l),
(890,153,l),
(890,568,l),
(1337,1323,l),
(1479,1347,l),
(1479,1486,l),
(928,1486,l),
(928,1347,l),
(1102,1319,l),
(844,833,l),
(793,704,l),
(743,833,l),
(475,1319,l),
(626,1347,l),
(626,1486,l),
(-66,1486,l),
(-66,1347,l),
(65,1320,l),
(527,566,l),
(527,154,l)
);
}
);
width = 1413;
}
);
unicode = 89;
}
{
glyphname = bracketleft;
kernLeft = bracketleft;
kernRight = bracketleft;
layers = (
{
layerId = UUID0;
shapes = (
{
closed = 1;
nodes = (
(198,-88,ls),
(198,-246,o),
(238,-274,o),
(362,-274,cs),
(468,-274,o),
(544,-258,o),
(628,-238,c),
(628,-164,l),
(342,-164,l),
(342,1500,l),
(628,1500,l),
(628,1574,l),
(550,1590,o),
(474,1608,o),
(362,1608,cs),
(238,1608,o),
(198,1580,o),
(198,1422,c)
);
}
);
width = 852;
},
{
layerId = "DEBB1CE4-A72D-4960-969E-E04A036D2FA1";
shapes = (
{
closed = 1;
nodes = (
(195,-58,ls),
(195,-243,o),
(290,-274,o),
(445,-274,cs),
(551,-274,o),
(642,-255,o),
(724,-234,c),
(724,-121,l),
(480,-121,l),
(480,1457,l),
(724,1457,l),
(724,1568,l),
(643,1587,o),
(552,1608,o),
(445,1608,cs),
(290,1608,o),
(195,1577,o),
(195,1392,c)
);
}
);
width = 913;
},
{
layerId = "184155C8-9F61-4F1C-9784-DDA8EA717636";
shapes = (
{
closed = 1;
nodes = (
(184,-52,ls),
(184,-237,o),
(271,-274,o),
(426,-274,cs),
(532,-274,o),
(623,-255,o),
(703,-234,c),
(703,-197,l),
(505,-197,l),
(505,1533,l),
(703,1533,l),
(703,1568,l),
(622,1587,o),
(533,1608,o),
(426,1608,cs),
(271,1608,o),
(184,1571,o),
(184,1386,c)
);
}
);
width = 903;
},
{
layerId = "C9B9556E-C2FD-4F62-BB40-44923C452C22";
shapes = (
{
closed = 1;
nodes = (
(157,-154,ls),
(157,-252,o),
(197,-274,o),
(301,-274,cs),
(371,-274,o),
(451,-258,o),
(527,-238,c),
(527,-198,l),
(261,-198,l),
(261,1534,l),
(527,1534,l),
(527,1574,l),
(457,1590,o),
(377,1608,o),
(301,1608,cs),
(197,1608,o),
(157,1586,o),
(157,1488,c)
);
}
);
width = 671;
},
{
layerId = "AFA1064D-EFC9-4C9F-B9B0-9118E41D87C4";
shapes = (
{
closed = 1;
nodes = (
(190,-39,ls),
(190,-224,o),
(259,-274,o),
(429,-274,cs),
(546,-274,o),
(646,-255,o),
(734,-234,c),
(734,-197,l),
(519,-197,l),
(519,1533,l),
(734,1533,l),
(734,1568,l),
(645,1587,o),
(550,1608,o),
(429,1608,cs),
(259,1608,o),
(190,1558,o),
(190,1373,c)
);
}
);
width = 880;
},
{
layerId = "2103F1D3-C390-4F79-A87D-298F85EA6916";
shapes = (
{
closed = 1;
nodes = (
(177,-150,ls),
(177,-248,o),
(218,-274,o),
(334,-274,cs),
(412,-274,o),
(502,-258,o),
(587,-238,c),
(587,-198,l),
(285,-198,l),
(285,1534,l),
(587,1534,l),
(587,1574,l),
(509,1590,o),
(419,1608,o),
(334,1608,cs),
(218,1608,o),
(177,1582,o),
(177,1484,c)
);
}
);
width = 781;
},
{
layerId = "779F1615-9D1A-4778-9767-9A030AA58B6C";
shapes = (
{
closed = 1;
nodes = (
(198,-88,ls),
(198,-246,o),
(238,-274,o),
(362,-274,cs),
(468,-274,o),
(544,-258,o),
(628,-238,c),
(628,-164,l),
(342,-164,l),
(342,1500,l),
(628,1500,l),
(628,1574,l),
(550,1590,o),
(474,1608,o),
(362,1608,cs),
(238,1608,o),
(198,1580,o),
(198,1422,c)
);
}
);
userData = {
com.schriftgestaltung.Glyphs.lastChange = "2019-04-25 21:50:43 +0000";
};
width = 852;
},
{
layerId = "97BB7961-D669-43AB-8BBF-11FFD0C46A4B";
shapes = (
{
closed = 1;
nodes = (
(195,-58,ls),
(195,-243,o),
(290,-274,o),
(445,-274,cs),
(551,-274,o),
(642,-255,o),
(724,-234,c),
(724,-121,l),
(480,-121,l),
(480,1457,l),
(724,1457,l),
(724,1568,l),
(643,1587,o),
(552,1608,o),
(445,1608,cs),
(290,1608,o),
(195,1577,o),
(195,1392,c)
);
}
);
width = 913;
}
);
metricLeft = "=|bracketright";
metricRight = "=|bracketright";
unicode = 91;
}
{
glyphname = bracketright;
kernLeft = bracketright;
kernRight = bracketright;
layers = (
{
layerId = UUID0;
shapes = (
{
closed = 1;
nodes = (
(654,1580,o),
(614,1608,o),
(490,1608,cs),
(378,1608,o),
(302,1590,o),
(224,1574,c),
(224,1500,l),
(510,1500,l),
(510,-164,l),
(224,-164,l),
(224,-238,l),
(308,-258,o),
(384,-274,o),
(490,-274,cs),
(614,-274,o),
(654,-246,o),
(654,-88,cs),
(654,1422,l)
);
}
);
width = 852;
},
{
layerId = "DEBB1CE4-A72D-4960-969E-E04A036D2FA1";
shapes = (
{
closed = 1;
nodes = (
(698,1577,o),
(623,1608,o),
(468,1608,cs),
(361,1608,o),
(270,1587,o),
(189,1568,c),
(189,1457,l),
(433,1457,l),
(433,-121,l),
(189,-121,l),
(189,-234,l),
(271,-255,o),
(362,-274,o),
(468,-274,cs),
(623,-274,o),
(698,-243,o),
(698,-58,cs),
(698,1392,l)
);
}
);
width = 893;
},
{
layerId = "184155C8-9F61-4F1C-9784-DDA8EA717636";
shapes = (
{
closed = 1;
nodes = (
(699,1571,o),
(632,1608,o),
(477,1608,cs),
(370,1608,o),
(281,1587,o),
(200,1568,c),
(200,1533,l),
(398,1533,l),
(398,-197,l),
(200,-197,l),
(200,-234,l),
(280,-255,o),
(371,-274,o),
(477,-274,cs),
(632,-274,o),
(699,-237,o),
(699,-52,cs),
(699,1386,l)
);
}
);
width = 883;
},
{
layerId = "C9B9556E-C2FD-4F62-BB40-44923C452C22";
shapes = (
{
closed = 1;
nodes = (
(514,1586,o),
(474,1608,o),
(370,1608,cs),
(294,1608,o),
(214,1590,o),
(144,1574,c),
(144,1534,l),
(410,1534,l),
(410,-198,l),
(144,-198,l),
(144,-238,l),
(220,-258,o),
(300,-274,o),
(370,-274,cs),
(474,-274,o),
(514,-252,o),
(514,-154,cs),
(514,1488,l)
);
}
);
width = 671;
},
{
layerId = "AFA1064D-EFC9-4C9F-B9B0-9118E41D87C4";
shapes = (
{
closed = 1;
nodes = (
(690,1558,o),
(621,1608,o),
(451,1608,cs),
(330,1608,o),
(235,1587,o),
(146,1568,c),
(146,1533,l),
(361,1533,l),
(361,-197,l),
(146,-197,l),
(146,-234,l),
(234,-255,o),
(334,-274,o),
(451,-274,cs),
(621,-274,o),
(690,-224,o),
(690,-39,cs),
(690,1373,l)
);
}
);
width = 880;
},
{
layerId = "2103F1D3-C390-4F79-A87D-298F85EA6916";
shapes = (
{
closed = 1;
nodes = (
(604,1582,o),
(563,1608,o),
(447,1608,cs),
(362,1608,o),
(272,1590,o),
(194,1574,c),
(194,1534,l),
(496,1534,l),
(496,-198,l),
(194,-198,l),
(194,-238,l),
(279,-258,o),
(369,-274,o),
(447,-274,cs),
(563,-274,o),
(604,-248,o),
(604,-150,cs),
(604,1484,l)
);
}
);
width = 781;
},
{
layerId = "779F1615-9D1A-4778-9767-9A030AA58B6C";
shapes = (
{
closed = 1;
nodes = (
(654,1580,o),
(614,1608,o),
(490,1608,cs),
(378,1608,o),
(302,1590,o),
(224,1574,c),
(224,1500,l),
(510,1500,l),
(510,-164,l),
(224,-164,l),
(224,-238,l),
(308,-258,o),
(384,-274,o),
(490,-274,cs),
(614,-274,o),
(654,-246,o),
(654,-88,cs),
(654,1422,l)
);
}
);
userData = {
com.schriftgestaltung.Glyphs.lastChange = "2019-04-25 21:50:43 +0000";
};
width = 852;
},
{
layerId = "97BB7961-D669-43AB-8BBF-11FFD0C46A4B";
shapes = (
{
closed = 1;
nodes = (
(698,1577,o),
(623,1608,o),
(468,1608,cs),
(361,1608,o),
(270,1587,o),
(189,1568,c),
(189,1457,l),
(433,1457,l),
(433,-121,l),
(189,-121,l),
(189,-234,l),
(271,-255,o),
(362,-274,o),
(468,-274,cs),
(623,-274,o),
(698,-243,o),
(698,-58,cs),
(698,1392,l)
);
}
);
width = 893;
}
);
unicode = 93;
}
{
category = Letter;
color = 4;
glyphname = b;
kernLeft = b;
kernRight = o;
layers = (
{
anchors = (
{
name = bottom;
pos = (585,0);
},
{
name = center;
pos = (171,1309);
},
{
name = top;
pos = (669,1110);
}
);
layerId = UUID0;
shapes = (
{
closed = 1;
nodes = (
(162,1512,l),
(162,54,l),
(188,28,o),
(352,-22,o),
(534,-22,cs),
(884,-22,o),
(1104,254,o),
(1104,596,cs),
(1104,980,o),
(890,1140,o),
(666,1140,cs),
(510,1140,o),
(394,1068,o),
(324,1002,c),
(324,1610,l),
(286,1638,l),
(282,1638,l),
(-10,1604,l),
(-10,1530,l)
);
},
{
closed = 1;
nodes = (
(778,1018,o),
(933,884,o),
(928,568,cs),
(923,255,o),
(778,80,o),
(548,80,cs),
(448,80,o),
(344,104,o),
(324,150,c),
(324,890,l),
(370,940,o),
(474,1018,o),
(600,1018,cs)
);
}
);
width = 1170;
},
{
anchors = (
{
name = bottom;
pos = (626,0);
},
{
name = center;
pos = (200,1309);
},
{
name = top;
pos = (759,1110);
}
);
layerId = "DEBB1CE4-A72D-4960-969E-E04A036D2FA1";
shapes = (
{
closed = 1;
nodes = (
(145,1450,l),
(145,54,l),
(173,35,o),
(322,-22,o),
(585,-22,cs),
(959,-22,o),
(1186,245,o),
(1186,592,cs),
(1186,984,o),
(995,1140,o),
(756,1140,cs),
(631,1140,o),
(527,1080,o),
(466,1017,c),
(466,1600,l),
(401,1639,l),
(397,1639,l),
(3,1592,l),
(3,1477,l)
);
},
{
closed = 1;
nodes = (
(754,944,o),
(842,837,o),
(839,558,cs),
(836,248,o),
(737,102,o),
(595,102,cs),
(532,102,o),
(478,120,o),
(466,146,c),
(466,869,l),
(497,905,o),
(559,944,o),
(632,944,cs)
);
}
);
width = 1252;
},
{
anchors = (
{
name = bottom;
pos = (566,0);
},
{
name = center;
pos = (217,1279);
},
{
name = top;
pos = (709,1005);
}
);
layerId = "184155C8-9F61-4F1C-9784-DDA8EA717636";
shapes = (
{
closed = 1;
nodes = (
(101,1433,l),
(101,54,l),
(129,35,o),
(280,-22,o),
(598,-22,cs),
(849,-22,o),
(1087,179,o),
(1087,574,cs),
(1087,860,o),
(962,1044,o),
(702,1044,cs),
(571,1044,o),
(451,949,o),
(432,893,c),
(432,1590,l),
(378,1634,l),
(340,1634,l),
(-10,1519,l),
(-10,1480,l)
);
},
{
closed = 1;
nodes = (
(644,909,o),
(726,824,o),
(726,522,cs),
(726,200,o),
(685,37,o),
(569,37,cs),
(519,37,o),
(455,63,o),
(432,113,c),
(432,837,l),
(446,854,o),
(471,909,o),
(555,909,cs)
);
}
);
width = 1131;
},
{
anchors = (
{
name = bottom;
pos = (502,0);
},
{
name = center;
pos = (218,1309);
},
{
name = top;
pos = (579,1005);
}
);
layerId = "C9B9556E-C2FD-4F62-BB40-44923C452C22";
shapes = (
{
closed = 1;
nodes = (
(119,1560,l),
(119,54,l),
(155,54,o),
(293,-22,o),
(479,-22,cs),
(749,-22,o),
(962,219,o),
(962,547,cs),
(962,857,o),
(821,1034,o),
(576,1034,cs),
(398,1034,o),
(289,916,o),
(258,865,c),
(258,1625,l),
(244,1638,l),
(202,1638,l),
(-17,1606,l),
(-17,1579,l)
);
},
{
closed = 1;
nodes = (
(684,966,o),
(795,828,o),
(795,532,cs),
(795,204,o),
(681,28,o),
(466,28,cs),
(353,28,o),
(286,82,o),
(258,116,c),
(258,830,l),
(303,880,o),
(403,966,o),
(537,966,cs)
);
}
);
width = 1004;
},
{
anchors = (
{
name = bottom;
pos = (596,0);
},
{
name = center;
pos = (212,1279);
},
{
name = top;
pos = (739,1005);
}
);
layerId = "AFA1064D-EFC9-4C9F-B9B0-9118E41D87C4";
shapes = (
{
closed = 1;
nodes = (
(91,1433,l),
(91,54,l),
(119,35,o),
(280,-22,o),
(578,-22,cs),
(915,-22,o),
(1157,179,o),
(1157,577,cs),
(1157,884,o),
(986,1044,o),
(754,1044,cs),
(595,1044,o),
(470,947,o),
(434,890,c),
(434,1590,l),
(378,1634,l),
(340,1634,l),
(-20,1519,l),
(-20,1480,l)
);
},
{
closed = 1;
nodes = (
(693,909,o),
(769,819,o),
(768,502,cs),
(769,201,o),
(719,37,o),
(549,37,cs),
(521,37,o),
(457,63,o),
(434,113,c),
(434,837,l),
(460,872,o),
(512,909,o),
(587,909,cs)
);
}
);
width = 1192;
},
{
anchors = (
{
name = bottom;
pos = (532,0);
},
{
name = center;
pos = (215,1309);
},
{
name = top;
pos = (599,1005);
}
);
layerId = "2103F1D3-C390-4F79-A87D-298F85EA6916";
shapes = (
{
closed = 1;
nodes = (
(119,1560,l),
(119,54,l),
(155,54,o),
(317,-22,o),
(503,-22,cs),
(792,-22,o),
(1024,198,o),
(1024,547,cs),
(1024,857,o),
(857,1038,o),
(595,1038,cs),
(411,1038,o),
(289,916,o),
(258,865,c),
(258,1625,l),
(244,1638,l),
(202,1638,l),
(-17,1606,l),
(-17,1579,l)
);
},
{
closed = 1;
nodes = (
(718,970,o),
(863,832,o),
(863,532,cs),
(863,150,o),
(708,28,o),
(493,28,cs),
(380,28,o),
(286,82,o),
(258,116,c),
(258,830,l),
(303,880,o),
(416,970,o),
(568,970,cs)
);
}
);
width = 1064;
},
{
anchors = (
{
name = bottom;
pos = (606,0);
},
{
name = center;
pos = (190,1309);
},
{
name = top;
pos = (669,1110);
}
);
layerId = "779F1615-9D1A-4778-9767-9A030AA58B6C";
shapes = (
{
closed = 1;
nodes = (
(127,1508,l),
(127,54,l),
(157,28,o),
(346,-22,o),
(523,-22,cs),
(921,-22,o),
(1147,254,o),
(1147,596,cs),
(1147,980,o),
(915,1140,o),
(669,1140,cs),
(482,1140,o),
(374,1068,o),
(291,1002,c),
(291,1610,l),
(251,1638,l),
(246,1638,l),
(-20,1604,l),
(-20,1526,l)
);
},
{
closed = 1;
nodes = (
(807,1018,o),
(970,884,o),
(970,568,cs),
(970,255,o),
(816,79,o),
(540,79,cs),
(419,79,o),
(316,104,o),
(291,150,c),
(291,890,l),
(347,940,o),
(449,1018,o),
(603,1018,cs)
);
}
);
userData = {
com.schriftgestaltung.Glyphs.lastChange = "2019-04-25 21:50:43 +0000";
};
width = 1212;
},
{
anchors = (
{
name = bottom;
pos = (651,0);
},
{
name = center;
pos = (190,1309);
},
{
name = top;
pos = (779,1110);
}
);
layerId = "97BB7961-D669-43AB-8BBF-11FFD0C46A4B";
shapes = (
{
closed = 1;
nodes = (
(127,1450,l),
(127,54,l),
(155,35,o),
(327,-21,o),
(625,-21,cs),
(1025,-21,o),
(1254,245,o),
(1254,592,cs),
(1254,984,o),
(1050,1140,o),
(783,1140,cs),
(650,1140,o),
(545,1080,o),
(483,1017,c),
(483,1600,l),
(418,1639,l),
(414,1639,l),
(-15,1592,l),
(-15,1477,l)
);
},
{
closed = 1;
nodes = (
(790,940,o),
(886,837,o),
(883,558,cs),
(879,248,o),
(780,104,o),
(616,104,cs),
(551,104,o),
(495,122,o),
(483,148,c),
(483,872,l),
(515,908,o),
(581,940,o),
(656,940,cs)
);
}
);
width = 1302;
}
);
subCategory = Lowercase;
unicode = 98;
}
